<ttFont>
    <TTGlyph name="A" xMin="8" yMin="0" xMax="1655" yMax="1505">
      <contour>
        <pt x="635" y="143" on="1"/>
        <pt x="635" y="0" on="1"/>
        <pt x="8" y="0" on="1"/>
        <pt x="8" y="143" on="1"/>
        <pt x="188" y="143" on="1"/>
        <pt x="715" y="1505" on="1"/>
        <pt x="952" y="1505" on="1"/>
        <pt x="1487" y="143" on="1"/>
        <pt x="1655" y="143" on="1"/>
        <pt x="1655" y="0" on="1"/>
        <pt x="1008" y="0" on="1"/>
        <pt x="1008" y="143" on="1"/>
        <pt x="1231" y="143" on="1"/>
        <pt x="1092" y="504" on="1"/>
        <pt x="514" y="504" on="1"/>
        <pt x="383" y="143" on="1"/>
      </contour>
      <contour>
        <pt x="1042" y="631" on="1"/>
        <pt x="795" y="1309" on="1"/>
        <pt x="561" y="631" on="1"/>
      </contour>
    </TTGlyph>
    <TTGlyph name="AE" xMin="0" yMin="0" xMax="2073" yMax="1479">
      <contour>
        <pt x="618" y="137" on="1"/>
        <pt x="618" y="0" on="1"/>
        <pt x="0" y="0" on="1"/>
        <pt x="0" y="137" on="1"/>
        <pt x="180" y="137" on="1"/>
        <pt x="874" y="1335" on="1"/>
        <pt x="608" y="1335" on="1"/>
        <pt x="608" y="1479" on="1"/>
        <pt x="2073" y="1479" on="1"/>
        <pt x="2073" y="899" on="1"/>
        <pt x="1892" y="899" on="1"/>
        <pt x="1892" y="1335" on="1"/>
        <pt x="1276" y="1335" on="1"/>
        <pt x="1276" y="813" on="1"/>
        <pt x="1567" y="813" on="1"/>
        <pt x="1567" y="1038" on="1"/>
        <pt x="1700" y="1038" on="1"/>
        <pt x="1700" y="424" on="1"/>
        <pt x="1567" y="424" on="1"/>
        <pt x="1567" y="698" on="1"/>
        <pt x="1276" y="698" on="1"/>
        <pt x="1276" y="137" on="1"/>
        <pt x="1892" y="137" on="1"/>
        <pt x="1892" y="571" on="1"/>
        <pt x="2073" y="571" on="1"/>
        <pt x="2073" y="0" on="1"/>
        <pt x="874" y="0" on="1"/>
        <pt x="874" y="137" on="1"/>
        <pt x="1059" y="137" on="1"/>
        <pt x="1059" y="504" on="1"/>
        <pt x="598" y="504" on="1"/>
        <pt x="401" y="137" on="1"/>
      </contour>
      <contour>
        <pt x="668" y="631" on="1"/>
        <pt x="1059" y="631" on="1"/>
        <pt x="1059" y="1335" on="1"/>
      </contour>
    </TTGlyph>
    <TTGlyph name="Aacute" xMin="8" yMin="0" xMax="1655" yMax="2041">
      <component glyphName="glyph00403" x="8" y="0" flags="0x0"/>
      <component glyphName="A" x="0" y="0" flags="0x1004"/>
      <component glyphName="acute" x="150" y="444" flags="0x1004"/>
    </TTGlyph>
    <TTGlyph name="Abreve" xMin="8" yMin="0" xMax="1655" yMax="1884">
      <component glyphName="glyph00403" x="8" y="0" flags="0x0"/>
      <component glyphName="breve" x="253" y="436" flags="0x1004"/>
      <component glyphName="A" x="0" y="0" flags="0x1204"/>
    </TTGlyph>
    <TTGlyph name="Acircumflex" xMin="8" yMin="0" xMax="1655" yMax="2085">
      <component glyphName="glyph00403" x="8" y="0" flags="0x0"/>
      <component glyphName="circumflex" x="62" y="479" flags="0x1004"/>
      <component glyphName="A" x="0" y="0" flags="0x1204"/>
    </TTGlyph>
    <TTGlyph name="Adieresis" xMin="8" yMin="0" xMax="1655" yMax="1914">
      <component glyphName="glyph00403" x="8" y="0" flags="0x0"/>
      <component glyphName="dieresis" x="284" y="458" flags="0x1004"/>
      <component glyphName="A" x="0" y="0" flags="0x1204"/>
    </TTGlyph>
    <TTGlyph name="Agrave" xMin="8" yMin="0" xMax="1655" yMax="2041">
      <component glyphName="glyph00403" x="8" y="0" flags="0x0"/>
      <component glyphName="A" x="0" y="0" flags="0x1004"/>
      <component glyphName="grave" x="150" y="444" flags="0x1004"/>
    </TTGlyph>
    <TTGlyph name="Amacron" xMin="8" yMin="0" xMax="1655" yMax="1776">
      <component glyphName="glyph00403" x="8" y="0" flags="0x0"/>
      <component glyphName="macron" x="416" y="297" flags="0x1004"/>
      <component glyphName="A" x="0" y="0" flags="0x1204"/>
    </TTGlyph>
    <TTGlyph name="Aogonek" xMin="8" yMin="-385" xMax="1655" yMax="1505">
      <component glyphName="glyph00403" x="8" y="0" flags="0x0"/>
      <component glyphName="ogonek" x="1182" y="0" flags="0x1004"/>
      <component glyphName="A" x="0" y="0" flags="0x1004"/>
    </TTGlyph>
    <TTGlyph name="Aring" xMin="8" yMin="0" xMax="1655" yMax="1889">
      <component glyphName="glyph00403" x="8" y="0" flags="0x0"/>
      <component glyphName="ring" x="282" y="316" flags="0x1004"/>
      <component glyphName="A" x="0" y="0" flags="0x1204"/>
    </TTGlyph>
    <TTGlyph name="Atilde" xMin="8" yMin="0" xMax="1655" yMax="1883">
      <component glyphName="glyph00403" x="8" y="0" flags="0x0"/>
      <component glyphName="tilde" x="202" y="372" flags="0x1004"/>
      <component glyphName="A" x="0" y="0" flags="0x1204"/>
    </TTGlyph>
    <TTGlyph name="B" xMin="33" yMin="0" xMax="1374" yMax="1505">
      <contour>
        <pt x="514" y="862" on="1"/>
        <pt x="731" y="862" on="1"/>
        <pt x="795" y="862" on="0"/>
        <pt x="913" y="888" on="0"/>
        <pt x="1016" y="941" on="0"/>
        <pt x="1077" y="1037" on="0"/>
        <pt x="1077" y="1100" on="1"/>
        <pt x="1077" y="1150" on="0"/>
        <pt x="1054" y="1227" on="0"/>
        <pt x="1015" y="1282" on="0"/>
        <pt x="947" y="1321" on="0"/>
        <pt x="875" y="1344" on="0"/>
        <pt x="767" y="1357" on="0"/>
        <pt x="666" y="1362" on="0"/>
        <pt x="594" y="1362" on="1"/>
        <pt x="514" y="1362" on="1"/>
      </contour>
      <contour>
        <pt x="514" y="143" on="1"/>
        <pt x="633" y="143" on="1"/>
        <pt x="701" y="143" on="0"/>
        <pt x="801" y="147" on="0"/>
        <pt x="904" y="157" on="0"/>
        <pt x="976" y="176" on="0"/>
        <pt x="1045" y="204" on="0"/>
        <pt x="1089" y="245" on="0"/>
        <pt x="1124" y="301" on="0"/>
        <pt x="1139" y="374" on="0"/>
        <pt x="1139" y="420" on="1"/>
        <pt x="1139" y="497" on="0"/>
        <pt x="1069" y="618" on="0"/>
        <pt x="952" y="691" on="0"/>
        <pt x="809" y="729" on="0"/>
        <pt x="731" y="729" on="1"/>
        <pt x="514" y="729" on="1"/>
      </contour>
      <contour>
        <pt x="33" y="0" on="1"/>
        <pt x="33" y="143" on="1"/>
        <pt x="279" y="143" on="1"/>
        <pt x="279" y="1362" on="1"/>
        <pt x="33" y="1362" on="1"/>
        <pt x="33" y="1505" on="1"/>
        <pt x="688" y="1505" on="1"/>
        <pt x="755" y="1505" on="0"/>
        <pt x="881" y="1493" on="0"/>
        <pt x="1025" y="1465" on="0"/>
        <pt x="1142" y="1410" on="0"/>
        <pt x="1239" y="1331" on="0"/>
        <pt x="1294" y="1209" on="0"/>
        <pt x="1294" y="1133" on="1"/>
        <pt x="1294" y="1005" on="0"/>
        <pt x="1154" y="848" on="0"/>
        <pt x="1018" y="809" on="1"/>
        <pt x="1190" y="767" on="0"/>
        <pt x="1374" y="569" on="0"/>
        <pt x="1374" y="412" on="1"/>
        <pt x="1374" y="331" on="0"/>
        <pt x="1325" y="202" on="0"/>
        <pt x="1249" y="117" on="0"/>
        <pt x="1130" y="55" on="0"/>
        <pt x="1019" y="23" on="0"/>
        <pt x="870" y="4" on="0"/>
        <pt x="765" y="0" on="0"/>
        <pt x="696" y="0" on="1"/>
      </contour>
    </TTGlyph>
    <TTGlyph name="C" xMin="84" yMin="-27" xMax="1430" yMax="1536">
      <contour>
        <pt x="817" y="1536" on="1"/>
        <pt x="954" y="1536" on="0"/>
        <pt x="1206" y="1421" on="0"/>
        <pt x="1370" y="1205" on="0"/>
        <pt x="1370" y="1073" on="1"/>
        <pt x="1370" y="1005" on="0"/>
        <pt x="1263" y="891" on="0"/>
        <pt x="1174" y="891" on="1"/>
        <pt x="1098" y="891" on="0"/>
        <pt x="1004" y="980" on="0"/>
        <pt x="1004" y="1134" on="0"/>
        <pt x="1122" y="1217" on="0"/>
        <pt x="1182" y="1217" on="1"/>
        <pt x="1133" y="1292" on="0"/>
        <pt x="941" y="1396" on="0"/>
        <pt x="815" y="1396" on="1"/>
        <pt x="611" y="1396" on="0"/>
        <pt x="348" y="1052" on="0"/>
        <pt x="348" y="764" on="1"/>
        <pt x="348" y="654" on="0"/>
        <pt x="418" y="440" on="0"/>
        <pt x="544" y="265" on="0"/>
        <pt x="741" y="158" on="0"/>
        <pt x="858" y="158" on="1"/>
        <pt x="946" y="158" on="0"/>
        <pt x="1101" y="224" on="0"/>
        <pt x="1207" y="331" on="0"/>
        <pt x="1279" y="456" on="0"/>
        <pt x="1296" y="522" on="1"/>
        <pt x="1430" y="457" on="1"/>
        <pt x="1377" y="226" on="0"/>
        <pt x="1053" y="-27" on="0"/>
        <pt x="795" y="-27" on="1"/>
        <pt x="640" y="-27" on="0"/>
        <pt x="372" y="101" on="0"/>
        <pt x="188" y="317" on="0"/>
        <pt x="84" y="608" on="0"/>
        <pt x="84" y="768" on="1"/>
        <pt x="84" y="933" on="0"/>
        <pt x="190" y="1217" on="0"/>
        <pt x="380" y="1420" on="0"/>
        <pt x="655" y="1536" on="0"/>
      </contour>
    </TTGlyph>
    <TTGlyph name="Cacute" xMin="84" yMin="-27" xMax="1430" yMax="2041">
      <component glyphName="glyph00403" x="84" y="0" flags="0x0"/>
      <component glyphName="C" x="0" y="0" flags="0x1004"/>
      <component glyphName="acute" x="134" y="444" flags="0x1004"/>
    </TTGlyph>
    <TTGlyph name="Ccaron" xMin="84" yMin="-27" xMax="1430" yMax="2085">
      <component glyphName="glyph00403" x="84" y="0" flags="0x0"/>
      <component glyphName="caron" x="48" y="479" flags="0x1004"/>
      <component glyphName="C" x="0" y="0" flags="0x1204"/>
    </TTGlyph>
    <TTGlyph name="Ccedilla" xMin="84" yMin="-456" xMax="1430" yMax="1536">
      <component glyphName="glyph00403" x="84" y="0" flags="0x0"/>
      <component glyphName="cedilla" x="525" y="-12" flags="0x1004"/>
      <component glyphName="C" x="0" y="0" flags="0x1204"/>
    </TTGlyph>
    <TTGlyph name="Ccircumflex" xMin="84" yMin="-27" xMax="1430" yMax="2085">
      <component glyphName="glyph00403" x="84" y="0" flags="0x0"/>
      <component glyphName="circumflex" x="36" y="479" flags="0x1004"/>
      <component glyphName="C" x="0" y="0" flags="0x1204"/>
    </TTGlyph>
    <TTGlyph name="Cdotaccent" xMin="84" yMin="-27" xMax="1430" yMax="1935">
      <component glyphName="glyph00403" x="84" y="0" flags="0x0"/>
      <component glyphName="uni0307" x="482" y="428" flags="0x1004"/>
      <component glyphName="C" x="0" y="0" flags="0x1204"/>
    </TTGlyph>
    <TTGlyph name="D" xMin="33" yMin="0" xMax="1485" yMax="1505">
      <contour>
        <pt x="512" y="143" on="1"/>
        <pt x="638" y="143" on="0"/>
        <pt x="843" y="178" on="0"/>
        <pt x="1029" y="265" on="0"/>
        <pt x="1155" y="404" on="0"/>
        <pt x="1229" y="620" on="0"/>
        <pt x="1229" y="762" on="1"/>
        <pt x="1229" y="868" on="0"/>
        <pt x="1188" y="1041" on="0"/>
        <pt x="1117" y="1164" on="0"/>
        <pt x="1010" y="1257" on="0"/>
        <pt x="891" y="1313" on="0"/>
        <pt x="741" y="1347" on="0"/>
        <pt x="597" y="1360" on="0"/>
        <pt x="512" y="1360" on="1"/>
      </contour>
      <contour>
        <pt x="33" y="1362" on="1"/>
        <pt x="33" y="1505" on="1"/>
        <pt x="485" y="1505" on="1"/>
        <pt x="647" y="1505" on="0"/>
        <pt x="924" y="1464" on="0"/>
        <pt x="1188" y="1359" on="0"/>
        <pt x="1373" y="1195" on="0"/>
        <pt x="1485" y="932" on="0"/>
        <pt x="1485" y="762" on="1"/>
        <pt x="1485" y="602" on="0"/>
        <pt x="1393" y="347" on="0"/>
        <pt x="1226" y="171" on="0"/>
        <pt x="985" y="54" on="0"/>
        <pt x="695" y="0" on="0"/>
        <pt x="522" y="0" on="1"/>
        <pt x="33" y="0" on="1"/>
        <pt x="33" y="143" on="1"/>
        <pt x="276" y="143" on="1"/>
        <pt x="276" y="1362" on="1"/>
      </contour>
    </TTGlyph>
    <TTGlyph name="Dcaron" xMin="33" yMin="0" xMax="1485" yMax="2085">
      <component glyphName="glyph00403" x="33" y="0" flags="0x0"/>
      <component glyphName="caron" x="-10" y="479" flags="0x1004"/>
      <component glyphName="D" x="0" y="0" flags="0x1204"/>
    </TTGlyph>
    <TTGlyph name="Dcroat" xMin="33" yMin="0" xMax="1485" yMax="1505">
      <contour>
        <pt x="522" y="0" on="1"/>
        <pt x="33" y="0" on="1"/>
        <pt x="33" y="137" on="1"/>
        <pt x="276" y="137" on="1"/>
        <pt x="276" y="690" on="1"/>
        <pt x="55" y="690" on="1"/>
        <pt x="55" y="834" on="1"/>
        <pt x="276" y="834" on="1"/>
        <pt x="276" y="1362" on="1"/>
        <pt x="33" y="1362" on="1"/>
        <pt x="33" y="1505" on="1"/>
        <pt x="485" y="1505" on="1"/>
        <pt x="647" y="1505" on="0"/>
        <pt x="924" y="1464" on="0"/>
        <pt x="1188" y="1359" on="0"/>
        <pt x="1373" y="1195" on="0"/>
        <pt x="1485" y="932" on="0"/>
        <pt x="1485" y="762" on="1"/>
        <pt x="1485" y="602" on="0"/>
        <pt x="1393" y="347" on="0"/>
        <pt x="1226" y="171" on="0"/>
        <pt x="985" y="54" on="0"/>
        <pt x="695" y="0" on="0"/>
      </contour>
      <contour>
        <pt x="512" y="137" on="1"/>
        <pt x="638" y="137" on="0"/>
        <pt x="843" y="172" on="0"/>
        <pt x="1029" y="261" on="0"/>
        <pt x="1155" y="400" on="0"/>
        <pt x="1229" y="619" on="0"/>
        <pt x="1229" y="762" on="1"/>
        <pt x="1229" y="868" on="0"/>
        <pt x="1188" y="1041" on="0"/>
        <pt x="1117" y="1164" on="0"/>
        <pt x="1010" y="1257" on="0"/>
        <pt x="891" y="1313" on="0"/>
        <pt x="741" y="1347" on="0"/>
        <pt x="597" y="1360" on="0"/>
        <pt x="512" y="1360" on="1"/>
        <pt x="512" y="834" on="1"/>
        <pt x="764" y="834" on="1"/>
        <pt x="764" y="690" on="1"/>
        <pt x="512" y="690" on="1"/>
      </contour>
    </TTGlyph>
    <TTGlyph name="E" xMin="33" yMin="0" xMax="1393" yMax="1505">
      <contour>
        <pt x="33" y="0" on="1"/>
        <pt x="33" y="143" on="1"/>
        <pt x="279" y="143" on="1"/>
        <pt x="279" y="1362" on="1"/>
        <pt x="33" y="1362" on="1"/>
        <pt x="33" y="1505" on="1"/>
        <pt x="1393" y="1505" on="1"/>
        <pt x="1393" y="926" on="1"/>
        <pt x="1212" y="926" on="1"/>
        <pt x="1212" y="1362" on="1"/>
        <pt x="514" y="1362" on="1"/>
        <pt x="514" y="821" on="1"/>
        <pt x="887" y="821" on="1"/>
        <pt x="887" y="1067" on="1"/>
        <pt x="1020" y="1067" on="1"/>
        <pt x="1020" y="446" on="1"/>
        <pt x="887" y="446" on="1"/>
        <pt x="887" y="707" on="1"/>
        <pt x="514" y="707" on="1"/>
        <pt x="514" y="143" on="1"/>
        <pt x="1212" y="143" on="1"/>
        <pt x="1212" y="571" on="1"/>
        <pt x="1393" y="571" on="1"/>
        <pt x="1393" y="0" on="1"/>
      </contour>
    </TTGlyph>
    <TTGlyph name="Eacute" xMin="33" yMin="0" xMax="1393" yMax="2041">
      <component glyphName="glyph00403" x="33" y="0" flags="0x0"/>
      <component glyphName="E" x="0" y="0" flags="0x1004"/>
      <component glyphName="acute" x="30" y="444" flags="0x1004"/>
    </TTGlyph>
    <TTGlyph name="Ecaron" xMin="33" yMin="0" xMax="1393" yMax="2085">
      <component glyphName="glyph00403" x="33" y="0" flags="0x0"/>
      <component glyphName="caron" x="-56" y="479" flags="0x1004"/>
      <component glyphName="E" x="0" y="0" flags="0x1204"/>
    </TTGlyph>
    <TTGlyph name="Ecircumflex" xMin="33" yMin="0" xMax="1393" yMax="2085">
      <component glyphName="glyph00403" x="33" y="0" flags="0x0"/>
      <component glyphName="circumflex" x="-56" y="479" flags="0x1004"/>
      <component glyphName="E" x="0" y="0" flags="0x1204"/>
    </TTGlyph>
    <TTGlyph name="Edieresis" xMin="33" yMin="0" xMax="1393" yMax="1914">
      <component glyphName="glyph00403" x="33" y="0" flags="0x0"/>
      <component glyphName="dieresis" x="231" y="458" flags="0x1004"/>
      <component glyphName="E" x="0" y="0" flags="0x1204"/>
    </TTGlyph>
    <TTGlyph name="Edotaccent" xMin="33" yMin="0" xMax="1393" yMax="1935">
      <component glyphName="glyph00403" x="33" y="0" flags="0x0"/>
      <component glyphName="uni0307" x="378" y="428" flags="0x1004"/>
      <component glyphName="E" x="0" y="0" flags="0x1204"/>
    </TTGlyph>
    <TTGlyph name="Egrave" xMin="33" yMin="0" xMax="1393" yMax="2041">
      <component glyphName="glyph00403" x="33" y="0" flags="0x0"/>
      <component glyphName="E" x="0" y="0" flags="0x1004"/>
      <component glyphName="grave" x="30" y="444" flags="0x1004"/>
    </TTGlyph>
    <TTGlyph name="Emacron" xMin="33" yMin="0" xMax="1393" yMax="1776">
      <component glyphName="glyph00403" x="33" y="0" flags="0x0"/>
      <component glyphName="macron" x="297" y="297" flags="0x1004"/>
      <component glyphName="E" x="0" y="0" flags="0x1204"/>
    </TTGlyph>
    <TTGlyph name="Eogonek" xMin="33" yMin="-381" xMax="1393" yMax="1505">
      <component glyphName="glyph00403" x="33" y="0" flags="0x0"/>
      <component glyphName="ogonek" x="964" y="4" flags="0x1004"/>
      <component glyphName="E" x="0" y="0" flags="0x1004"/>
    </TTGlyph>
    <TTGlyph name="Eth" xMin="33" yMin="0" xMax="1485" yMax="1505">
      <contour>
        <pt x="33" y="1362" on="1"/>
        <pt x="33" y="1505" on="1"/>
        <pt x="485" y="1505" on="1"/>
        <pt x="647" y="1505" on="0"/>
        <pt x="924" y="1464" on="0"/>
        <pt x="1188" y="1359" on="0"/>
        <pt x="1373" y="1195" on="0"/>
        <pt x="1485" y="932" on="0"/>
        <pt x="1485" y="762" on="1"/>
        <pt x="1485" y="602" on="0"/>
        <pt x="1393" y="347" on="0"/>
        <pt x="1226" y="171" on="0"/>
        <pt x="985" y="54" on="0"/>
        <pt x="695" y="0" on="0"/>
        <pt x="522" y="0" on="1"/>
        <pt x="33" y="0" on="1"/>
        <pt x="33" y="137" on="1"/>
        <pt x="276" y="137" on="1"/>
        <pt x="276" y="690" on="1"/>
        <pt x="55" y="690" on="1"/>
        <pt x="55" y="834" on="1"/>
        <pt x="276" y="834" on="1"/>
        <pt x="276" y="1362" on="1"/>
      </contour>
      <contour>
        <pt x="512" y="137" on="1"/>
        <pt x="638" y="137" on="0"/>
        <pt x="843" y="172" on="0"/>
        <pt x="1029" y="261" on="0"/>
        <pt x="1155" y="400" on="0"/>
        <pt x="1229" y="619" on="0"/>
        <pt x="1229" y="762" on="1"/>
        <pt x="1229" y="868" on="0"/>
        <pt x="1188" y="1041" on="0"/>
        <pt x="1117" y="1164" on="0"/>
        <pt x="1010" y="1257" on="0"/>
        <pt x="891" y="1313" on="0"/>
        <pt x="741" y="1347" on="0"/>
        <pt x="597" y="1360" on="0"/>
        <pt x="512" y="1360" on="1"/>
        <pt x="512" y="834" on="1"/>
        <pt x="764" y="834" on="1"/>
        <pt x="764" y="690" on="1"/>
        <pt x="512" y="690" on="1"/>
      </contour>
    </TTGlyph>
    <TTGlyph name="Euro" xMin="70" yMin="-27" xMax="1604" yMax="1536">
      <contour>
        <pt x="991" y="1536" on="1"/>
        <pt x="1128" y="1536" on="0"/>
        <pt x="1380" y="1421" on="0"/>
        <pt x="1544" y="1205" on="0"/>
        <pt x="1544" y="1073" on="1"/>
        <pt x="1544" y="1005" on="0"/>
        <pt x="1437" y="891" on="0"/>
        <pt x="1348" y="891" on="1"/>
        <pt x="1272" y="891" on="0"/>
        <pt x="1178" y="980" on="0"/>
        <pt x="1178" y="1134" on="0"/>
        <pt x="1296" y="1217" on="0"/>
        <pt x="1356" y="1217" on="1"/>
        <pt x="1307" y="1292" on="0"/>
        <pt x="1115" y="1396" on="0"/>
        <pt x="989" y="1396" on="1"/>
        <pt x="830" y="1396" on="0"/>
        <pt x="594" y="1181" on="0"/>
        <pt x="548" y="990" on="1"/>
        <pt x="913" y="990" on="1"/>
        <pt x="913" y="853" on="1"/>
        <pt x="526" y="853" on="1"/>
        <pt x="522" y="799" on="0"/>
        <pt x="522" y="770" on="1"/>
        <pt x="522" y="716" on="0"/>
        <pt x="527" y="679" on="1"/>
        <pt x="823" y="679" on="1"/>
        <pt x="823" y="541" on="1"/>
        <pt x="558" y="541" on="1"/>
        <pt x="614" y="373" on="0"/>
        <pt x="859" y="158" on="0"/>
        <pt x="1032" y="158" on="1"/>
        <pt x="1120" y="158" on="0"/>
        <pt x="1275" y="224" on="0"/>
        <pt x="1381" y="331" on="0"/>
        <pt x="1453" y="456" on="0"/>
        <pt x="1470" y="522" on="1"/>
        <pt x="1604" y="457" on="1"/>
        <pt x="1551" y="226" on="0"/>
        <pt x="1227" y="-27" on="0"/>
        <pt x="969" y="-27" on="1"/>
        <pt x="718" y="-27" on="0"/>
        <pt x="346" y="292" on="0"/>
        <pt x="284" y="541" on="1"/>
        <pt x="125" y="541" on="1"/>
        <pt x="125" y="679" on="1"/>
        <pt x="261" y="679" on="1"/>
        <pt x="258" y="718" on="0"/>
        <pt x="258" y="757" on="1"/>
        <pt x="258" y="801" on="0"/>
        <pt x="263" y="853" on="1"/>
        <pt x="70" y="853" on="1"/>
        <pt x="70" y="990" on="1"/>
        <pt x="287" y="990" on="1"/>
        <pt x="350" y="1239" on="0"/>
        <pt x="723" y="1536" on="0"/>
      </contour>
    </TTGlyph>
    <TTGlyph name="F" xMin="33" yMin="0" xMax="1374" yMax="1505">
      <contour>
        <pt x="33" y="0" on="1"/>
        <pt x="33" y="143" on="1"/>
        <pt x="276" y="143" on="1"/>
        <pt x="276" y="1362" on="1"/>
        <pt x="33" y="1362" on="1"/>
        <pt x="33" y="1505" on="1"/>
        <pt x="1374" y="1505" on="1"/>
        <pt x="1374" y="956" on="1"/>
        <pt x="1192" y="956" on="1"/>
        <pt x="1192" y="1362" on="1"/>
        <pt x="512" y="1362" on="1"/>
        <pt x="512" y="844" on="1"/>
        <pt x="872" y="844" on="1"/>
        <pt x="872" y="1055" on="1"/>
        <pt x="1010" y="1055" on="1"/>
        <pt x="1010" y="471" on="1"/>
        <pt x="872" y="471" on="1"/>
        <pt x="872" y="725" on="1"/>
        <pt x="512" y="725" on="1"/>
        <pt x="512" y="143" on="1"/>
        <pt x="772" y="143" on="1"/>
        <pt x="772" y="0" on="1"/>
      </contour>
    </TTGlyph>
    <TTGlyph name="G" xMin="84" yMin="-27" xMax="1595" yMax="1536">
      <contour>
        <pt x="855" y="1536" on="1"/>
        <pt x="1021" y="1536" on="0"/>
        <pt x="1288" y="1413" on="0"/>
        <pt x="1434" y="1208" on="0"/>
        <pt x="1434" y="1085" on="1"/>
        <pt x="1434" y="1023" on="0"/>
        <pt x="1340" y="920" on="0"/>
        <pt x="1262" y="920" on="1"/>
        <pt x="1190" y="920" on="0"/>
        <pt x="1094" y="1017" on="0"/>
        <pt x="1094" y="1077" on="1"/>
        <pt x="1094" y="1147" on="0"/>
        <pt x="1182" y="1237" on="0"/>
        <pt x="1221" y="1237" on="1"/>
        <pt x="1225" y="1237" on="1"/>
        <pt x="1182" y="1296" on="0"/>
        <pt x="1047" y="1372" on="0"/>
        <pt x="932" y="1396" on="0"/>
        <pt x="874" y="1396" on="1"/>
        <pt x="713" y="1396" on="0"/>
        <pt x="470" y="1225" on="0"/>
        <pt x="346" y="940" on="0"/>
        <pt x="346" y="762" on="1"/>
        <pt x="346" y="643" on="0"/>
        <pt x="422" y="421" on="0"/>
        <pt x="553" y="253" on="0"/>
        <pt x="744" y="152" on="0"/>
        <pt x="852" y="152" on="1"/>
        <pt x="929" y="152" on="0"/>
        <pt x="1072" y="210" on="0"/>
        <pt x="1169" y="299" on="0"/>
        <pt x="1227" y="401" on="0"/>
        <pt x="1227" y="446" on="1"/>
        <pt x="1227" y="586" on="1"/>
        <pt x="944" y="586" on="1"/>
        <pt x="944" y="737" on="1"/>
        <pt x="1595" y="737" on="1"/>
        <pt x="1595" y="586" on="1"/>
        <pt x="1432" y="586" on="1"/>
        <pt x="1432" y="0" on="1"/>
        <pt x="1311" y="0" on="1"/>
        <pt x="1262" y="211" on="1"/>
        <pt x="1228" y="144" on="0"/>
        <pt x="1117" y="47" on="0"/>
        <pt x="985" y="-4" on="0"/>
        <pt x="855" y="-27" on="0"/>
        <pt x="788" y="-27" on="1"/>
        <pt x="650" y="-27" on="0"/>
        <pt x="416" y="64" on="0"/>
        <pt x="253" y="218" on="0"/>
        <pt x="138" y="421" on="0"/>
        <pt x="84" y="644" on="0"/>
        <pt x="84" y="760" on="1"/>
        <pt x="84" y="912" on="0"/>
        <pt x="191" y="1191" on="0"/>
        <pt x="384" y="1407" on="0"/>
        <pt x="679" y="1536" on="0"/>
      </contour>
    </TTGlyph>
    <TTGlyph name="Gbreve" xMin="84" yMin="-27" xMax="1595" yMax="1884">
      <component glyphName="glyph00403" x="84" y="0" flags="0x0"/>
      <component glyphName="breve" x="276" y="436" flags="0x1004"/>
      <component glyphName="G" x="0" y="0" flags="0x1204"/>
    </TTGlyph>
    <TTGlyph name="Gcircumflex" xMin="84" yMin="-27" xMax="1595" yMax="2085">
      <component glyphName="glyph00403" x="84" y="0" flags="0x0"/>
      <component glyphName="circumflex" x="70" y="479" flags="0x1004"/>
      <component glyphName="G" x="0" y="0" flags="0x1204"/>
    </TTGlyph>
    <TTGlyph name="Gcommaaccent" xMin="84" yMin="-570" xMax="1595" yMax="1536">
      <component glyphName="glyph00403" x="84" y="0" flags="0x0"/>
      <component glyphName="uni0326" x="224" y="-60" flags="0x1004"/>
      <component glyphName="G" x="0" y="0" flags="0x1204"/>
    </TTGlyph>
    <TTGlyph name="Gdotaccent" xMin="84" yMin="-27" xMax="1595" yMax="1935">
      <component glyphName="glyph00403" x="84" y="0" flags="0x0"/>
      <component glyphName="uni0307" x="520" y="428" flags="0x1004"/>
      <component glyphName="G" x="0" y="0" flags="0x1204"/>
    </TTGlyph>
    <TTGlyph name="H" xMin="33" yMin="0" xMax="1622" yMax="1505">
      <contour>
        <pt x="1622" y="143" on="1"/>
        <pt x="1622" y="0" on="1"/>
        <pt x="911" y="0" on="1"/>
        <pt x="911" y="143" on="1"/>
        <pt x="1143" y="143" on="1"/>
        <pt x="1143" y="725" on="1"/>
        <pt x="512" y="725" on="1"/>
        <pt x="512" y="143" on="1"/>
        <pt x="741" y="143" on="1"/>
        <pt x="741" y="0" on="1"/>
        <pt x="33" y="0" on="1"/>
        <pt x="33" y="143" on="1"/>
        <pt x="276" y="143" on="1"/>
        <pt x="276" y="1362" on="1"/>
        <pt x="33" y="1362" on="1"/>
        <pt x="33" y="1505" on="1"/>
        <pt x="741" y="1505" on="1"/>
        <pt x="741" y="1362" on="1"/>
        <pt x="512" y="1362" on="1"/>
        <pt x="512" y="852" on="1"/>
        <pt x="1143" y="852" on="1"/>
        <pt x="1143" y="1362" on="1"/>
        <pt x="911" y="1362" on="1"/>
        <pt x="911" y="1505" on="1"/>
        <pt x="1622" y="1505" on="1"/>
        <pt x="1622" y="1362" on="1"/>
        <pt x="1378" y="1362" on="1"/>
        <pt x="1378" y="143" on="1"/>
      </contour>
    </TTGlyph>
    <TTGlyph name="Hbar" xMin="33" yMin="0" xMax="1622" yMax="1505">
      <contour>
        <pt x="1143" y="1048" on="1"/>
        <pt x="512" y="1048" on="1"/>
        <pt x="512" y="852" on="1"/>
        <pt x="1143" y="852" on="1"/>
      </contour>
      <contour>
        <pt x="741" y="0" on="1"/>
        <pt x="33" y="0" on="1"/>
        <pt x="33" y="137" on="1"/>
        <pt x="276" y="137" on="1"/>
        <pt x="276" y="1048" on="1"/>
        <pt x="173" y="1048" on="1"/>
        <pt x="173" y="1166" on="1"/>
        <pt x="276" y="1166" on="1"/>
        <pt x="276" y="1362" on="1"/>
        <pt x="33" y="1362" on="1"/>
        <pt x="33" y="1505" on="1"/>
        <pt x="741" y="1505" on="1"/>
        <pt x="741" y="1362" on="1"/>
        <pt x="512" y="1362" on="1"/>
        <pt x="512" y="1166" on="1"/>
        <pt x="1143" y="1166" on="1"/>
        <pt x="1143" y="1362" on="1"/>
        <pt x="911" y="1362" on="1"/>
        <pt x="911" y="1505" on="1"/>
        <pt x="1622" y="1505" on="1"/>
        <pt x="1622" y="1362" on="1"/>
        <pt x="1378" y="1362" on="1"/>
        <pt x="1378" y="1166" on="1"/>
        <pt x="1484" y="1166" on="1"/>
        <pt x="1484" y="1048" on="1"/>
        <pt x="1378" y="1048" on="1"/>
        <pt x="1378" y="137" on="1"/>
        <pt x="1622" y="137" on="1"/>
        <pt x="1622" y="0" on="1"/>
        <pt x="911" y="0" on="1"/>
        <pt x="911" y="137" on="1"/>
        <pt x="1143" y="137" on="1"/>
        <pt x="1143" y="725" on="1"/>
        <pt x="512" y="725" on="1"/>
        <pt x="512" y="137" on="1"/>
        <pt x="741" y="137" on="1"/>
      </contour>
    </TTGlyph>
    <TTGlyph name="Hcircumflex" xMin="33" yMin="0" xMax="1622" yMax="2085">
      <component glyphName="glyph00403" x="33" y="0" flags="0x0"/>
      <component glyphName="circumflex" x="58" y="479" flags="0x1004"/>
      <component glyphName="H" x="0" y="0" flags="0x1204"/>
    </TTGlyph>
    <TTGlyph name="I" xMin="30" yMin="0" xMax="739" yMax="1505">
      <contour>
        <pt x="509" y="143" on="1"/>
        <pt x="739" y="143" on="1"/>
        <pt x="739" y="0" on="1"/>
        <pt x="30" y="0" on="1"/>
        <pt x="30" y="143" on="1"/>
        <pt x="274" y="143" on="1"/>
        <pt x="274" y="1362" on="1"/>
        <pt x="30" y="1362" on="1"/>
        <pt x="30" y="1505" on="1"/>
        <pt x="739" y="1505" on="1"/>
        <pt x="739" y="1362" on="1"/>
        <pt x="509" y="1362" on="1"/>
      </contour>
    </TTGlyph>
    <TTGlyph name="IJ" xMin="30" yMin="-201" xMax="1939" yMax="1505">
      <component glyphName="glyph00403" x="30" y="0" flags="0x0"/>
      <component glyphName="J" x="790" y="0" flags="0x1004"/>
      <component glyphName="I" x="0" y="0" flags="0x1004"/>
    </TTGlyph>
    <TTGlyph name="Iacute" xMin="30" yMin="0" xMax="739" yMax="2041">
      <component glyphName="glyph00403" x="30" y="0" flags="0x0"/>
      <component glyphName="I" x="0" y="0" flags="0x1004"/>
      <component glyphName="acute" x="-299" y="444" flags="0x1004"/>
    </TTGlyph>
    <TTGlyph name="Ibreve" xMin="30" yMin="0" xMax="739" yMax="1884">
      <component glyphName="glyph00403" x="30" y="0" flags="0x0"/>
      <component glyphName="breve" x="-194" y="436" flags="0x1004"/>
      <component glyphName="I" x="0" y="0" flags="0x1204"/>
    </TTGlyph>
    <TTGlyph name="Icircumflex" xMin="30" yMin="0" xMax="739" yMax="2085">
      <component glyphName="glyph00403" x="30" y="0" flags="0x0"/>
      <component glyphName="circumflex" x="-385" y="479" flags="0x1004"/>
      <component glyphName="I" x="0" y="0" flags="0x1204"/>
    </TTGlyph>
    <TTGlyph name="Idieresis" xMin="9" yMin="0" xMax="761" yMax="1914">
      <component glyphName="glyph00403" x="9" y="0" flags="0x0"/>
      <component glyphName="dieresis" x="-163" y="458" flags="0x1004"/>
      <component glyphName="I" x="0" y="0" flags="0x1204"/>
    </TTGlyph>
    <TTGlyph name="Idotaccent" xMin="30" yMin="0" xMax="739" yMax="1935">
      <component glyphName="glyph00403" x="30" y="0" flags="0x0"/>
      <component glyphName="uni0307" x="50" y="428" flags="0x1004"/>
      <component glyphName="I" x="0" y="0" flags="0x1204"/>
    </TTGlyph>
    <TTGlyph name="Igrave" xMin="30" yMin="0" xMax="739" yMax="2041">
      <component glyphName="glyph00403" x="30" y="0" flags="0x0"/>
      <component glyphName="I" x="0" y="0" flags="0x1004"/>
      <component glyphName="grave" x="-299" y="444" flags="0x1004"/>
    </TTGlyph>
    <TTGlyph name="Imacron" xMin="30" yMin="0" xMax="739" yMax="1776">
      <component glyphName="glyph00403" x="30" y="0" flags="0x0"/>
      <component glyphName="macron" x="-31" y="297" flags="0x1004"/>
      <component glyphName="I" x="0" y="0" flags="0x1204"/>
    </TTGlyph>
    <TTGlyph name="Iogonek" xMin="30" yMin="-384" xMax="739" yMax="1505">
      <component glyphName="glyph00403" x="30" y="0" flags="0x0"/>
      <component glyphName="ogonek" x="157" y="1" flags="0x1004"/>
      <component glyphName="I" x="0" y="0" flags="0x1204"/>
    </TTGlyph>
    <TTGlyph name="Itilde" xMin="30" yMin="0" xMax="739" yMax="1883">
      <component glyphName="glyph00403" x="30" y="0" flags="0x0"/>
      <component glyphName="tilde" x="-245" y="372" flags="0x1004"/>
      <component glyphName="I" x="0" y="0" flags="0x1204"/>
    </TTGlyph>
    <TTGlyph name="J" xMin="35" yMin="-201" xMax="1149" yMax="1505">
      <contour>
        <pt x="451" y="-201" on="1"/>
        <pt x="267" y="-201" on="0"/>
        <pt x="35" y="-11" on="0"/>
        <pt x="35" y="123" on="1"/>
        <pt x="35" y="207" on="0"/>
        <pt x="135" y="301" on="0"/>
        <pt x="205" y="301" on="1"/>
        <pt x="271" y="301" on="0"/>
        <pt x="371" y="214" on="0"/>
        <pt x="371" y="141" on="1"/>
        <pt x="371" y="88" on="0"/>
        <pt x="301" y="-2" on="0"/>
        <pt x="260" y="-27" on="1"/>
        <pt x="279" y="-54" on="0"/>
        <pt x="392" y="-88" on="0"/>
        <pt x="440" y="-88" on="1"/>
        <pt x="500" y="-88" on="0"/>
        <pt x="586" y="-50" on="0"/>
        <pt x="637" y="14" on="0"/>
        <pt x="666" y="120" on="0"/>
        <pt x="676" y="232" on="0"/>
        <pt x="676" y="311" on="1"/>
        <pt x="676" y="1362" on="1"/>
        <pt x="395" y="1362" on="1"/>
        <pt x="395" y="1505" on="1"/>
        <pt x="1149" y="1505" on="1"/>
        <pt x="1149" y="1362" on="1"/>
        <pt x="911" y="1362" on="1"/>
        <pt x="911" y="338" on="1"/>
        <pt x="911" y="244" on="0"/>
        <pt x="888" y="93" on="0"/>
        <pt x="826" y="-49" on="0"/>
        <pt x="725" y="-144" on="0"/>
        <pt x="560" y="-201" on="0"/>
      </contour>
    </TTGlyph>
    <TTGlyph name="Jcircumflex" xMin="35" yMin="-201" xMax="1149" yMax="2085">
      <component glyphName="glyph00403" x="35" y="0" flags="0x0"/>
      <component glyphName="J" x="0" y="0" flags="0x1004"/>
      <component glyphName="circumflex" x="3" y="479" flags="0x1004"/>
    </TTGlyph>
    <TTGlyph name="K" xMin="33" yMin="0" xMax="1612" yMax="1505">
      <contour>
        <pt x="905" y="0" on="1"/>
        <pt x="905" y="143" on="1"/>
        <pt x="1128" y="143" on="1"/>
        <pt x="684" y="696" on="1"/>
        <pt x="512" y="553" on="1"/>
        <pt x="512" y="143" on="1"/>
        <pt x="723" y="143" on="1"/>
        <pt x="723" y="0" on="1"/>
        <pt x="33" y="0" on="1"/>
        <pt x="33" y="143" on="1"/>
        <pt x="276" y="143" on="1"/>
        <pt x="276" y="1362" on="1"/>
        <pt x="33" y="1362" on="1"/>
        <pt x="33" y="1505" on="1"/>
        <pt x="723" y="1505" on="1"/>
        <pt x="723" y="1362" on="1"/>
        <pt x="512" y="1362" on="1"/>
        <pt x="512" y="735" on="1"/>
        <pt x="521" y="738" on="0"/>
        <pt x="600" y="805" on="0"/>
        <pt x="612" y="817" on="1"/>
        <pt x="640" y="844" on="0"/>
        <pt x="893" y="1116" on="0"/>
        <pt x="1006" y="1239" on="1"/>
        <pt x="1118" y="1362" on="1"/>
        <pt x="889" y="1362" on="1"/>
        <pt x="889" y="1505" on="1"/>
        <pt x="1599" y="1505" on="1"/>
        <pt x="1599" y="1362" on="1"/>
        <pt x="1370" y="1362" on="1"/>
        <pt x="862" y="825" on="1"/>
        <pt x="1436" y="143" on="1"/>
        <pt x="1612" y="143" on="1"/>
        <pt x="1612" y="0" on="1"/>
      </contour>
    </TTGlyph>
    <TTGlyph name="Kcommaaccent" xMin="33" yMin="-543" xMax="1612" yMax="1505">
      <component glyphName="glyph00403" x="33" y="0" flags="0x0"/>
      <component glyphName="uni0326" x="207" y="-33" flags="0x1004"/>
      <component glyphName="K" x="0" y="0" flags="0x1204"/>
    </TTGlyph>
    <TTGlyph name="L" xMin="33" yMin="0" xMax="1264" yMax="1505">
      <contour>
        <pt x="1264" y="0" on="1"/>
        <pt x="33" y="0" on="1"/>
        <pt x="33" y="143" on="1"/>
        <pt x="276" y="143" on="1"/>
        <pt x="276" y="1362" on="1"/>
        <pt x="33" y="1362" on="1"/>
        <pt x="33" y="1505" on="1"/>
        <pt x="741" y="1505" on="1"/>
        <pt x="741" y="1362" on="1"/>
        <pt x="512" y="1362" on="1"/>
        <pt x="512" y="143" on="1"/>
        <pt x="1077" y="143" on="1"/>
        <pt x="1077" y="625" on="1"/>
        <pt x="1264" y="625" on="1"/>
      </contour>
    </TTGlyph>
    <TTGlyph name="Lacute" xMin="33" yMin="0" xMax="1264" yMax="2041">
      <component glyphName="glyph00403" x="33" y="0" flags="0x0"/>
      <component glyphName="L" x="0" y="0" flags="0x1004"/>
      <component glyphName="acute" x="-34" y="444" flags="0x1004"/>
    </TTGlyph>
    <TTGlyph name="Lcaron" xMin="33" yMin="0" xMax="1499" yMax="1536">
      <component glyphName="glyph00403" x="33" y="0" flags="0x0"/>
      <component glyphName="comma" x="1022" y="1272" flags="0x1004"/>
      <component glyphName="L" x="0" y="0" flags="0x1004"/>
    </TTGlyph>
    <TTGlyph name="Lcommaaccent" xMin="33" yMin="-543" xMax="1264" yMax="1505">
      <component glyphName="glyph00403" x="33" y="0" flags="0x0"/>
      <component glyphName="uni0326" x="33" y="-33" flags="0x1004"/>
      <component glyphName="L" x="0" y="0" flags="0x1204"/>
    </TTGlyph>
    <TTGlyph name="Ldot" xMin="33" yMin="0" xMax="1264" yMax="1505">
      <component glyphName="glyph00403" x="33" y="0" flags="0x0"/>
      <component glyphName="periodcentered" x="584" y="-18" flags="0x1004"/>
      <component glyphName="L" x="0" y="0" flags="0x1204"/>
    </TTGlyph>
    <TTGlyph name="Lslash" xMin="33" yMin="0" xMax="1264" yMax="1505">
      <contour>
        <pt x="1264" y="0" on="1"/>
        <pt x="33" y="0" on="1"/>
        <pt x="33" y="137" on="1"/>
        <pt x="276" y="137" on="1"/>
        <pt x="276" y="705" on="1"/>
        <pt x="61" y="599" on="1"/>
        <pt x="61" y="747" on="1"/>
        <pt x="276" y="853" on="1"/>
        <pt x="276" y="1362" on="1"/>
        <pt x="33" y="1362" on="1"/>
        <pt x="33" y="1505" on="1"/>
        <pt x="741" y="1505" on="1"/>
        <pt x="741" y="1362" on="1"/>
        <pt x="512" y="1362" on="1"/>
        <pt x="512" y="969" on="1"/>
        <pt x="724" y="1073" on="1"/>
        <pt x="724" y="925" on="1"/>
        <pt x="512" y="821" on="1"/>
        <pt x="512" y="137" on="1"/>
        <pt x="1077" y="137" on="1"/>
        <pt x="1077" y="625" on="1"/>
        <pt x="1264" y="625" on="1"/>
      </contour>
    </TTGlyph>
    <TTGlyph name="M" xMin="33" yMin="0" xMax="1905" yMax="1505">
      <contour>
        <pt x="51" y="0" on="1"/>
        <pt x="51" y="143" on="1"/>
        <pt x="270" y="143" on="1"/>
        <pt x="270" y="1362" on="1"/>
        <pt x="33" y="1362" on="1"/>
        <pt x="33" y="1505" on="1"/>
        <pt x="639" y="1505" on="1"/>
        <pt x="995" y="557" on="1"/>
        <pt x="1327" y="1505" on="1"/>
        <pt x="1890" y="1505" on="1"/>
        <pt x="1890" y="1362" on="1"/>
        <pt x="1657" y="1362" on="1"/>
        <pt x="1657" y="143" on="1"/>
        <pt x="1905" y="143" on="1"/>
        <pt x="1905" y="0" on="1"/>
        <pt x="1212" y="0" on="1"/>
        <pt x="1212" y="143" on="1"/>
        <pt x="1432" y="143" on="1"/>
        <pt x="1432" y="1329" on="1"/>
        <pt x="1042" y="258" on="1"/>
        <pt x="1013" y="182" on="0"/>
        <pt x="969" y="182" on="1"/>
        <pt x="946" y="182" on="0"/>
        <pt x="903" y="222" on="0"/>
        <pt x="891" y="252" on="1"/>
        <pt x="453" y="1360" on="1"/>
        <pt x="453" y="143" on="1"/>
        <pt x="705" y="143" on="1"/>
        <pt x="705" y="0" on="1"/>
      </contour>
    </TTGlyph>
    <TTGlyph name="N" xMin="33" yMin="0" xMax="1704" yMax="1505">
      <contour>
        <pt x="694" y="143" on="1"/>
        <pt x="694" y="0" on="1"/>
        <pt x="33" y="0" on="1"/>
        <pt x="33" y="143" on="1"/>
        <pt x="274" y="143" on="1"/>
        <pt x="274" y="1362" on="1"/>
        <pt x="33" y="1362" on="1"/>
        <pt x="33" y="1505" on="1"/>
        <pt x="573" y="1505" on="1"/>
        <pt x="1284" y="266" on="1"/>
        <pt x="1284" y="1362" on="1"/>
        <pt x="1040" y="1362" on="1"/>
        <pt x="1040" y="1505" on="1"/>
        <pt x="1704" y="1505" on="1"/>
        <pt x="1704" y="1362" on="1"/>
        <pt x="1475" y="1362" on="1"/>
        <pt x="1475" y="0" on="1"/>
        <pt x="1208" y="0" on="1"/>
        <pt x="465" y="1292" on="1"/>
        <pt x="465" y="143" on="1"/>
      </contour>
    </TTGlyph>
    <TTGlyph name="Nacute" xMin="33" yMin="0" xMax="1704" yMax="2041">
      <component glyphName="glyph00403" x="33" y="0" flags="0x0"/>
      <component glyphName="N" x="0" y="0" flags="0x1004"/>
      <component glyphName="acute" x="186" y="444" flags="0x1004"/>
    </TTGlyph>
    <TTGlyph name="Ncaron" xMin="33" yMin="0" xMax="1704" yMax="2085">
      <component glyphName="glyph00403" x="33" y="0" flags="0x0"/>
      <component glyphName="caron" x="100" y="479" flags="0x1004"/>
      <component glyphName="N" x="0" y="0" flags="0x1204"/>
    </TTGlyph>
    <TTGlyph name="Ncommaaccent" xMin="33" yMin="-543" xMax="1704" yMax="1505">
      <component glyphName="glyph00403" x="33" y="0" flags="0x0"/>
      <component glyphName="uni0326" x="253" y="-33" flags="0x1004"/>
      <component glyphName="N" x="0" y="0" flags="0x1204"/>
    </TTGlyph>
    <TTGlyph name="Ntilde" xMin="33" yMin="0" xMax="1704" yMax="1883">
      <component glyphName="glyph00403" x="33" y="0" flags="0x0"/>
      <component glyphName="tilde" x="238" y="372" flags="0x1004"/>
      <component glyphName="N" x="0" y="0" flags="0x1204"/>
    </TTGlyph>
    <TTGlyph name="O" xMin="84" yMin="-27" xMax="1505" yMax="1536">
      <contour>
        <pt x="84" y="637" on="0"/>
        <pt x="84" y="871" on="0"/>
        <pt x="139" y="1094" on="0"/>
        <pt x="255" y="1295" on="0"/>
        <pt x="420" y="1447" on="0"/>
        <pt x="656" y="1536" on="0"/>
        <pt x="934" y="1536" on="0"/>
        <pt x="1169" y="1447" on="0"/>
        <pt x="1334" y="1295" on="0"/>
        <pt x="1450" y="1094" on="0"/>
        <pt x="1505" y="871" on="0"/>
        <pt x="1505" y="637" on="0"/>
        <pt x="1450" y="413" on="0"/>
        <pt x="1334" y="212" on="0"/>
        <pt x="1169" y="62" on="0"/>
        <pt x="934" y="-27" on="0"/>
        <pt x="656" y="-27" on="0"/>
        <pt x="420" y="62" on="0"/>
        <pt x="255" y="212" on="0"/>
        <pt x="139" y="413" on="0"/>
      </contour>
      <contour>
        <pt x="340" y="756" on="1"/>
        <pt x="340" y="658" on="0"/>
        <pt x="377" y="472" on="0"/>
        <pt x="454" y="308" on="0"/>
        <pt x="560" y="184" on="0"/>
        <pt x="709" y="113" on="0"/>
        <pt x="795" y="113" on="1"/>
        <pt x="902" y="113" on="0"/>
        <pt x="1078" y="222" on="0"/>
        <pt x="1189" y="403" on="0"/>
        <pt x="1249" y="630" on="0"/>
        <pt x="1249" y="752" on="1"/>
        <pt x="1249" y="848" on="0"/>
        <pt x="1212" y="1034" on="0"/>
        <pt x="1136" y="1198" on="0"/>
        <pt x="1029" y="1323" on="0"/>
        <pt x="881" y="1396" on="0"/>
        <pt x="795" y="1396" on="1"/>
        <pt x="688" y="1396" on="0"/>
        <pt x="512" y="1287" on="0"/>
        <pt x="400" y="1105" on="0"/>
        <pt x="340" y="878" on="0"/>
      </contour>
    </TTGlyph>
    <TTGlyph name="OE" xMin="84" yMin="0" xMax="2087" yMax="1479">
      <contour>
        <pt x="2087" y="571" on="1"/>
        <pt x="2087" y="0" on="1"/>
        <pt x="768" y="0" on="1"/>
        <pt x="629" y="0" on="0"/>
        <pt x="383" y="100" on="0"/>
        <pt x="194" y="283" on="0"/>
        <pt x="84" y="568" on="0"/>
        <pt x="84" y="741" on="1"/>
        <pt x="84" y="919" on="0"/>
        <pt x="200" y="1206" on="0"/>
        <pt x="395" y="1385" on="0"/>
        <pt x="638" y="1479" on="0"/>
        <pt x="772" y="1479" on="1"/>
        <pt x="2087" y="1479" on="1"/>
        <pt x="2087" y="899" on="1"/>
        <pt x="1907" y="899" on="1"/>
        <pt x="1907" y="1335" on="1"/>
        <pt x="1268" y="1335" on="1"/>
        <pt x="1268" y="813" on="1"/>
        <pt x="1581" y="813" on="1"/>
        <pt x="1581" y="1038" on="1"/>
        <pt x="1714" y="1038" on="1"/>
        <pt x="1714" y="424" on="1"/>
        <pt x="1581" y="424" on="1"/>
        <pt x="1581" y="698" on="1"/>
        <pt x="1268" y="698" on="1"/>
        <pt x="1268" y="137" on="1"/>
        <pt x="1907" y="137" on="1"/>
        <pt x="1907" y="571" on="1"/>
      </contour>
      <contour>
        <pt x="340" y="743" on="1"/>
        <pt x="340" y="464" on="0"/>
        <pt x="588" y="137" on="0"/>
        <pt x="774" y="137" on="1"/>
        <pt x="1042" y="137" on="1"/>
        <pt x="1042" y="1335" on="1"/>
        <pt x="805" y="1335" on="1"/>
        <pt x="709" y="1335" on="0"/>
        <pt x="543" y="1263" on="0"/>
        <pt x="414" y="1121" on="0"/>
        <pt x="340" y="891" on="0"/>
      </contour>
    </TTGlyph>
    <TTGlyph name="Oacute" xMin="84" yMin="-27" xMax="1505" yMax="2041">
      <component glyphName="glyph00403" x="84" y="0" flags="0x0"/>
      <component glyphName="O" x="0" y="0" flags="0x1004"/>
      <component glyphName="acute" x="112" y="444" flags="0x1004"/>
    </TTGlyph>
    <TTGlyph name="Obreve" xMin="84" yMin="-27" xMax="1505" yMax="1884">
      <component glyphName="glyph00403" x="84" y="0" flags="0x0"/>
      <component glyphName="breve" x="216" y="436" flags="0x1004"/>
      <component glyphName="O" x="0" y="0" flags="0x1204"/>
    </TTGlyph>
    <TTGlyph name="Ocircumflex" xMin="84" yMin="-27" xMax="1505" yMax="2085">
      <component glyphName="glyph00403" x="84" y="0" flags="0x0"/>
      <component glyphName="circumflex" x="26" y="479" flags="0x1004"/>
      <component glyphName="O" x="0" y="0" flags="0x1204"/>
    </TTGlyph>
    <TTGlyph name="Odieresis" xMin="84" yMin="-27" xMax="1505" yMax="1914">
      <component glyphName="glyph00403" x="84" y="0" flags="0x0"/>
      <component glyphName="dieresis" x="246" y="458" flags="0x1004"/>
      <component glyphName="O" x="0" y="0" flags="0x1204"/>
    </TTGlyph>
    <TTGlyph name="Ograve" xMin="84" yMin="-27" xMax="1505" yMax="2041">
      <component glyphName="glyph00403" x="84" y="0" flags="0x0"/>
      <component glyphName="O" x="0" y="0" flags="0x1004"/>
      <component glyphName="grave" x="112" y="444" flags="0x1004"/>
    </TTGlyph>
    <TTGlyph name="Ohungarumlaut" xMin="84" yMin="-27" xMax="1505" yMax="2082">
      <component glyphName="glyph00403" x="84" y="0" flags="0x0"/>
      <component glyphName="hungarumlaut" x="100" y="444" flags="0x1004"/>
      <component glyphName="O" x="0" y="0" flags="0x1204"/>
    </TTGlyph>
    <TTGlyph name="Omacron" xMin="84" yMin="-27" xMax="1505" yMax="1776">
      <component glyphName="glyph00403" x="84" y="0" flags="0x0"/>
      <component glyphName="macron" x="378" y="297" flags="0x1004"/>
      <component glyphName="O" x="0" y="0" flags="0x1204"/>
    </TTGlyph>
    <TTGlyph name="Oslash" xMin="84" yMin="-90" xMax="1505" yMax="1536">
      <contour>
        <pt x="1137" y="1188" on="1"/>
        <pt x="1008" y="1399" on="0"/>
        <pt x="795" y="1399" on="1"/>
        <pt x="688" y="1399" on="0"/>
        <pt x="512" y="1289" on="0"/>
        <pt x="400" y="1107" on="0"/>
        <pt x="340" y="878" on="0"/>
        <pt x="340" y="756" on="1"/>
        <pt x="340" y="527" on="0"/>
        <pt x="432" y="355" on="1"/>
      </contour>
      <contour>
        <pt x="1179" y="1107" on="1"/>
        <pt x="479" y="280" on="1"/>
        <pt x="603" y="113" on="0"/>
        <pt x="795" y="113" on="1"/>
        <pt x="902" y="113" on="0"/>
        <pt x="1078" y="222" on="0"/>
        <pt x="1189" y="403" on="0"/>
        <pt x="1249" y="630" on="0"/>
        <pt x="1249" y="752" on="1"/>
        <pt x="1249" y="944" on="0"/>
      </contour>
      <contour>
        <pt x="1432" y="1536" on="1"/>
        <pt x="1497" y="1483" on="1"/>
        <pt x="1331" y="1286" on="1"/>
        <pt x="1417" y="1178" on="0"/>
        <pt x="1505" y="901" on="0"/>
        <pt x="1505" y="754" on="1"/>
        <pt x="1505" y="637" on="0"/>
        <pt x="1450" y="413" on="0"/>
        <pt x="1334" y="212" on="0"/>
        <pt x="1169" y="62" on="0"/>
        <pt x="934" y="-27" on="0"/>
        <pt x="795" y="-27" on="1"/>
        <pt x="532" y="-27" on="0"/>
        <pt x="350" y="127" on="1"/>
        <pt x="166" y="-90" on="1"/>
        <pt x="100" y="-37" on="1"/>
        <pt x="289" y="186" on="1"/>
        <pt x="189" y="296" on="0"/>
        <pt x="84" y="594" on="0"/>
        <pt x="84" y="754" on="1"/>
        <pt x="84" y="871" on="0"/>
        <pt x="139" y="1094" on="0"/>
        <pt x="255" y="1295" on="0"/>
        <pt x="420" y="1447" on="0"/>
        <pt x="656" y="1536" on="0"/>
        <pt x="795" y="1536" on="1"/>
        <pt x="1084" y="1536" on="0"/>
        <pt x="1274" y="1349" on="1"/>
      </contour>
    </TTGlyph>
    <TTGlyph name="Otilde" xMin="84" yMin="-27" xMax="1505" yMax="1883">
      <component glyphName="glyph00403" x="84" y="0" flags="0x0"/>
      <component glyphName="tilde" x="164" y="372" flags="0x1004"/>
      <component glyphName="O" x="0" y="0" flags="0x1204"/>
    </TTGlyph>
    <TTGlyph name="P" xMin="33" yMin="0" xMax="1315" yMax="1505">
      <contour>
        <pt x="580" y="1362" on="1"/>
        <pt x="512" y="1362" on="1"/>
        <pt x="512" y="805" on="1"/>
        <pt x="651" y="805" on="1"/>
        <pt x="1073" y="805" on="0"/>
        <pt x="1073" y="1090" on="1"/>
        <pt x="1073" y="1134" on="0"/>
        <pt x="1056" y="1206" on="0"/>
        <pt x="1030" y="1259" on="0"/>
        <pt x="982" y="1300" on="0"/>
        <pt x="936" y="1327" on="0"/>
        <pt x="864" y="1345" on="0"/>
        <pt x="803" y="1355" on="0"/>
        <pt x="712" y="1360" on="0"/>
        <pt x="642" y="1362" on="0"/>
        <pt x="591" y="1362" on="1"/>
        <pt x="583" y="1362" on="0"/>
      </contour>
      <contour>
        <pt x="33" y="1505" on="1"/>
        <pt x="647" y="1505" on="1"/>
        <pt x="712" y="1505" on="0"/>
        <pt x="810" y="1501" on="0"/>
        <pt x="957" y="1484" on="0"/>
        <pt x="1066" y="1453" on="0"/>
        <pt x="1187" y="1392" on="0"/>
        <pt x="1264" y="1308" on="0"/>
        <pt x="1315" y="1179" on="0"/>
        <pt x="1315" y="1098" on="1"/>
        <pt x="1315" y="1016" on="0"/>
        <pt x="1269" y="886" on="0"/>
        <pt x="1196" y="799" on="0"/>
        <pt x="1078" y="735" on="0"/>
        <pt x="964" y="701" on="0"/>
        <pt x="804" y="681" on="0"/>
        <pt x="677" y="676" on="0"/>
        <pt x="592" y="676" on="1"/>
        <pt x="512" y="676" on="1"/>
        <pt x="512" y="143" on="1"/>
        <pt x="762" y="143" on="1"/>
        <pt x="762" y="0" on="1"/>
        <pt x="33" y="0" on="1"/>
        <pt x="33" y="143" on="1"/>
        <pt x="276" y="143" on="1"/>
        <pt x="276" y="1362" on="1"/>
        <pt x="33" y="1362" on="1"/>
      </contour>
    </TTGlyph>
    <TTGlyph name="Q" xMin="84" yMin="-221" xMax="1671" yMax="1536">
      <contour>
        <pt x="795" y="113" on="1"/>
        <pt x="889" y="113" on="0"/>
        <pt x="965" y="152" on="1"/>
        <pt x="901" y="259" on="0"/>
        <pt x="784" y="375" on="0"/>
        <pt x="713" y="375" on="1"/>
        <pt x="610" y="375" on="0"/>
        <pt x="526" y="223" on="1"/>
        <pt x="636" y="113" on="0"/>
      </contour>
      <contour>
        <pt x="766" y="502" on="1"/>
        <pt x="876" y="502" on="0"/>
        <pt x="1044" y="387" on="0"/>
        <pt x="1120" y="289" on="1"/>
        <pt x="1183" y="374" on="0"/>
        <pt x="1249" y="622" on="0"/>
        <pt x="1249" y="752" on="1"/>
        <pt x="1249" y="848" on="0"/>
        <pt x="1212" y="1034" on="0"/>
        <pt x="1136" y="1198" on="0"/>
        <pt x="1029" y="1323" on="0"/>
        <pt x="881" y="1396" on="0"/>
        <pt x="795" y="1396" on="1"/>
        <pt x="688" y="1396" on="0"/>
        <pt x="512" y="1287" on="0"/>
        <pt x="400" y="1105" on="0"/>
        <pt x="340" y="878" on="0"/>
        <pt x="340" y="756" on="1"/>
        <pt x="340" y="635" on="0"/>
        <pt x="398" y="401" on="0"/>
        <pt x="451" y="315" on="1"/>
        <pt x="467" y="345" on="0"/>
        <pt x="510" y="401" on="0"/>
        <pt x="584" y="464" on="0"/>
        <pt x="698" y="502" on="0"/>
      </contour>
      <contour>
        <pt x="1671" y="229" on="1"/>
        <pt x="1671" y="92" on="0"/>
        <pt x="1629" y="-90" on="0"/>
        <pt x="1543" y="-185" on="0"/>
        <pt x="1436" y="-221" on="0"/>
        <pt x="1358" y="-221" on="1"/>
        <pt x="1264" y="-221" on="0"/>
        <pt x="1120" y="-97" on="0"/>
        <pt x="1049" y="14" on="1"/>
        <pt x="934" y="-27" on="0"/>
        <pt x="656" y="-27" on="0"/>
        <pt x="420" y="62" on="0"/>
        <pt x="255" y="212" on="0"/>
        <pt x="139" y="413" on="0"/>
        <pt x="84" y="637" on="0"/>
        <pt x="84" y="871" on="0"/>
        <pt x="139" y="1094" on="0"/>
        <pt x="255" y="1295" on="0"/>
        <pt x="420" y="1447" on="0"/>
        <pt x="656" y="1536" on="0"/>
        <pt x="934" y="1536" on="0"/>
        <pt x="1169" y="1447" on="0"/>
        <pt x="1334" y="1295" on="0"/>
        <pt x="1450" y="1094" on="0"/>
        <pt x="1505" y="871" on="0"/>
        <pt x="1505" y="754" on="1"/>
        <pt x="1505" y="568" on="0"/>
        <pt x="1367" y="228" on="0"/>
        <pt x="1237" y="121" on="1"/>
        <pt x="1287" y="47" on="0"/>
        <pt x="1365" y="-29" on="0"/>
        <pt x="1405" y="-29" on="1"/>
        <pt x="1413" y="-29" on="1"/>
        <pt x="1473" y="-23" on="0"/>
        <pt x="1550" y="122" on="0"/>
        <pt x="1550" y="229" on="1"/>
        <pt x="1550" y="252" on="1"/>
        <pt x="1671" y="252" on="1"/>
      </contour>
    </TTGlyph>
    <TTGlyph name="R" xMin="33" yMin="-33" xMax="1581" yMax="1505">
      <contour>
        <pt x="1282" y="-33" on="1"/>
        <pt x="1219" y="-33" on="0"/>
        <pt x="1121" y="11" on="0"/>
        <pt x="1054" y="85" on="0"/>
        <pt x="1002" y="209" on="0"/>
        <pt x="969" y="344" on="0"/>
        <pt x="952" y="440" on="1"/>
        <pt x="942" y="500" on="0"/>
        <pt x="898" y="594" on="0"/>
        <pt x="849" y="644" on="0"/>
        <pt x="795" y="677" on="0"/>
        <pt x="760" y="686" on="0"/>
        <pt x="748" y="686" on="1"/>
        <pt x="512" y="686" on="1"/>
        <pt x="512" y="143" on="1"/>
        <pt x="739" y="143" on="1"/>
        <pt x="739" y="0" on="1"/>
        <pt x="33" y="0" on="1"/>
        <pt x="33" y="143" on="1"/>
        <pt x="276" y="143" on="1"/>
        <pt x="276" y="1362" on="1"/>
        <pt x="33" y="1362" on="1"/>
        <pt x="33" y="1505" on="1"/>
        <pt x="608" y="1505" on="1"/>
        <pt x="692" y="1505" on="0"/>
        <pt x="793" y="1503" on="0"/>
        <pt x="963" y="1487" on="0"/>
        <pt x="1069" y="1458" on="0"/>
        <pt x="1198" y="1400" on="0"/>
        <pt x="1272" y="1318" on="0"/>
        <pt x="1323" y="1190" on="0"/>
        <pt x="1323" y="1108" on="1"/>
        <pt x="1323" y="1020" on="0"/>
        <pt x="1267" y="889" on="0"/>
        <pt x="1160" y="805" on="0"/>
        <pt x="1035" y="754" on="0"/>
        <pt x="950" y="737" on="1"/>
        <pt x="1007" y="725" on="0"/>
        <pt x="1086" y="683" on="0"/>
        <pt x="1139" y="614" on="0"/>
        <pt x="1170" y="539" on="0"/>
        <pt x="1186" y="481" on="1"/>
        <pt x="1195" y="448" on="0"/>
        <pt x="1216" y="351" on="0"/>
        <pt x="1229" y="287" on="0"/>
        <pt x="1252" y="214" on="0"/>
        <pt x="1277" y="172" on="0"/>
        <pt x="1317" y="143" on="0"/>
        <pt x="1343" y="143" on="1"/>
        <pt x="1446" y="143" on="0"/>
        <pt x="1446" y="332" on="1"/>
        <pt x="1446" y="471" on="1"/>
        <pt x="1581" y="471" on="1"/>
        <pt x="1581" y="324" on="1"/>
        <pt x="1581" y="-33" on="0"/>
      </contour>
      <contour>
        <pt x="512" y="836" on="1"/>
        <pt x="637" y="836" on="1"/>
        <pt x="793" y="836" on="0"/>
        <pt x="996" y="881" on="0"/>
        <pt x="1112" y="996" on="0"/>
        <pt x="1112" y="1090" on="1"/>
        <pt x="1112" y="1171" on="0"/>
        <pt x="1054" y="1277" on="0"/>
        <pt x="928" y="1338" on="0"/>
        <pt x="757" y="1362" on="0"/>
        <pt x="629" y="1362" on="1"/>
        <pt x="512" y="1362" on="1"/>
      </contour>
    </TTGlyph>
    <TTGlyph name="Racute" xMin="33" yMin="-33" xMax="1581" yMax="2041">
      <component glyphName="glyph00403" x="33" y="0" flags="0x0"/>
      <component glyphName="acute" x="383" y="444" flags="0x1004"/>
      <component glyphName="R" x="0" y="0" flags="0x1204"/>
    </TTGlyph>
    <TTGlyph name="Rcaron" xMin="33" yMin="-33" xMax="1581" yMax="2085">
      <component glyphName="glyph00403" x="33" y="0" flags="0x0"/>
      <component glyphName="caron" x="38" y="479" flags="0x1004"/>
      <component glyphName="R" x="0" y="0" flags="0x1204"/>
    </TTGlyph>
    <TTGlyph name="Rcommaaccent" xMin="33" yMin="-576" xMax="1581" yMax="1505">
      <component glyphName="glyph00403" x="33" y="0" flags="0x0"/>
      <component glyphName="uni0326" x="191" y="-66" flags="0x1004"/>
      <component glyphName="R" x="0" y="0" flags="0x1204"/>
    </TTGlyph>
    <TTGlyph name="S" xMin="59" yMin="-27" xMax="1278" yMax="1536">
      <contour>
        <pt x="676" y="-27" on="1"/>
        <pt x="558" y="-27" on="0"/>
        <pt x="343" y="17" on="0"/>
        <pt x="165" y="103" on="0"/>
        <pt x="59" y="246" on="0"/>
        <pt x="59" y="336" on="1"/>
        <pt x="59" y="419" on="0"/>
        <pt x="168" y="526" on="0"/>
        <pt x="240" y="526" on="1"/>
        <pt x="307" y="526" on="0"/>
        <pt x="399" y="424" on="0"/>
        <pt x="399" y="360" on="1"/>
        <pt x="399" y="294" on="0"/>
        <pt x="323" y="223" on="0"/>
        <pt x="258" y="215" on="1"/>
        <pt x="327" y="166" on="0"/>
        <pt x="504" y="113" on="0"/>
        <pt x="643" y="113" on="1"/>
        <pt x="748" y="113" on="0"/>
        <pt x="914" y="163" on="0"/>
        <pt x="1022" y="279" on="0"/>
        <pt x="1022" y="362" on="1"/>
        <pt x="1022" y="411" on="0"/>
        <pt x="989" y="486" on="0"/>
        <pt x="931" y="541" on="0"/>
        <pt x="824" y="590" on="0"/>
        <pt x="705" y="626" on="0"/>
        <pt x="614" y="649" on="1"/>
        <pt x="409" y="700" on="0"/>
        <pt x="171" y="833" on="0"/>
        <pt x="78" y="996" on="0"/>
        <pt x="78" y="1112" on="1"/>
        <pt x="78" y="1296" on="0"/>
        <pt x="398" y="1536" on="0"/>
        <pt x="653" y="1536" on="1"/>
        <pt x="720" y="1536" on="0"/>
        <pt x="865" y="1515" on="0"/>
        <pt x="1019" y="1465" on="0"/>
        <pt x="1140" y="1392" on="0"/>
        <pt x="1217" y="1276" on="0"/>
        <pt x="1217" y="1206" on="1"/>
        <pt x="1217" y="1118" on="0"/>
        <pt x="1128" y="1006" on="0"/>
        <pt x="1047" y="1006" on="1"/>
        <pt x="980" y="1006" on="0"/>
        <pt x="879" y="1083" on="0"/>
        <pt x="879" y="1147" on="1"/>
        <pt x="879" y="1227" on="0"/>
        <pt x="961" y="1303" on="0"/>
        <pt x="1016" y="1303" on="1"/>
        <pt x="897" y="1396" on="0"/>
        <pt x="678" y="1396" on="1"/>
        <pt x="583" y="1396" on="0"/>
        <pt x="421" y="1340" on="0"/>
        <pt x="317" y="1227" on="0"/>
        <pt x="317" y="1153" on="1"/>
        <pt x="317" y="1118" on="0"/>
        <pt x="329" y="1065" on="0"/>
        <pt x="372" y="1005" on="0"/>
        <pt x="446" y="957" on="0"/>
        <pt x="577" y="907" on="0"/>
        <pt x="668" y="887" on="1"/>
        <pt x="815" y="854" on="0"/>
        <pt x="1030" y="775" on="0"/>
        <pt x="1166" y="688" on="0"/>
        <pt x="1247" y="579" on="0"/>
        <pt x="1278" y="468" on="0"/>
        <pt x="1278" y="397" on="1"/>
        <pt x="1278" y="199" on="0"/>
        <pt x="966" y="-27" on="0"/>
      </contour>
    </TTGlyph>
    <TTGlyph name="Sacute" xMin="59" yMin="-27" xMax="1278" yMax="2041">
      <component glyphName="glyph00403" x="59" y="0" flags="0x0"/>
      <component glyphName="S" x="0" y="0" flags="0x1004"/>
      <component glyphName="acute" x="-30" y="444" flags="0x1004"/>
    </TTGlyph>
    <TTGlyph name="Scaron" xMin="59" yMin="-27" xMax="1278" yMax="2085">
      <component glyphName="glyph00403" x="59" y="0" flags="0x0"/>
      <component glyphName="caron" x="-100" y="479" flags="0x1004"/>
      <component glyphName="S" x="0" y="0" flags="0x1204"/>
    </TTGlyph>
    <TTGlyph name="Scedilla" xMin="59" yMin="-456" xMax="1278" yMax="1536">
      <component glyphName="glyph00403" x="59" y="0" flags="0x0"/>
      <component glyphName="cedilla" x="436" y="-12" flags="0x1004"/>
      <component glyphName="S" x="0" y="0" flags="0x1204"/>
    </TTGlyph>
    <TTGlyph name="Scommaaccent" xMin="59" yMin="-570" xMax="1278" yMax="1536">
      <component glyphName="glyph00403" x="59" y="0" flags="0x0"/>
      <component glyphName="uni0326" x="53" y="-60" flags="0x1004"/>
      <component glyphName="S" x="0" y="0" flags="0x1204"/>
    </TTGlyph>
    <TTGlyph name="T" xMin="35" yMin="0" xMax="1401" yMax="1505">
      <contour>
        <pt x="1079" y="143" on="1"/>
        <pt x="1079" y="0" on="1"/>
        <pt x="371" y="0" on="1"/>
        <pt x="371" y="143" on="1"/>
        <pt x="604" y="143" on="1"/>
        <pt x="604" y="1362" on="1"/>
        <pt x="221" y="1362" on="1"/>
        <pt x="221" y="897" on="1"/>
        <pt x="35" y="897" on="1"/>
        <pt x="35" y="1505" on="1"/>
        <pt x="1401" y="1505" on="1"/>
        <pt x="1401" y="897" on="1"/>
        <pt x="1214" y="897" on="1"/>
        <pt x="1214" y="1362" on="1"/>
        <pt x="840" y="1362" on="1"/>
        <pt x="840" y="143" on="1"/>
      </contour>
    </TTGlyph>
    <TTGlyph name="Tcaron" xMin="35" yMin="0" xMax="1401" yMax="2085">
      <component glyphName="glyph00403" x="35" y="0" flags="0x0"/>
      <component glyphName="caron" x="-51" y="479" flags="0x1004"/>
      <component glyphName="T" x="0" y="0" flags="0x1204"/>
    </TTGlyph>
    <TTGlyph name="Thorn" xMin="70" yMin="0" xMax="1352" yMax="1479">
      <contour>
        <pt x="1110" y="766" on="1"/>
        <pt x="1110" y="820" on="0"/>
        <pt x="1085" y="903" on="0"/>
        <pt x="1044" y="957" on="0"/>
        <pt x="976" y="995" on="0"/>
        <pt x="906" y="1014" on="0"/>
        <pt x="806" y="1024" on="0"/>
        <pt x="718" y="1026" on="0"/>
        <pt x="658" y="1026" on="1"/>
        <pt x="630" y="1026" on="0"/>
        <pt x="616" y="1026" on="1"/>
        <pt x="549" y="1026" on="1"/>
        <pt x="549" y="506" on="1"/>
        <pt x="688" y="506" on="1"/>
        <pt x="760" y="506" on="0"/>
        <pt x="869" y="515" on="0"/>
        <pt x="986" y="547" on="0"/>
        <pt x="1061" y="602" on="0"/>
        <pt x="1110" y="699" on="0"/>
      </contour>
      <contour>
        <pt x="799" y="0" on="1"/>
        <pt x="70" y="0" on="1"/>
        <pt x="70" y="137" on="1"/>
        <pt x="313" y="137" on="1"/>
        <pt x="313" y="1335" on="1"/>
        <pt x="70" y="1335" on="1"/>
        <pt x="70" y="1479" on="1"/>
        <pt x="778" y="1479" on="1"/>
        <pt x="778" y="1335" on="1"/>
        <pt x="549" y="1335" on="1"/>
        <pt x="549" y="1169" on="1"/>
        <pt x="684" y="1169" on="1"/>
        <pt x="737" y="1169" on="0"/>
        <pt x="805" y="1168" on="0"/>
        <pt x="924" y="1160" on="0"/>
        <pt x="1005" y="1147" on="0"/>
        <pt x="1116" y="1119" on="0"/>
        <pt x="1191" y="1080" on="0"/>
        <pt x="1272" y="1020" on="0"/>
        <pt x="1320" y="943" on="0"/>
        <pt x="1352" y="837" on="0"/>
        <pt x="1352" y="774" on="1"/>
        <pt x="1352" y="692" on="0"/>
        <pt x="1304" y="565" on="0"/>
        <pt x="1236" y="482" on="0"/>
        <pt x="1110" y="424" on="0"/>
        <pt x="1008" y="395" on="0"/>
        <pt x="833" y="379" on="0"/>
        <pt x="724" y="377" on="0"/>
        <pt x="629" y="377" on="1"/>
        <pt x="549" y="377" on="1"/>
        <pt x="549" y="137" on="1"/>
        <pt x="799" y="137" on="1"/>
      </contour>
    </TTGlyph>
    <TTGlyph name="U" xMin="20" yMin="-27" xMax="1583" yMax="1505">
      <contour>
        <pt x="799" y="-27" on="1"/>
        <pt x="650" y="-27" on="0"/>
        <pt x="429" y="54" on="0"/>
        <pt x="299" y="203" on="0"/>
        <pt x="236" y="396" on="0"/>
        <pt x="236" y="516" on="1"/>
        <pt x="236" y="1362" on="1"/>
        <pt x="20" y="1362" on="1"/>
        <pt x="20" y="1505" on="1"/>
        <pt x="692" y="1505" on="1"/>
        <pt x="692" y="1362" on="1"/>
        <pt x="471" y="1362" on="1"/>
        <pt x="471" y="502" on="1"/>
        <pt x="471" y="113" on="0"/>
        <pt x="821" y="113" on="1"/>
        <pt x="992" y="113" on="0"/>
        <pt x="1171" y="311" on="0"/>
        <pt x="1171" y="508" on="1"/>
        <pt x="1171" y="1362" on="1"/>
        <pt x="944" y="1362" on="1"/>
        <pt x="944" y="1505" on="1"/>
        <pt x="1583" y="1505" on="1"/>
        <pt x="1583" y="1362" on="1"/>
        <pt x="1374" y="1362" on="1"/>
        <pt x="1374" y="547" on="1"/>
        <pt x="1374" y="444" on="0"/>
        <pt x="1342" y="279" on="0"/>
        <pt x="1262" y="130" on="0"/>
        <pt x="1133" y="31" on="0"/>
        <pt x="932" y="-27" on="0"/>
      </contour>
    </TTGlyph>
    <TTGlyph name="Uacute" xMin="20" yMin="-27" xMax="1583" yMax="2041">
      <component glyphName="glyph00403" x="20" y="0" flags="0x0"/>
      <component glyphName="U" x="0" y="0" flags="0x1004"/>
      <component glyphName="acute" x="118" y="444" flags="0x1004"/>
    </TTGlyph>
    <TTGlyph name="Ubreve" xMin="20" yMin="-27" xMax="1583" yMax="1884">
      <component glyphName="glyph00403" x="20" y="0" flags="0x0"/>
      <component glyphName="U" x="0" y="0" flags="0x1004"/>
      <component glyphName="breve" x="223" y="436" flags="0x1004"/>
    </TTGlyph>
    <TTGlyph name="Ucircumflex" xMin="20" yMin="-27" xMax="1583" yMax="2085">
      <component glyphName="glyph00403" x="20" y="0" flags="0x0"/>
      <component glyphName="circumflex" x="32" y="479" flags="0x1004"/>
      <component glyphName="U" x="0" y="0" flags="0x1204"/>
    </TTGlyph>
    <TTGlyph name="Udieresis" xMin="20" yMin="-27" xMax="1583" yMax="1914">
      <component glyphName="glyph00403" x="20" y="0" flags="0x0"/>
      <component glyphName="dieresis" x="254" y="458" flags="0x1004"/>
      <component glyphName="U" x="0" y="0" flags="0x1204"/>
    </TTGlyph>
    <TTGlyph name="Ugrave" xMin="20" yMin="-27" xMax="1583" yMax="2041">
      <component glyphName="glyph00403" x="20" y="0" flags="0x0"/>
      <component glyphName="U" x="0" y="0" flags="0x1004"/>
      <component glyphName="grave" x="118" y="444" flags="0x1004"/>
    </TTGlyph>
    <TTGlyph name="Uhungarumlaut" xMin="20" yMin="-27" xMax="1583" yMax="2082">
      <component glyphName="glyph00403" x="20" y="0" flags="0x0"/>
      <component glyphName="hungarumlaut" x="183" y="444" flags="0x1004"/>
      <component glyphName="U" x="0" y="0" flags="0x1204"/>
    </TTGlyph>
    <TTGlyph name="Umacron" xMin="20" yMin="-27" xMax="1583" yMax="1776">
      <component glyphName="glyph00403" x="20" y="0" flags="0x0"/>
      <component glyphName="U" x="0" y="0" flags="0x1004"/>
      <component glyphName="macron" x="386" y="297" flags="0x1004"/>
    </TTGlyph>
    <TTGlyph name="Uogonek" xMin="20" yMin="-405" xMax="1583" yMax="1505">
      <component glyphName="glyph00403" x="20" y="0" flags="0x0"/>
      <component glyphName="ogonek" x="572" y="-20" flags="0x1004"/>
      <component glyphName="U" x="0" y="0" flags="0x1204"/>
    </TTGlyph>
    <TTGlyph name="Uring" xMin="20" yMin="-27" xMax="1583" yMax="2003">
      <component glyphName="glyph00403" x="20" y="0" flags="0x0"/>
      <component glyphName="U" x="0" y="0" flags="0x1004"/>
      <component glyphName="ring" x="252" y="430" flags="0x1004"/>
    </TTGlyph>
    <TTGlyph name="Utilde" xMin="20" yMin="-27" xMax="1583" yMax="1883">
      <component glyphName="glyph00403" x="20" y="0" flags="0x0"/>
      <component glyphName="U" x="0" y="0" flags="0x1004"/>
      <component glyphName="tilde" x="172" y="372" flags="0x1004"/>
    </TTGlyph>
    <TTGlyph name="V" xMin="-4" yMin="-35" xMax="1632" yMax="1505">
      <contour>
        <pt x="676" y="106" on="1"/>
        <pt x="225" y="1362" on="1"/>
        <pt x="-4" y="1362" on="1"/>
        <pt x="-4" y="1505" on="1"/>
        <pt x="713" y="1505" on="1"/>
        <pt x="713" y="1362" on="1"/>
        <pt x="502" y="1362" on="1"/>
        <pt x="866" y="293" on="1"/>
        <pt x="1219" y="1362" on="1"/>
        <pt x="954" y="1362" on="1"/>
        <pt x="954" y="1505" on="1"/>
        <pt x="1632" y="1505" on="1"/>
        <pt x="1632" y="1362" on="1"/>
        <pt x="1389" y="1362" on="1"/>
        <pt x="958" y="106" on="1"/>
        <pt x="931" y="29" on="0"/>
        <pt x="875" y="-35" on="0"/>
        <pt x="821" y="-35" on="1"/>
        <pt x="768" y="-35" on="0"/>
        <pt x="703" y="30" on="0"/>
      </contour>
    </TTGlyph>
    <TTGlyph name="W" xMin="29" yMin="-35" xMax="2210" yMax="1505">
      <contour>
        <pt x="1550" y="-35" on="1"/>
        <pt x="1499" y="-35" on="0"/>
        <pt x="1456" y="24" on="0"/>
        <pt x="1432" y="106" on="1"/>
        <pt x="1167" y="1012" on="1"/>
        <pt x="1168" y="1012" on="0"/>
        <pt x="1042" y="559" on="0"/>
        <pt x="978" y="332" on="1"/>
        <pt x="915" y="106" on="1"/>
        <pt x="894" y="31" on="0"/>
        <pt x="833" y="-35" on="0"/>
        <pt x="778" y="-35" on="1"/>
        <pt x="726" y="-35" on="0"/>
        <pt x="669" y="28" on="0"/>
        <pt x="645" y="106" on="1"/>
        <pt x="258" y="1362" on="1"/>
        <pt x="29" y="1362" on="1"/>
        <pt x="29" y="1505" on="1"/>
        <pt x="725" y="1505" on="1"/>
        <pt x="725" y="1362" on="1"/>
        <pt x="514" y="1362" on="1"/>
        <pt x="805" y="307" on="1"/>
        <pt x="1094" y="1362" on="1"/>
        <pt x="1294" y="1362" on="1"/>
        <pt x="1585" y="307" on="1"/>
        <pt x="1858" y="1362" on="1"/>
        <pt x="1655" y="1362" on="1"/>
        <pt x="1655" y="1505" on="1"/>
        <pt x="2210" y="1505" on="1"/>
        <pt x="2210" y="1362" on="1"/>
        <pt x="2028" y="1362" on="1"/>
        <pt x="1679" y="106" on="1"/>
        <pt x="1651" y="26" on="0"/>
        <pt x="1603" y="-35" on="0"/>
      </contour>
    </TTGlyph>
    <TTGlyph name="X" xMin="16" yMin="0" xMax="1683" yMax="1505">
      <contour>
        <pt x="1464" y="143" on="1"/>
        <pt x="1683" y="143" on="1"/>
        <pt x="1683" y="0" on="1"/>
        <pt x="969" y="0" on="1"/>
        <pt x="969" y="143" on="1"/>
        <pt x="1190" y="143" on="1"/>
        <pt x="834" y="609" on="1"/>
        <pt x="453" y="143" on="1"/>
        <pt x="664" y="143" on="1"/>
        <pt x="664" y="0" on="1"/>
        <pt x="16" y="0" on="1"/>
        <pt x="16" y="143" on="1"/>
        <pt x="217" y="143" on="1"/>
        <pt x="721" y="759" on="1"/>
        <pt x="266" y="1362" on="1"/>
        <pt x="23" y="1362" on="1"/>
        <pt x="23" y="1505" on="1"/>
        <pt x="770" y="1505" on="1"/>
        <pt x="770" y="1362" on="1"/>
        <pt x="541" y="1362" on="1"/>
        <pt x="863" y="935" on="1"/>
        <pt x="1208" y="1362" on="1"/>
        <pt x="961" y="1362" on="1"/>
        <pt x="961" y="1505" on="1"/>
        <pt x="1669" y="1505" on="1"/>
        <pt x="1669" y="1362" on="1"/>
        <pt x="1440" y="1362" on="1"/>
        <pt x="975" y="785" on="1"/>
      </contour>
    </TTGlyph>
    <TTGlyph name="Y" xMin="23" yMin="0" xMax="1532" yMax="1505">
      <contour>
        <pt x="659" y="595" on="1"/>
        <pt x="227" y="1362" on="1"/>
        <pt x="23" y="1362" on="1"/>
        <pt x="23" y="1505" on="1"/>
        <pt x="692" y="1505" on="1"/>
        <pt x="692" y="1362" on="1"/>
        <pt x="463" y="1362" on="1"/>
        <pt x="801" y="741" on="1"/>
        <pt x="1149" y="1362" on="1"/>
        <pt x="926" y="1362" on="1"/>
        <pt x="926" y="1505" on="1"/>
        <pt x="1532" y="1505" on="1"/>
        <pt x="1532" y="1362" on="1"/>
        <pt x="1343" y="1362" on="1"/>
        <pt x="895" y="590" on="1"/>
        <pt x="895" y="143" on="1"/>
        <pt x="1124" y="143" on="1"/>
        <pt x="1124" y="0" on="1"/>
        <pt x="416" y="0" on="1"/>
        <pt x="416" y="143" on="1"/>
        <pt x="659" y="143" on="1"/>
      </contour>
    </TTGlyph>
    <TTGlyph name="Yacute" xMin="23" yMin="0" xMax="1532" yMax="2041">
      <component glyphName="glyph00403" x="23" y="0" flags="0x0"/>
      <component glyphName="Y" x="0" y="0" flags="0x1004"/>
      <component glyphName="acute" x="94" y="444" flags="0x1004"/>
    </TTGlyph>
    <TTGlyph name="Ydieresis" xMin="23" yMin="0" xMax="1532" yMax="1914">
      <component glyphName="glyph00403" x="23" y="0" flags="0x0"/>
      <component glyphName="dieresis" x="230" y="458" flags="0x1004"/>
      <component glyphName="Y" x="0" y="0" flags="0x1204"/>
    </TTGlyph>
    <TTGlyph name="Z" xMin="111" yMin="0" xMax="1278" yMax="1505">
      <contour>
        <pt x="1278" y="0" on="1"/>
        <pt x="135" y="0" on="1"/>
        <pt x="111" y="166" on="1"/>
        <pt x="113" y="166" on="1"/>
        <pt x="983" y="1368" on="1"/>
        <pt x="315" y="1368" on="1"/>
        <pt x="315" y="946" on="1"/>
        <pt x="129" y="946" on="1"/>
        <pt x="129" y="1505" on="1"/>
        <pt x="1204" y="1505" on="1"/>
        <pt x="1245" y="1335" on="1"/>
        <pt x="381" y="143" on="1"/>
        <pt x="1092" y="143" on="1"/>
        <pt x="1092" y="590" on="1"/>
        <pt x="1278" y="590" on="1"/>
      </contour>
    </TTGlyph>
    <TTGlyph name="Zacute" xMin="111" yMin="0" xMax="1278" yMax="2041">
      <component glyphName="glyph00403" x="111" y="0" flags="0x0"/>
      <component glyphName="Z" x="0" y="0" flags="0x1204"/>
      <component glyphName="acute" x="-16" y="444" flags="0x1004"/>
    </TTGlyph>
    <TTGlyph name="Zcaron" xMin="111" yMin="0" xMax="1278" yMax="2085">
      <component glyphName="glyph00403" x="111" y="0" flags="0x0"/>
      <component glyphName="caron" x="-74" y="479" flags="0x1004"/>
      <component glyphName="Z" x="0" y="0" flags="0x1204"/>
    </TTGlyph>
    <TTGlyph name="Zdotaccent" xMin="111" yMin="0" xMax="1278" yMax="1935">
      <component glyphName="glyph00403" x="111" y="0" flags="0x0"/>
      <component glyphName="uni0307" x="360" y="428" flags="0x1004"/>
      <component glyphName="Z" x="0" y="0" flags="0x1204"/>
    </TTGlyph>
    <TTGlyph name="a" xMin="78" yMin="-27" xMax="1276" yMax="1102">
      <contour>
        <pt x="291" y="229" on="1"/>
        <pt x="291" y="179" on="0"/>
        <pt x="350" y="117" on="0"/>
        <pt x="408" y="117" on="1"/>
        <pt x="474" y="117" on="0"/>
        <pt x="615" y="196" on="0"/>
        <pt x="707" y="316" on="0"/>
        <pt x="707" y="371" on="1"/>
        <pt x="707" y="584" on="1"/>
        <pt x="643" y="521" on="0"/>
        <pt x="476" y="421" on="0"/>
        <pt x="369" y="373" on="0"/>
        <pt x="291" y="289" on="0"/>
      </contour>
      <contour>
        <pt x="1276" y="313" on="1"/>
        <pt x="1276" y="213" on="0"/>
        <pt x="1234" y="75" on="0"/>
        <pt x="1154" y="3" on="0"/>
        <pt x="1060" y="-27" on="0"/>
        <pt x="997" y="-27" on="1"/>
        <pt x="930" y="-27" on="0"/>
        <pt x="814" y="25" on="0"/>
        <pt x="731" y="141" on="0"/>
        <pt x="723" y="223" on="1"/>
        <pt x="680" y="114" on="0"/>
        <pt x="475" y="-27" on="0"/>
        <pt x="356" y="-27" on="1"/>
        <pt x="233" y="-27" on="0"/>
        <pt x="78" y="104" on="0"/>
        <pt x="78" y="219" on="1"/>
        <pt x="78" y="279" on="0"/>
        <pt x="132" y="378" on="0"/>
        <pt x="221" y="444" on="0"/>
        <pt x="334" y="504" on="0"/>
        <pt x="451" y="547" on="0"/>
        <pt x="564" y="599" on="0"/>
        <pt x="653" y="651" on="0"/>
        <pt x="707" y="726" on="0"/>
        <pt x="707" y="772" on="1"/>
        <pt x="707" y="886" on="0"/>
        <pt x="595" y="997" on="0"/>
        <pt x="494" y="997" on="1"/>
        <pt x="423" y="997" on="0"/>
        <pt x="295" y="952" on="0"/>
        <pt x="260" y="913" on="1"/>
        <pt x="324" y="913" on="0"/>
        <pt x="399" y="844" on="0"/>
        <pt x="399" y="797" on="1"/>
        <pt x="399" y="734" on="0"/>
        <pt x="317" y="655" on="0"/>
        <pt x="260" y="655" on="1"/>
        <pt x="201" y="655" on="0"/>
        <pt x="113" y="738" on="0"/>
        <pt x="113" y="817" on="1"/>
        <pt x="113" y="858" on="0"/>
        <pt x="166" y="953" on="0"/>
        <pt x="265" y="1043" on="0"/>
        <pt x="435" y="1102" on="0"/>
        <pt x="537" y="1102" on="1"/>
        <pt x="619" y="1102" on="0"/>
        <pt x="753" y="1065" on="0"/>
        <pt x="862" y="984" on="0"/>
        <pt x="922" y="841" on="0"/>
        <pt x="922" y="743" on="1"/>
        <pt x="922" y="283" on="1"/>
        <pt x="922" y="244" on="0"/>
        <pt x="941" y="173" on="0"/>
        <pt x="997" y="115" on="0"/>
        <pt x="1040" y="115" on="1"/>
        <pt x="1167" y="115" on="0"/>
        <pt x="1167" y="293" on="1"/>
        <pt x="1167" y="442" on="1"/>
        <pt x="1276" y="442" on="1"/>
      </contour>
    </TTGlyph>
    <TTGlyph name="aacute" xMin="78" yMin="-27" xMax="1276" yMax="1607">
      <component glyphName="glyph00403" x="78" y="0" flags="0x0"/>
      <component glyphName="a" x="0" y="0" flags="0x1004"/>
      <component glyphName="acute" x="-146" y="10" flags="0x1004"/>
    </TTGlyph>
    <TTGlyph name="abreve" xMin="78" yMin="-27" xMax="1276" yMax="1450">
      <component glyphName="glyph00403" x="78" y="0" flags="0x0"/>
      <component glyphName="breve" x="-42" y="2" flags="0x1004"/>
      <component glyphName="a" x="0" y="0" flags="0x1204"/>
    </TTGlyph>
    <TTGlyph name="acircumflex" xMin="78" yMin="-27" xMax="1276" yMax="1651">
      <component glyphName="glyph00403" x="78" y="0" flags="0x0"/>
      <component glyphName="a" x="0" y="0" flags="0x1004"/>
      <component glyphName="circumflex" x="-232" y="45" flags="0x1004"/>
    </TTGlyph>
    <TTGlyph name="acute" xMin="395" yMin="1194" xMax="971" yMax="1597">
      <contour>
        <pt x="971" y="1458" on="1"/>
        <pt x="927" y="1413" on="0"/>
        <pt x="653" y="1281" on="0"/>
        <pt x="538" y="1238" on="1"/>
        <pt x="424" y="1194" on="1"/>
        <pt x="395" y="1233" on="1"/>
        <pt x="476" y="1302" on="0"/>
        <pt x="713" y="1484" on="0"/>
        <pt x="792" y="1540" on="1"/>
        <pt x="870" y="1597" on="1"/>
      </contour>
    </TTGlyph>
    <TTGlyph name="adieresis" xMin="78" yMin="-27" xMax="1276" yMax="1480">
      <component glyphName="glyph00403" x="78" y="0" flags="0x0"/>
      <component glyphName="a" x="0" y="0" flags="0x1204"/>
      <component glyphName="dieresis" x="-11" y="24" flags="0x1004"/>
    </TTGlyph>
    <TTGlyph name="ae" xMin="82" yMin="-29" xMax="1673" yMax="1104">
      <contour>
        <pt x="273" y="245" on="1"/>
        <pt x="273" y="190" on="0"/>
        <pt x="339" y="117" on="0"/>
        <pt x="395" y="117" on="1"/>
        <pt x="467" y="117" on="0"/>
        <pt x="596" y="178" on="0"/>
        <pt x="678" y="268" on="0"/>
        <pt x="729" y="355" on="0"/>
        <pt x="737" y="389" on="1"/>
        <pt x="733" y="508" on="1"/>
        <pt x="493" y="452" on="0"/>
        <pt x="273" y="331" on="0"/>
      </contour>
      <contour>
        <pt x="963" y="651" on="1"/>
        <pt x="1440" y="729" on="1"/>
        <pt x="1440" y="832" on="0"/>
        <pt x="1328" y="985" on="0"/>
        <pt x="1239" y="985" on="1"/>
        <pt x="1128" y="985" on="0"/>
        <pt x="975" y="799" on="0"/>
      </contour>
      <contour>
        <pt x="1673" y="334" on="1"/>
        <pt x="1634" y="167" on="0"/>
        <pt x="1403" y="-29" on="0"/>
        <pt x="1234" y="-29" on="1"/>
        <pt x="1090" y="-29" on="0"/>
        <pt x="862" y="155" on="0"/>
        <pt x="827" y="266" on="1"/>
        <pt x="765" y="136" on="0"/>
        <pt x="525" y="-29" on="0"/>
        <pt x="369" y="-29" on="1"/>
        <pt x="245" y="-29" on="0"/>
        <pt x="82" y="104" on="0"/>
        <pt x="82" y="219" on="1"/>
        <pt x="82" y="261" on="0"/>
        <pt x="106" y="336" on="0"/>
        <pt x="146" y="395" on="0"/>
        <pt x="209" y="448" on="0"/>
        <pt x="273" y="487" on="0"/>
        <pt x="362" y="525" on="0"/>
        <pt x="436" y="549" on="0"/>
        <pt x="536" y="577" on="0"/>
        <pt x="607" y="593" on="0"/>
        <pt x="706" y="616" on="0"/>
        <pt x="733" y="623" on="1"/>
        <pt x="733" y="772" on="1"/>
        <pt x="733" y="884" on="0"/>
        <pt x="602" y="997" on="0"/>
        <pt x="498" y="997" on="1"/>
        <pt x="428" y="997" on="0"/>
        <pt x="305" y="952" on="0"/>
        <pt x="270" y="913" on="1"/>
        <pt x="335" y="913" on="0"/>
        <pt x="414" y="844" on="0"/>
        <pt x="414" y="797" on="1"/>
        <pt x="414" y="735" on="0"/>
        <pt x="323" y="655" on="0"/>
        <pt x="264" y="655" on="1"/>
        <pt x="203" y="655" on="0"/>
        <pt x="117" y="746" on="0"/>
        <pt x="117" y="834" on="1"/>
        <pt x="117" y="945" on="0"/>
        <pt x="354" y="1102" on="0"/>
        <pt x="516" y="1102" on="1"/>
        <pt x="801" y="1102" on="0"/>
        <pt x="891" y="913" on="1"/>
        <pt x="955" y="1013" on="0"/>
        <pt x="1126" y="1104" on="0"/>
        <pt x="1245" y="1104" on="1"/>
        <pt x="1326" y="1104" on="0"/>
        <pt x="1459" y="1039" on="0"/>
        <pt x="1543" y="939" on="0"/>
        <pt x="1600" y="813" on="0"/>
        <pt x="1624" y="696" on="0"/>
        <pt x="1624" y="643" on="1"/>
        <pt x="963" y="547" on="1"/>
        <pt x="963" y="510" on="0"/>
        <pt x="980" y="410" on="0"/>
        <pt x="1023" y="290" on="0"/>
        <pt x="1085" y="190" on="0"/>
        <pt x="1188" y="123" on="0"/>
        <pt x="1251" y="123" on="1"/>
        <pt x="1353" y="123" on="0"/>
        <pt x="1524" y="252" on="0"/>
        <pt x="1556" y="371" on="1"/>
      </contour>
    </TTGlyph>
    <TTGlyph name="agrave" xMin="78" yMin="-27" xMax="1276" yMax="1607">
      <component glyphName="glyph00403" x="78" y="0" flags="0x0"/>
      <component glyphName="a" x="0" y="0" flags="0x1004"/>
      <component glyphName="grave" x="-146" y="10" flags="0x1004"/>
    </TTGlyph>
    <TTGlyph name="amacron" xMin="78" yMin="-27" xMax="1276" yMax="1342">
      <component glyphName="glyph00403" x="78" y="0" flags="0x0"/>
      <component glyphName="macron" x="93" y="-137" flags="0x1004"/>
      <component glyphName="a" x="0" y="0" flags="0x1204"/>
    </TTGlyph>
    <TTGlyph name="ampersand" xMin="115" yMin="-27" xMax="1714" yMax="1536">
      <contour>
        <pt x="565" y="143" on="1"/>
        <pt x="629" y="143" on="0"/>
        <pt x="773" y="238" on="0"/>
        <pt x="874" y="334" on="1"/>
        <pt x="635" y="690" on="1"/>
        <pt x="530" y="622" on="0"/>
        <pt x="426" y="546" on="0"/>
        <pt x="359" y="465" on="0"/>
        <pt x="344" y="399" on="0"/>
        <pt x="344" y="342" on="1"/>
        <pt x="344" y="261" on="0"/>
        <pt x="463" y="143" on="0"/>
      </contour>
      <contour>
        <pt x="840" y="1396" on="1"/>
        <pt x="751" y="1396" on="0"/>
        <pt x="631" y="1289" on="0"/>
        <pt x="631" y="1188" on="1"/>
        <pt x="631" y="1101" on="0"/>
        <pt x="721" y="926" on="1"/>
        <pt x="741" y="941" on="0"/>
        <pt x="816" y="996" on="0"/>
        <pt x="860" y="1029" on="0"/>
        <pt x="919" y="1083" on="0"/>
        <pt x="951" y="1129" on="0"/>
        <pt x="975" y="1191" on="0"/>
        <pt x="975" y="1223" on="1"/>
        <pt x="975" y="1299" on="0"/>
        <pt x="902" y="1396" on="0"/>
      </contour>
      <contour>
        <pt x="1343" y="-27" on="1"/>
        <pt x="1250" y="-27" on="0"/>
        <pt x="1055" y="85" on="0"/>
        <pt x="971" y="199" on="1"/>
        <pt x="956" y="186" on="0"/>
        <pt x="874" y="111" on="0"/>
        <pt x="834" y="78" on="0"/>
        <pt x="752" y="21" on="0"/>
        <pt x="687" y="-5" on="0"/>
        <pt x="592" y="-27" on="0"/>
        <pt x="541" y="-27" on="1"/>
        <pt x="341" y="-27" on="0"/>
        <pt x="115" y="200" on="0"/>
        <pt x="115" y="379" on="1"/>
        <pt x="115" y="432" on="0"/>
        <pt x="140" y="523" on="0"/>
        <pt x="194" y="600" on="0"/>
        <pt x="250" y="659" on="0"/>
        <pt x="341" y="722" on="0"/>
        <pt x="409" y="764" on="0"/>
        <pt x="517" y="828" on="0"/>
        <pt x="549" y="848" on="1"/>
        <pt x="497" y="933" on="0"/>
        <pt x="432" y="1113" on="0"/>
        <pt x="432" y="1167" on="1"/>
        <pt x="432" y="1330" on="0"/>
        <pt x="656" y="1536" on="0"/>
        <pt x="823" y="1536" on="1"/>
        <pt x="963" y="1536" on="0"/>
        <pt x="1147" y="1369" on="0"/>
        <pt x="1147" y="1237" on="1"/>
        <pt x="1147" y="1169" on="0"/>
        <pt x="1092" y="1041" on="0"/>
        <pt x="986" y="926" on="0"/>
        <pt x="874" y="834" on="0"/>
        <pt x="797" y="782" on="1"/>
        <pt x="1014" y="465" on="1"/>
        <pt x="1339" y="862" on="1"/>
        <pt x="1139" y="862" on="1"/>
        <pt x="1139" y="958" on="1"/>
        <pt x="1714" y="958" on="1"/>
        <pt x="1714" y="862" on="1"/>
        <pt x="1548" y="862" on="1"/>
        <pt x="1106" y="334" on="1"/>
        <pt x="1157" y="244" on="0"/>
        <pt x="1302" y="137" on="0"/>
        <pt x="1356" y="137" on="1"/>
        <pt x="1393" y="137" on="0"/>
        <pt x="1445" y="153" on="0"/>
        <pt x="1494" y="200" on="0"/>
        <pt x="1520" y="299" on="0"/>
        <pt x="1520" y="375" on="1"/>
        <pt x="1520" y="518" on="1"/>
        <pt x="1651" y="518" on="1"/>
        <pt x="1651" y="434" on="1"/>
        <pt x="1651" y="318" on="0"/>
        <pt x="1624" y="157" on="0"/>
        <pt x="1557" y="33" on="0"/>
        <pt x="1434" y="-27" on="0"/>
      </contour>
    </TTGlyph>
    <TTGlyph name="aogonek" xMin="78" yMin="-413" xMax="1276" yMax="1102">
      <component glyphName="glyph00403" x="78" y="0" flags="0x0"/>
      <component glyphName="ogonek" x="689" y="-28" flags="0x1004"/>
      <component glyphName="a" x="0" y="0" flags="0x1004"/>
    </TTGlyph>
    <TTGlyph name="approxequal" xMin="133" yMin="344" xMax="1104" yMax="1073">
      <contour>
        <pt x="876" y="520" on="1"/>
        <pt x="942" y="520" on="0"/>
        <pt x="979" y="583" on="0"/>
        <pt x="979" y="662" on="1"/>
        <pt x="1104" y="662" on="1"/>
        <pt x="1104" y="536" on="0"/>
        <pt x="1045" y="395" on="0"/>
        <pt x="938" y="344" on="0"/>
        <pt x="846" y="344" on="1"/>
        <pt x="779" y="344" on="0"/>
        <pt x="572" y="411" on="0"/>
        <pt x="393" y="478" on="0"/>
        <pt x="360" y="478" on="1"/>
        <pt x="294" y="478" on="0"/>
        <pt x="258" y="421" on="0"/>
        <pt x="258" y="344" on="1"/>
        <pt x="133" y="344" on="1"/>
        <pt x="133" y="469" on="0"/>
        <pt x="191" y="611" on="0"/>
        <pt x="299" y="664" on="0"/>
        <pt x="391" y="664" on="1"/>
        <pt x="456" y="664" on="0"/>
        <pt x="662" y="592" on="0"/>
        <pt x="842" y="520" on="0"/>
      </contour>
      <contour>
        <pt x="876" y="928" on="1"/>
        <pt x="942" y="928" on="0"/>
        <pt x="979" y="992" on="0"/>
        <pt x="979" y="1071" on="1"/>
        <pt x="1104" y="1071" on="1"/>
        <pt x="1104" y="976" on="0"/>
        <pt x="1073" y="851" on="0"/>
        <pt x="1006" y="780" on="0"/>
        <pt x="915" y="752" on="0"/>
        <pt x="846" y="752" on="1"/>
        <pt x="779" y="752" on="0"/>
        <pt x="572" y="820" on="0"/>
        <pt x="393" y="887" on="0"/>
        <pt x="360" y="887" on="1"/>
        <pt x="294" y="887" on="0"/>
        <pt x="258" y="830" on="0"/>
        <pt x="258" y="752" on="1"/>
        <pt x="133" y="752" on="1"/>
        <pt x="133" y="847" on="0"/>
        <pt x="163" y="972" on="0"/>
        <pt x="230" y="1044" on="0"/>
        <pt x="322" y="1073" on="0"/>
        <pt x="391" y="1073" on="1"/>
        <pt x="456" y="1073" on="0"/>
        <pt x="662" y="1000" on="0"/>
        <pt x="842" y="928" on="0"/>
      </contour>
    </TTGlyph>
    <TTGlyph name="aring" xMin="78" yMin="-27" xMax="1276" yMax="1569">
      <component glyphName="glyph00403" x="78" y="0" flags="0x0"/>
      <component glyphName="a" x="0" y="0" flags="0x1204"/>
      <component glyphName="ring" x="-13" y="-4" flags="0x1004"/>
    </TTGlyph>
    <TTGlyph name="asciicircum" xMin="127" yMin="315" xMax="1004" yMax="1116">
      <contour>
        <pt x="482" y="1116" on="1"/>
        <pt x="678" y="1116" on="1"/>
        <pt x="1004" y="315" on="1"/>
        <pt x="834" y="315" on="1"/>
        <pt x="572" y="975" on="1"/>
        <pt x="293" y="315" on="1"/>
        <pt x="127" y="315" on="1"/>
      </contour>
    </TTGlyph>
    <TTGlyph name="asciitilde" xMin="45" yMin="752" xMax="1016" yMax="1073">
      <contour>
        <pt x="788" y="928" on="1"/>
        <pt x="854" y="928" on="0"/>
        <pt x="891" y="992" on="0"/>
        <pt x="891" y="1071" on="1"/>
        <pt x="1016" y="1071" on="1"/>
        <pt x="1016" y="976" on="0"/>
        <pt x="985" y="851" on="0"/>
        <pt x="918" y="780" on="0"/>
        <pt x="827" y="752" on="0"/>
        <pt x="758" y="752" on="1"/>
        <pt x="691" y="752" on="0"/>
        <pt x="484" y="820" on="0"/>
        <pt x="305" y="887" on="0"/>
        <pt x="272" y="887" on="1"/>
        <pt x="206" y="887" on="0"/>
        <pt x="170" y="830" on="0"/>
        <pt x="170" y="752" on="1"/>
        <pt x="45" y="752" on="1"/>
        <pt x="45" y="847" on="0"/>
        <pt x="75" y="972" on="0"/>
        <pt x="142" y="1044" on="0"/>
        <pt x="234" y="1073" on="0"/>
        <pt x="303" y="1073" on="1"/>
        <pt x="368" y="1073" on="0"/>
        <pt x="574" y="1000" on="0"/>
        <pt x="754" y="928" on="0"/>
      </contour>
    </TTGlyph>
    <TTGlyph name="asterisk" xMin="123" yMin="368" xMax="1329" yMax="1536">
      <contour>
        <pt x="1022" y="368" on="1"/>
        <pt x="726" y="853" on="1"/>
        <pt x="430" y="368" on="1"/>
        <pt x="258" y="522" on="1"/>
        <pt x="641" y="919" on="1"/>
        <pt x="123" y="1081" on="1"/>
        <pt x="205" y="1276" on="1"/>
        <pt x="682" y="1003" on="1"/>
        <pt x="616" y="1536" on="1"/>
        <pt x="836" y="1536" on="1"/>
        <pt x="770" y="1003" on="1"/>
        <pt x="1247" y="1276" on="1"/>
        <pt x="1329" y="1081" on="1"/>
        <pt x="811" y="919" on="1"/>
        <pt x="1194" y="522" on="1"/>
      </contour>
    </TTGlyph>
    <TTGlyph name="at" xMin="37" yMin="-28" xMax="1612" yMax="1536">
      <contour>
        <pt x="1471" y="817" on="1"/>
        <pt x="1471" y="982" on="0"/>
        <pt x="1325" y="1258" on="0"/>
        <pt x="1060" y="1421" on="0"/>
        <pt x="897" y="1421" on="1"/>
        <pt x="766" y="1421" on="0"/>
        <pt x="534" y="1335" on="0"/>
        <pt x="366" y="1189" on="0"/>
        <pt x="244" y="999" on="0"/>
        <pt x="183" y="787" on="0"/>
        <pt x="183" y="680" on="1"/>
        <pt x="183" y="561" on="0"/>
        <pt x="262" y="351" on="0"/>
        <pt x="417" y="183" on="0"/>
        <pt x="673" y="85" on="0"/>
        <pt x="836" y="85" on="1"/>
        <pt x="944" y="85" on="0"/>
        <pt x="1202" y="156" on="0"/>
        <pt x="1286" y="215" on="1"/>
        <pt x="1348" y="138" on="0"/>
        <pt x="1348" y="133" on="1"/>
        <pt x="1248" y="61" on="0"/>
        <pt x="946" y="-28" on="0"/>
        <pt x="817" y="-28" on="1"/>
        <pt x="634" y="-28" on="0"/>
        <pt x="335" y="86" on="0"/>
        <pt x="141" y="286" on="0"/>
        <pt x="37" y="552" on="0"/>
        <pt x="37" y="706" on="1"/>
        <pt x="37" y="876" on="0"/>
        <pt x="178" y="1185" on="0"/>
        <pt x="411" y="1405" on="0"/>
        <pt x="723" y="1536" on="0"/>
        <pt x="889" y="1536" on="1"/>
        <pt x="1033" y="1536" on="0"/>
        <pt x="1275" y="1451" on="0"/>
        <pt x="1441" y="1309" on="0"/>
        <pt x="1558" y="1121" on="0"/>
        <pt x="1612" y="919" on="0"/>
        <pt x="1612" y="815" on="1"/>
        <pt x="1612" y="713" on="0"/>
        <pt x="1558" y="530" on="0"/>
        <pt x="1459" y="388" on="0"/>
        <pt x="1303" y="305" on="0"/>
        <pt x="1208" y="305" on="1"/>
        <pt x="1102" y="305" on="0"/>
        <pt x="992" y="434" on="0"/>
        <pt x="985" y="567" on="1"/>
        <pt x="964" y="519" on="0"/>
        <pt x="925" y="452" on="0"/>
        <pt x="868" y="386" on="0"/>
        <pt x="800" y="347" on="0"/>
        <pt x="703" y="323" on="0"/>
        <pt x="643" y="323" on="1"/>
        <pt x="595" y="323" on="0"/>
        <pt x="506" y="357" on="0"/>
        <pt x="428" y="426" on="0"/>
        <pt x="381" y="548" on="0"/>
        <pt x="381" y="628" on="1"/>
        <pt x="381" y="729" on="0"/>
        <pt x="460" y="944" on="0"/>
        <pt x="591" y="1119" on="0"/>
        <pt x="774" y="1232" on="0"/>
        <pt x="870" y="1232" on="1"/>
        <pt x="894" y="1232" on="0"/>
        <pt x="995" y="1158" on="0"/>
        <pt x="1033" y="1120" on="1"/>
        <pt x="1071" y="1083" on="1"/>
        <pt x="1098" y="1158" on="0"/>
        <pt x="1106" y="1183" on="1"/>
        <pt x="1266" y="1183" on="1"/>
        <pt x="1149" y="565" on="0"/>
        <pt x="1149" y="518" on="1"/>
        <pt x="1149" y="397" on="0"/>
        <pt x="1233" y="397" on="1"/>
        <pt x="1257" y="397" on="0"/>
        <pt x="1317" y="428" on="0"/>
        <pt x="1382" y="496" on="0"/>
        <pt x="1436" y="591" on="0"/>
        <pt x="1471" y="734" on="0"/>
      </contour>
      <contour>
        <pt x="557" y="651" on="1"/>
        <pt x="557" y="546" on="0"/>
        <pt x="654" y="442" on="0"/>
        <pt x="709" y="442" on="1"/>
        <pt x="795" y="442" on="0"/>
        <pt x="966" y="620" on="0"/>
        <pt x="985" y="702" on="1"/>
        <pt x="985" y="703" on="0"/>
        <pt x="1008" y="836" on="0"/>
        <pt x="1031" y="975" on="0"/>
        <pt x="1032" y="981" on="1"/>
        <pt x="1028" y="986" on="0"/>
        <pt x="1013" y="1005" on="0"/>
        <pt x="970" y="1051" on="0"/>
        <pt x="930" y="1087" on="0"/>
        <pt x="878" y="1116" on="0"/>
        <pt x="858" y="1116" on="1"/>
        <pt x="784" y="1116" on="0"/>
        <pt x="642" y="965" on="0"/>
        <pt x="557" y="748" on="0"/>
      </contour>
    </TTGlyph>
    <TTGlyph name="atilde" xMin="78" yMin="-27" xMax="1276" yMax="1449">
      <component glyphName="glyph00403" x="78" y="0" flags="0x0"/>
      <component glyphName="a" x="0" y="0" flags="0x1004"/>
      <component glyphName="tilde" x="-93" y="-62" flags="0x1004"/>
    </TTGlyph>
    <TTGlyph name="b" xMin="-72" yMin="-27" xMax="1108" yMax="1505">
      <contour>
        <pt x="616" y="989" on="1"/>
        <pt x="550" y="989" on="0"/>
        <pt x="443" y="910" on="0"/>
        <pt x="382" y="786" on="0"/>
        <pt x="350" y="650" on="0"/>
        <pt x="350" y="584" on="1"/>
        <pt x="350" y="448" on="0"/>
        <pt x="413" y="227" on="0"/>
        <pt x="535" y="94" on="0"/>
        <pt x="616" y="94" on="1"/>
        <pt x="698" y="94" on="0"/>
        <pt x="821" y="222" on="0"/>
        <pt x="879" y="414" on="0"/>
        <pt x="879" y="524" on="1"/>
        <pt x="879" y="611" on="0"/>
        <pt x="850" y="769" on="0"/>
        <pt x="791" y="907" on="0"/>
        <pt x="685" y="989" on="0"/>
      </contour>
      <contour>
        <pt x="657" y="-27" on="1"/>
        <pt x="547" y="-27" on="0"/>
        <pt x="354" y="84" on="0"/>
        <pt x="305" y="199" on="1"/>
        <pt x="227" y="0" on="1"/>
        <pt x="135" y="0" on="1"/>
        <pt x="135" y="1382" on="1"/>
        <pt x="-72" y="1382" on="1"/>
        <pt x="-72" y="1505" on="1"/>
        <pt x="350" y="1505" on="1"/>
        <pt x="350" y="942" on="1"/>
        <pt x="401" y="1017" on="0"/>
        <pt x="558" y="1102" on="0"/>
        <pt x="647" y="1102" on="1"/>
        <pt x="856" y="1102" on="0"/>
        <pt x="1108" y="786" on="0"/>
        <pt x="1108" y="537" on="1"/>
        <pt x="1108" y="379" on="0"/>
        <pt x="995" y="122" on="0"/>
        <pt x="788" y="-27" on="0"/>
      </contour>
    </TTGlyph>
    <TTGlyph name="backslash" xMin="63" yMin="-170" xMax="756" yMax="1597">
      <contour>
        <pt x="637" y="1597" on="1"/>
        <pt x="756" y="1561" on="1"/>
        <pt x="182" y="-170" on="1"/>
        <pt x="63" y="-133" on="1"/>
      </contour>
    </TTGlyph>
    <TTGlyph name="bar" xMin="153" yMin="-246" xMax="333" yMax="1606">
      <contour>
        <pt x="333" y="1606" on="1"/>
        <pt x="333" y="-246" on="1"/>
        <pt x="153" y="-246" on="1"/>
        <pt x="153" y="1606" on="1"/>
      </contour>
    </TTGlyph>
    <TTGlyph name="braceleft" xMin="65" yMin="-334" xMax="794" yMax="1583">
      <contour>
        <pt x="376" y="625" on="1"/>
        <pt x="410" y="617" on="0"/>
        <pt x="456" y="592" on="0"/>
        <pt x="489" y="546" on="0"/>
        <pt x="508" y="493" on="0"/>
        <pt x="519" y="402" on="0"/>
        <pt x="522" y="309" on="0"/>
        <pt x="522" y="236" on="1"/>
        <pt x="522" y="174" on="0"/>
        <pt x="523" y="96" on="0"/>
        <pt x="527" y="1" on="0"/>
        <pt x="535" y="-55" on="0"/>
        <pt x="549" y="-122" on="0"/>
        <pt x="570" y="-159" on="0"/>
        <pt x="600" y="-201" on="0"/>
        <pt x="639" y="-222" on="0"/>
        <pt x="691" y="-241" on="0"/>
        <pt x="754" y="-248" on="0"/>
        <pt x="794" y="-248" on="1"/>
        <pt x="794" y="-334" on="1"/>
        <pt x="687" y="-334" on="0"/>
        <pt x="530" y="-307" on="0"/>
        <pt x="419" y="-243" on="0"/>
        <pt x="350" y="-157" on="0"/>
        <pt x="310" y="-21" on="0"/>
        <pt x="296" y="129" on="0"/>
        <pt x="296" y="236" on="1"/>
        <pt x="296" y="276" on="0"/>
        <pt x="297" y="388" on="0"/>
        <pt x="297" y="407" on="1"/>
        <pt x="297" y="506" on="0"/>
        <pt x="258" y="557" on="0"/>
        <pt x="180" y="557" on="1"/>
        <pt x="65" y="557" on="1"/>
        <pt x="65" y="692" on="1"/>
        <pt x="180" y="692" on="1"/>
        <pt x="258" y="692" on="0"/>
        <pt x="297" y="743" on="0"/>
        <pt x="297" y="842" on="1"/>
        <pt x="297" y="860" on="0"/>
        <pt x="296" y="974" on="0"/>
        <pt x="296" y="1014" on="1"/>
        <pt x="296" y="1121" on="0"/>
        <pt x="310" y="1271" on="0"/>
        <pt x="350" y="1407" on="0"/>
        <pt x="419" y="1492" on="0"/>
        <pt x="530" y="1556" on="0"/>
        <pt x="687" y="1583" on="0"/>
        <pt x="794" y="1583" on="1"/>
        <pt x="794" y="1497" on="1"/>
        <pt x="715" y="1497" on="0"/>
        <pt x="615" y="1461" on="0"/>
        <pt x="556" y="1404" on="0"/>
        <pt x="529" y="1268" on="0"/>
        <pt x="522" y="1140" on="0"/>
        <pt x="522" y="1014" on="1"/>
        <pt x="522" y="941" on="0"/>
        <pt x="519" y="848" on="0"/>
        <pt x="508" y="757" on="0"/>
        <pt x="489" y="704" on="0"/>
        <pt x="456" y="658" on="0"/>
        <pt x="410" y="633" on="0"/>
      </contour>
    </TTGlyph>
    <TTGlyph name="braceright" xMin="71" yMin="-334" xMax="800" yMax="1583">
      <contour>
        <pt x="534" y="625" on="1"/>
        <pt x="431" y="649" on="0"/>
        <pt x="343" y="820" on="0"/>
        <pt x="343" y="1014" on="1"/>
        <pt x="343" y="1140" on="0"/>
        <pt x="336" y="1268" on="0"/>
        <pt x="309" y="1404" on="0"/>
        <pt x="250" y="1461" on="0"/>
        <pt x="150" y="1497" on="0"/>
        <pt x="71" y="1497" on="1"/>
        <pt x="71" y="1583" on="1"/>
        <pt x="163" y="1583" on="0"/>
        <pt x="304" y="1561" on="0"/>
        <pt x="410" y="1520" on="0"/>
        <pt x="483" y="1449" on="0"/>
        <pt x="531" y="1364" on="0"/>
        <pt x="558" y="1239" on="0"/>
        <pt x="568" y="1105" on="0"/>
        <pt x="568" y="1014" on="1"/>
        <pt x="568" y="951" on="0"/>
        <pt x="569" y="881" on="0"/>
        <pt x="573" y="801" on="0"/>
        <pt x="580" y="763" on="0"/>
        <pt x="596" y="720" on="0"/>
        <pt x="615" y="704" on="0"/>
        <pt x="647" y="687" on="0"/>
        <pt x="684" y="684" on="0"/>
        <pt x="712" y="684" on="1"/>
        <pt x="800" y="684" on="1"/>
        <pt x="800" y="565" on="1"/>
        <pt x="712" y="565" on="1"/>
        <pt x="684" y="565" on="0"/>
        <pt x="647" y="562" on="0"/>
        <pt x="615" y="546" on="0"/>
        <pt x="596" y="530" on="0"/>
        <pt x="580" y="487" on="0"/>
        <pt x="573" y="449" on="0"/>
        <pt x="569" y="369" on="0"/>
        <pt x="568" y="299" on="0"/>
        <pt x="568" y="236" on="1"/>
        <pt x="568" y="129" on="0"/>
        <pt x="554" y="-21" on="0"/>
        <pt x="515" y="-157" on="0"/>
        <pt x="445" y="-243" on="0"/>
        <pt x="335" y="-307" on="0"/>
        <pt x="178" y="-334" on="0"/>
        <pt x="71" y="-334" on="1"/>
        <pt x="71" y="-248" on="1"/>
        <pt x="111" y="-248" on="0"/>
        <pt x="174" y="-241" on="0"/>
        <pt x="226" y="-222" on="0"/>
        <pt x="265" y="-201" on="0"/>
        <pt x="295" y="-159" on="0"/>
        <pt x="316" y="-122" on="0"/>
        <pt x="330" y="-55" on="0"/>
        <pt x="338" y="1" on="0"/>
        <pt x="342" y="96" on="0"/>
        <pt x="343" y="174" on="0"/>
        <pt x="343" y="236" on="1"/>
        <pt x="343" y="430" on="0"/>
        <pt x="431" y="601" on="0"/>
      </contour>
    </TTGlyph>
    <TTGlyph name="bracketleft" xMin="151" yMin="-246" xMax="896" yMax="1602">
      <contour>
        <pt x="896" y="-246" on="1"/>
        <pt x="151" y="-246" on="1"/>
        <pt x="151" y="1602" on="1"/>
        <pt x="896" y="1602" on="1"/>
        <pt x="896" y="1464" on="1"/>
        <pt x="386" y="1464" on="1"/>
        <pt x="386" y="-109" on="1"/>
        <pt x="896" y="-109" on="1"/>
      </contour>
    </TTGlyph>
    <TTGlyph name="bracketright" xMin="145" yMin="-246" xMax="890" yMax="1602">
      <contour>
        <pt x="145" y="1602" on="1"/>
        <pt x="890" y="1602" on="1"/>
        <pt x="890" y="-246" on="1"/>
        <pt x="145" y="-246" on="1"/>
        <pt x="145" y="-109" on="1"/>
        <pt x="655" y="-109" on="1"/>
        <pt x="655" y="1464" on="1"/>
        <pt x="145" y="1464" on="1"/>
      </contour>
    </TTGlyph>
    <TTGlyph name="breve" xMin="338" yMin="1202" xMax="819" yMax="1448">
      <contour>
        <pt x="819" y="1444" on="1"/>
        <pt x="817" y="1406" on="0"/>
        <pt x="787" y="1325" on="0"/>
        <pt x="732" y="1250" on="0"/>
        <pt x="638" y="1202" on="0"/>
        <pt x="522" y="1202" on="0"/>
        <pt x="427" y="1249" on="0"/>
        <pt x="370" y="1325" on="0"/>
        <pt x="340" y="1408" on="0"/>
        <pt x="338" y="1448" on="1"/>
        <pt x="467" y="1448" on="1"/>
        <pt x="468" y="1391" on="0"/>
        <pt x="534" y="1321" on="0"/>
        <pt x="578" y="1321" on="1"/>
        <pt x="620" y="1321" on="0"/>
        <pt x="687" y="1389" on="0"/>
        <pt x="690" y="1444" on="1"/>
      </contour>
    </TTGlyph>
    <TTGlyph name="brokenbar" xMin="153" yMin="-246" xMax="333" yMax="1606">
      <contour>
        <pt x="333" y="1606" on="1"/>
        <pt x="333" y="911" on="1"/>
        <pt x="153" y="911" on="1"/>
        <pt x="153" y="1606" on="1"/>
      </contour>
      <contour>
        <pt x="333" y="449" on="1"/>
        <pt x="333" y="-246" on="1"/>
        <pt x="153" y="-246" on="1"/>
        <pt x="153" y="449" on="1"/>
      </contour>
    </TTGlyph>
    <TTGlyph name="bullet" xMin="144" yMin="463" xMax="775" yMax="1092">
      <contour>
        <pt x="144" y="778" on="1"/>
        <pt x="144" y="908" on="0"/>
        <pt x="315" y="1092" on="0"/>
        <pt x="460" y="1092" on="1"/>
        <pt x="603" y="1092" on="0"/>
        <pt x="775" y="907" on="0"/>
        <pt x="775" y="649" on="0"/>
        <pt x="603" y="463" on="0"/>
        <pt x="317" y="463" on="0"/>
        <pt x="144" y="647" on="0"/>
      </contour>
    </TTGlyph>
    <TTGlyph name="c" xMin="74" yMin="-27" xMax="1063" yMax="1102">
      <contour>
        <pt x="74" y="516" on="1"/>
        <pt x="74" y="632" on="0"/>
        <pt x="144" y="840" on="0"/>
        <pt x="276" y="1005" on="0"/>
        <pt x="486" y="1102" on="0"/>
        <pt x="616" y="1102" on="1"/>
        <pt x="689" y="1102" on="0"/>
        <pt x="835" y="1059" on="0"/>
        <pt x="961" y="977" on="0"/>
        <pt x="1040" y="838" on="0"/>
        <pt x="1040" y="752" on="1"/>
        <pt x="1040" y="692" on="0"/>
        <pt x="957" y="590" on="0"/>
        <pt x="883" y="590" on="1"/>
        <pt x="818" y="590" on="0"/>
        <pt x="729" y="667" on="0"/>
        <pt x="729" y="731" on="1"/>
        <pt x="729" y="796" on="0"/>
        <pt x="821" y="868" on="0"/>
        <pt x="883" y="868" on="1"/>
        <pt x="850" y="921" on="0"/>
        <pt x="729" y="989" on="0"/>
        <pt x="651" y="989" on="1"/>
        <pt x="564" y="989" on="0"/>
        <pt x="426" y="912" on="0"/>
        <pt x="344" y="785" on="0"/>
        <pt x="301" y="631" on="0"/>
        <pt x="301" y="549" on="1"/>
        <pt x="301" y="356" on="0"/>
        <pt x="479" y="135" on="0"/>
        <pt x="637" y="135" on="1"/>
        <pt x="698" y="135" on="0"/>
        <pt x="811" y="186" on="0"/>
        <pt x="888" y="262" on="0"/>
        <pt x="940" y="339" on="0"/>
        <pt x="950" y="371" on="1"/>
        <pt x="1063" y="334" on="1"/>
        <pt x="1025" y="170" on="0"/>
        <pt x="779" y="-27" on="0"/>
        <pt x="592" y="-27" on="1"/>
        <pt x="485" y="-27" on="0"/>
        <pt x="295" y="50" on="0"/>
        <pt x="155" y="188" on="0"/>
        <pt x="74" y="394" on="0"/>
      </contour>
    </TTGlyph>
    <TTGlyph name="cacute" xMin="74" yMin="-27" xMax="1063" yMax="1609">
      <component glyphName="glyph00403" x="74" y="0" flags="0x0"/>
      <component glyphName="c" x="0" y="0" flags="0x1004"/>
      <component glyphName="acute" x="-67" y="12" flags="0x1004"/>
    </TTGlyph>
    <TTGlyph name="caron" xMin="442" yMin="1159" xMax="1096" yMax="1606">
      <contour>
        <pt x="770" y="1333" on="1"/>
        <pt x="805" y="1364" on="0"/>
        <pt x="918" y="1499" on="0"/>
        <pt x="958" y="1550" on="1"/>
        <pt x="997" y="1602" on="1"/>
        <pt x="1096" y="1509" on="1"/>
        <pt x="770" y="1159" on="1"/>
        <pt x="442" y="1516" on="1"/>
        <pt x="541" y="1606" on="1"/>
        <pt x="692" y="1403" on="0"/>
      </contour>
    </TTGlyph>
    <TTGlyph name="ccaron" xMin="74" yMin="-27" xMax="1063" yMax="1653">
      <component glyphName="glyph00403" x="74" y="0" flags="0x0"/>
      <component glyphName="caron" x="-153" y="47" flags="0x1004"/>
      <component glyphName="c" x="0" y="0" flags="0x1204"/>
    </TTGlyph>
    <TTGlyph name="ccedilla" xMin="74" yMin="-458" xMax="1063" yMax="1102">
      <component glyphName="glyph00403" x="74" y="0" flags="0x0"/>
      <component glyphName="cedilla" x="336" y="-14" flags="0x1004"/>
      <component glyphName="c" x="0" y="0" flags="0x1204"/>
    </TTGlyph>
    <TTGlyph name="ccircumflex" xMin="74" yMin="-27" xMax="1063" yMax="1653">
      <component glyphName="glyph00403" x="74" y="0" flags="0x0"/>
      <component glyphName="circumflex" x="-140" y="47" flags="0x1004"/>
      <component glyphName="c" x="0" y="0" flags="0x1204"/>
    </TTGlyph>
    <TTGlyph name="cdotaccent" xMin="74" yMin="-27" xMax="1063" yMax="1503">
      <component glyphName="glyph00403" x="74" y="0" flags="0x0"/>
      <component glyphName="uni0307" x="282" y="-4" flags="0x1004"/>
      <component glyphName="c" x="0" y="0" flags="0x1204"/>
    </TTGlyph>
    <TTGlyph name="cedilla" xMin="8" yMin="-444" xMax="307" yMax="0">
      <contour>
        <pt x="307" y="-276" on="1"/>
        <pt x="307" y="-312" on="0"/>
        <pt x="251" y="-373" on="0"/>
        <pt x="172" y="-409" on="0"/>
        <pt x="93" y="-434" on="0"/>
        <pt x="65" y="-439" on="1"/>
        <pt x="37" y="-444" on="1"/>
        <pt x="8" y="-373" on="1"/>
        <pt x="66" y="-363" on="0"/>
        <pt x="154" y="-327" on="0"/>
        <pt x="154" y="-307" on="1"/>
        <pt x="154" y="-286" on="0"/>
        <pt x="59" y="-193" on="0"/>
        <pt x="59" y="-168" on="1"/>
        <pt x="59" y="-110" on="0"/>
        <pt x="182" y="0" on="0"/>
        <pt x="268" y="0" on="1"/>
        <pt x="307" y="0" on="1"/>
      </contour>
    </TTGlyph>
    <TTGlyph name="cent" xMin="74" yMin="-213" xMax="1063" yMax="1290">
      <contour>
        <pt x="559" y="143" on="1"/>
        <pt x="559" y="977" on="1"/>
        <pt x="474" y="953" on="0"/>
        <pt x="354" y="816" on="0"/>
        <pt x="301" y="645" on="0"/>
        <pt x="301" y="549" on="1"/>
        <pt x="301" y="382" on="0"/>
        <pt x="437" y="169" on="0"/>
      </contour>
      <contour>
        <pt x="559" y="1290" on="1"/>
        <pt x="647" y="1290" on="1"/>
        <pt x="647" y="1103" on="1"/>
        <pt x="718" y="1099" on="0"/>
        <pt x="853" y="1051" on="0"/>
        <pt x="969" y="968" on="0"/>
        <pt x="1040" y="834" on="0"/>
        <pt x="1040" y="752" on="1"/>
        <pt x="1040" y="692" on="0"/>
        <pt x="957" y="590" on="0"/>
        <pt x="883" y="590" on="1"/>
        <pt x="818" y="590" on="0"/>
        <pt x="729" y="667" on="0"/>
        <pt x="729" y="731" on="1"/>
        <pt x="729" y="796" on="0"/>
        <pt x="821" y="868" on="0"/>
        <pt x="883" y="868" on="1"/>
        <pt x="850" y="921" on="0"/>
        <pt x="729" y="989" on="0"/>
        <pt x="651" y="989" on="1"/>
        <pt x="647" y="989" on="1"/>
        <pt x="647" y="135" on="1"/>
        <pt x="706" y="137" on="0"/>
        <pt x="815" y="189" on="0"/>
        <pt x="890" y="265" on="0"/>
        <pt x="940" y="339" on="0"/>
        <pt x="950" y="371" on="1"/>
        <pt x="1063" y="334" on="1"/>
        <pt x="1028" y="182" on="0"/>
        <pt x="812" y="-12" on="0"/>
        <pt x="647" y="-27" on="1"/>
        <pt x="647" y="-213" on="1"/>
        <pt x="559" y="-213" on="1"/>
        <pt x="559" y="-28" on="1"/>
        <pt x="350" y="-16" on="0"/>
        <pt x="74" y="281" on="0"/>
        <pt x="74" y="516" on="1"/>
        <pt x="74" y="664" on="0"/>
        <pt x="180" y="915" on="0"/>
        <pt x="404" y="1089" on="0"/>
        <pt x="559" y="1102" on="1"/>
      </contour>
    </TTGlyph>
    <TTGlyph name="circumflex" xMin="442" yMin="1159" xMax="1096" yMax="1606">
      <contour>
        <pt x="768" y="1432" on="1"/>
        <pt x="733" y="1401" on="0"/>
        <pt x="620" y="1266" on="0"/>
        <pt x="580" y="1214" on="1"/>
        <pt x="541" y="1163" on="1"/>
        <pt x="442" y="1255" on="1"/>
        <pt x="768" y="1606" on="1"/>
        <pt x="1096" y="1249" on="1"/>
        <pt x="997" y="1159" on="1"/>
        <pt x="846" y="1362" on="0"/>
      </contour>
    </TTGlyph>
    <TTGlyph name="colon" xMin="146" yMin="0" xMax="443" yMax="1071">
      <contour>
        <pt x="146" y="922" on="1"/>
        <pt x="146" y="984" on="0"/>
        <pt x="233" y="1071" on="0"/>
        <pt x="294" y="1071" on="1"/>
        <pt x="354" y="1071" on="0"/>
        <pt x="443" y="983" on="0"/>
        <pt x="443" y="922" on="1"/>
        <pt x="443" y="862" on="0"/>
        <pt x="354" y="774" on="0"/>
        <pt x="294" y="774" on="1"/>
        <pt x="233" y="774" on="0"/>
        <pt x="146" y="862" on="0"/>
      </contour>
      <contour>
        <pt x="146" y="147" on="1"/>
        <pt x="146" y="209" on="0"/>
        <pt x="233" y="297" on="0"/>
        <pt x="294" y="297" on="1"/>
        <pt x="354" y="297" on="0"/>
        <pt x="443" y="208" on="0"/>
        <pt x="443" y="147" on="1"/>
        <pt x="443" y="87" on="0"/>
        <pt x="354" y="0" on="0"/>
        <pt x="294" y="0" on="1"/>
        <pt x="233" y="0" on="0"/>
        <pt x="146" y="87" on="0"/>
      </contour>
    </TTGlyph>
    <TTGlyph name="comma" xMin="139" yMin="-252" xMax="477" yMax="264">
      <contour>
        <pt x="235" y="-174" on="1"/>
        <pt x="283" y="-145" on="0"/>
        <pt x="364" y="-55" on="0"/>
        <pt x="364" y="-16" on="1"/>
        <pt x="364" y="1" on="0"/>
        <pt x="356" y="12" on="1"/>
        <pt x="317" y="-12" on="0"/>
        <pt x="272" y="-12" on="1"/>
        <pt x="220" y="-12" on="0"/>
        <pt x="139" y="70" on="0"/>
        <pt x="139" y="121" on="1"/>
        <pt x="139" y="177" on="0"/>
        <pt x="234" y="264" on="0"/>
        <pt x="289" y="264" on="1"/>
        <pt x="360" y="264" on="0"/>
        <pt x="477" y="155" on="0"/>
        <pt x="477" y="55" on="1"/>
        <pt x="477" y="-22" on="0"/>
        <pt x="389" y="-181" on="0"/>
        <pt x="297" y="-244" on="1"/>
        <pt x="291" y="-246" on="0"/>
        <pt x="285" y="-252" on="1"/>
      </contour>
    </TTGlyph>
    <TTGlyph name="copyright" xMin="86" yMin="-27" xMax="1652" yMax="1536">
      <contour>
        <pt x="1270" y="614" on="1"/>
        <pt x="1239" y="485" on="0"/>
        <pt x="1033" y="333" on="0"/>
        <pt x="901" y="333" on="1"/>
        <pt x="719" y="333" on="0"/>
        <pt x="472" y="595" on="0"/>
        <pt x="472" y="783" on="1"/>
        <pt x="472" y="979" on="0"/>
        <pt x="717" y="1232" on="0"/>
        <pt x="911" y="1232" on="1"/>
        <pt x="992" y="1232" on="0"/>
        <pt x="1142" y="1166" on="0"/>
        <pt x="1243" y="1036" on="0"/>
        <pt x="1243" y="953" on="1"/>
        <pt x="1243" y="908" on="0"/>
        <pt x="1172" y="831" on="0"/>
        <pt x="1114" y="831" on="1"/>
        <pt x="1068" y="831" on="0"/>
        <pt x="1001" y="891" on="0"/>
        <pt x="1001" y="936" on="1"/>
        <pt x="1001" y="986" on="0"/>
        <pt x="1084" y="1044" on="0"/>
        <pt x="1122" y="1044" on="1"/>
        <pt x="1092" y="1089" on="0"/>
        <pt x="983" y="1149" on="0"/>
        <pt x="909" y="1149" on="1"/>
        <pt x="789" y="1149" on="0"/>
        <pt x="640" y="954" on="0"/>
        <pt x="640" y="787" on="1"/>
        <pt x="640" y="701" on="0"/>
        <pt x="703" y="545" on="0"/>
        <pt x="835" y="439" on="0"/>
        <pt x="921" y="439" on="1"/>
        <pt x="1022" y="439" on="0"/>
        <pt x="1168" y="570" on="0"/>
        <pt x="1190" y="654" on="1"/>
      </contour>
      <contour>
        <pt x="871" y="72" on="1"/>
        <pt x="1011" y="72" on="0"/>
        <pt x="1266" y="182" on="0"/>
        <pt x="1451" y="366" on="0"/>
        <pt x="1561" y="621" on="0"/>
        <pt x="1561" y="899" on="0"/>
        <pt x="1451" y="1153" on="0"/>
        <pt x="1266" y="1337" on="0"/>
        <pt x="1011" y="1446" on="0"/>
        <pt x="871" y="1446" on="1"/>
        <pt x="685" y="1446" on="0"/>
        <pt x="368" y="1262" on="0"/>
        <pt x="182" y="946" on="0"/>
        <pt x="182" y="760" on="1"/>
        <pt x="182" y="621" on="0"/>
        <pt x="292" y="366" on="0"/>
        <pt x="477" y="182" on="0"/>
        <pt x="732" y="72" on="0"/>
      </contour>
      <contour>
        <pt x="1027" y="-27" on="0"/>
        <pt x="711" y="-27" on="0"/>
        <pt x="422" y="99" on="0"/>
        <pt x="211" y="309" on="0"/>
        <pt x="86" y="600" on="0"/>
        <pt x="86" y="758" on="1"/>
        <pt x="86" y="915" on="0"/>
        <pt x="211" y="1203" on="0"/>
        <pt x="422" y="1412" on="0"/>
        <pt x="711" y="1536" on="0"/>
        <pt x="869" y="1536" on="1"/>
        <pt x="1080" y="1536" on="0"/>
        <pt x="1441" y="1326" on="0"/>
        <pt x="1652" y="968" on="0"/>
        <pt x="1652" y="758" on="1"/>
        <pt x="1652" y="600" on="0"/>
        <pt x="1527" y="309" on="0"/>
        <pt x="1317" y="98" on="0"/>
      </contour>
    </TTGlyph>
    <TTGlyph name="currency" xMin="143" yMin="571" xMax="1052" yMax="1477">
      <contour>
        <pt x="991" y="578" on="1"/>
        <pt x="897" y="672" on="1"/>
        <pt x="778" y="571" on="0"/>
        <pt x="602" y="571" on="1"/>
        <pt x="431" y="571" on="0"/>
        <pt x="303" y="670" on="1"/>
        <pt x="210" y="578" on="1"/>
        <pt x="151" y="637" on="1"/>
        <pt x="243" y="729" on="1"/>
        <pt x="143" y="856" on="0"/>
        <pt x="143" y="1024" on="1"/>
        <pt x="143" y="1197" on="0"/>
        <pt x="245" y="1323" on="1"/>
        <pt x="151" y="1417" on="1"/>
        <pt x="210" y="1477" on="1"/>
        <pt x="307" y="1380" on="1"/>
        <pt x="425" y="1477" on="0"/>
        <pt x="775" y="1477" on="0"/>
        <pt x="892" y="1378" on="1"/>
        <pt x="991" y="1477" on="1"/>
        <pt x="1050" y="1417" on="1"/>
        <pt x="952" y="1319" on="1"/>
        <pt x="1052" y="1195" on="0"/>
        <pt x="1052" y="1020" on="1"/>
        <pt x="1052" y="856" on="0"/>
        <pt x="956" y="731" on="1"/>
        <pt x="1050" y="637" on="1"/>
      </contour>
      <contour>
        <pt x="740" y="1368" on="0"/>
        <pt x="460" y="1368" on="0"/>
        <pt x="284" y="1179" on="0"/>
        <pt x="284" y="1020" on="1"/>
        <pt x="284" y="865" on="0"/>
        <pt x="461" y="686" on="0"/>
        <pt x="602" y="686" on="1"/>
        <pt x="741" y="686" on="0"/>
        <pt x="915" y="867" on="0"/>
        <pt x="915" y="1020" on="1"/>
        <pt x="915" y="1179" on="0"/>
      </contour>
    </TTGlyph>
    <TTGlyph name="d" xMin="80" yMin="-27" xMax="1225" yMax="1505">
      <contour>
        <pt x="831" y="170" on="1"/>
        <pt x="780" y="75" on="0"/>
        <pt x="607" y="-27" on="0"/>
        <pt x="520" y="-27" on="1"/>
        <pt x="321" y="-27" on="0"/>
        <pt x="80" y="283" on="0"/>
        <pt x="80" y="537" on="1"/>
        <pt x="80" y="792" on="0"/>
        <pt x="325" y="1102" on="0"/>
        <pt x="535" y="1102" on="1"/>
        <pt x="618" y="1102" on="0"/>
        <pt x="779" y="1016" on="0"/>
        <pt x="829" y="942" on="1"/>
        <pt x="829" y="1382" on="1"/>
        <pt x="594" y="1382" on="1"/>
        <pt x="594" y="1505" on="1"/>
        <pt x="1044" y="1505" on="1"/>
        <pt x="1044" y="112" on="1"/>
        <pt x="1225" y="112" on="1"/>
        <pt x="1225" y="0" on="1"/>
        <pt x="870" y="0" on="1"/>
      </contour>
      <contour>
        <pt x="571" y="989" on="1"/>
        <pt x="503" y="989" on="0"/>
        <pt x="398" y="909" on="0"/>
        <pt x="338" y="774" on="0"/>
        <pt x="309" y="617" on="0"/>
        <pt x="309" y="532" on="1"/>
        <pt x="309" y="420" on="0"/>
        <pt x="361" y="229" on="0"/>
        <pt x="480" y="100" on="0"/>
        <pt x="563" y="100" on="1"/>
        <pt x="685" y="100" on="0"/>
        <pt x="844" y="354" on="0"/>
        <pt x="844" y="549" on="1"/>
        <pt x="844" y="629" on="0"/>
        <pt x="812" y="780" on="0"/>
        <pt x="748" y="910" on="0"/>
        <pt x="640" y="989" on="0"/>
      </contour>
    </TTGlyph>
    <TTGlyph name="dagger" xMin="146" yMin="96" xMax="980" yMax="1479">
      <contour>
        <pt x="478" y="96" on="1"/>
        <pt x="478" y="926" on="1"/>
        <pt x="146" y="926" on="1"/>
        <pt x="146" y="1073" on="1"/>
        <pt x="478" y="1073" on="1"/>
        <pt x="478" y="1479" on="1"/>
        <pt x="648" y="1479" on="1"/>
        <pt x="648" y="1073" on="1"/>
        <pt x="980" y="1073" on="1"/>
        <pt x="980" y="926" on="1"/>
        <pt x="648" y="926" on="1"/>
        <pt x="648" y="96" on="1"/>
      </contour>
    </TTGlyph>
    <TTGlyph name="daggerdbl" xMin="150" yMin="96" xMax="984" yMax="1479">
      <contour>
        <pt x="482" y="96" on="1"/>
        <pt x="482" y="473" on="1"/>
        <pt x="150" y="473" on="1"/>
        <pt x="150" y="621" on="1"/>
        <pt x="482" y="621" on="1"/>
        <pt x="482" y="991" on="1"/>
        <pt x="150" y="991" on="1"/>
        <pt x="150" y="1139" on="1"/>
        <pt x="482" y="1139" on="1"/>
        <pt x="482" y="1479" on="1"/>
        <pt x="652" y="1479" on="1"/>
        <pt x="652" y="1139" on="1"/>
        <pt x="984" y="1139" on="1"/>
        <pt x="984" y="991" on="1"/>
        <pt x="652" y="991" on="1"/>
        <pt x="652" y="621" on="1"/>
        <pt x="984" y="621" on="1"/>
        <pt x="984" y="473" on="1"/>
        <pt x="652" y="473" on="1"/>
        <pt x="652" y="96" on="1"/>
      </contour>
    </TTGlyph>
    <TTGlyph name="dcaron" xMin="80" yMin="-27" xMax="1491" yMax="1505">
      <component glyphName="glyph00403" x="80" y="0" flags="0x0"/>
      <component glyphName="comma" x="1014" y="1241" flags="0x1004"/>
      <component glyphName="d" x="0" y="0" flags="0x1004"/>
    </TTGlyph>
    <TTGlyph name="dcroat" xMin="80" yMin="-27" xMax="1225" yMax="1505">
      <contour>
        <pt x="571" y="989" on="1"/>
        <pt x="503" y="989" on="0"/>
        <pt x="398" y="909" on="0"/>
        <pt x="338" y="774" on="0"/>
        <pt x="309" y="617" on="0"/>
        <pt x="309" y="532" on="1"/>
        <pt x="309" y="420" on="0"/>
        <pt x="361" y="229" on="0"/>
        <pt x="480" y="100" on="0"/>
        <pt x="563" y="100" on="1"/>
        <pt x="685" y="100" on="0"/>
        <pt x="844" y="354" on="0"/>
        <pt x="844" y="549" on="1"/>
        <pt x="844" y="629" on="0"/>
        <pt x="812" y="780" on="0"/>
        <pt x="748" y="910" on="0"/>
        <pt x="640" y="989" on="0"/>
      </contour>
      <contour>
        <pt x="831" y="170" on="1"/>
        <pt x="780" y="75" on="0"/>
        <pt x="607" y="-27" on="0"/>
        <pt x="520" y="-27" on="1"/>
        <pt x="321" y="-27" on="0"/>
        <pt x="80" y="283" on="0"/>
        <pt x="80" y="537" on="1"/>
        <pt x="80" y="792" on="0"/>
        <pt x="325" y="1102" on="0"/>
        <pt x="535" y="1102" on="1"/>
        <pt x="618" y="1102" on="0"/>
        <pt x="779" y="1016" on="0"/>
        <pt x="829" y="942" on="1"/>
        <pt x="829" y="1182" on="1"/>
        <pt x="541" y="1182" on="1"/>
        <pt x="541" y="1279" on="1"/>
        <pt x="829" y="1279" on="1"/>
        <pt x="829" y="1382" on="1"/>
        <pt x="594" y="1382" on="1"/>
        <pt x="594" y="1505" on="1"/>
        <pt x="1044" y="1505" on="1"/>
        <pt x="1044" y="1279" on="1"/>
        <pt x="1204" y="1279" on="1"/>
        <pt x="1204" y="1182" on="1"/>
        <pt x="1044" y="1182" on="1"/>
        <pt x="1044" y="115" on="1"/>
        <pt x="1225" y="115" on="1"/>
        <pt x="1225" y="0" on="1"/>
        <pt x="870" y="0" on="1"/>
      </contour>
    </TTGlyph>
    <TTGlyph name="degree" xMin="145" yMin="922" xMax="776" yMax="1509">
      <contour>
        <pt x="531" y="1421" on="0"/>
        <pt x="391" y="1421" on="0"/>
        <pt x="283" y="1312" on="0"/>
        <pt x="283" y="1217" on="1"/>
        <pt x="283" y="1120" on="0"/>
        <pt x="387" y="1018" on="0"/>
        <pt x="459" y="1018" on="1"/>
        <pt x="530" y="1018" on="0"/>
        <pt x="639" y="1125" on="0"/>
        <pt x="639" y="1217" on="1"/>
        <pt x="639" y="1312" on="0"/>
      </contour>
      <contour>
        <pt x="145" y="1217" on="1"/>
        <pt x="145" y="1344" on="0"/>
        <pt x="314" y="1509" on="0"/>
        <pt x="461" y="1509" on="1"/>
        <pt x="606" y="1509" on="0"/>
        <pt x="776" y="1344" on="0"/>
        <pt x="776" y="1090" on="0"/>
        <pt x="606" y="922" on="0"/>
        <pt x="316" y="922" on="0"/>
        <pt x="145" y="1088" on="0"/>
      </contour>
    </TTGlyph>
    <TTGlyph name="dieresis" xMin="172" yMin="1180" xMax="924" yMax="1456">
      <contour>
        <pt x="172" y="1317" on="1"/>
        <pt x="172" y="1374" on="0"/>
        <pt x="252" y="1456" on="0"/>
        <pt x="309" y="1456" on="1"/>
        <pt x="365" y="1456" on="0"/>
        <pt x="446" y="1374" on="0"/>
        <pt x="446" y="1317" on="1"/>
        <pt x="446" y="1262" on="0"/>
        <pt x="364" y="1180" on="0"/>
        <pt x="309" y="1180" on="1"/>
        <pt x="252" y="1180" on="0"/>
        <pt x="172" y="1261" on="0"/>
      </contour>
      <contour>
        <pt x="647" y="1317" on="1"/>
        <pt x="647" y="1374" on="0"/>
        <pt x="727" y="1456" on="0"/>
        <pt x="784" y="1456" on="1"/>
        <pt x="840" y="1456" on="0"/>
        <pt x="924" y="1374" on="0"/>
        <pt x="924" y="1317" on="1"/>
        <pt x="924" y="1262" on="0"/>
        <pt x="840" y="1180" on="0"/>
        <pt x="784" y="1180" on="1"/>
        <pt x="727" y="1180" on="0"/>
        <pt x="647" y="1261" on="0"/>
      </contour>
    </TTGlyph>
    <TTGlyph name="divide" xMin="125" yMin="139" xMax="788" yMax="1073">
      <contour>
        <pt x="338" y="942" on="1"/>
        <pt x="338" y="996" on="0"/>
        <pt x="413" y="1073" on="0"/>
        <pt x="467" y="1073" on="1"/>
        <pt x="520" y="1073" on="0"/>
        <pt x="598" y="996" on="0"/>
        <pt x="598" y="942" on="1"/>
        <pt x="598" y="890" on="0"/>
        <pt x="520" y="813" on="0"/>
        <pt x="467" y="813" on="1"/>
        <pt x="413" y="813" on="0"/>
        <pt x="338" y="889" on="0"/>
      </contour>
      <contour>
        <pt x="338" y="268" on="1"/>
        <pt x="338" y="322" on="0"/>
        <pt x="413" y="399" on="0"/>
        <pt x="467" y="399" on="1"/>
        <pt x="520" y="399" on="0"/>
        <pt x="598" y="322" on="0"/>
        <pt x="598" y="268" on="1"/>
        <pt x="598" y="216" on="0"/>
        <pt x="520" y="139" on="0"/>
        <pt x="467" y="139" on="1"/>
        <pt x="413" y="139" on="0"/>
        <pt x="338" y="215" on="0"/>
      </contour>
      <contour>
        <pt x="788" y="528" on="1"/>
        <pt x="125" y="528" on="1"/>
        <pt x="125" y="684" on="1"/>
        <pt x="788" y="684" on="1"/>
      </contour>
    </TTGlyph>
    <TTGlyph name="dollar" xMin="88" yMin="-193" xMax="1264" yMax="1661">
      <contour>
        <pt x="106" y="1080" on="1"/>
        <pt x="106" y="1266" on="0"/>
        <pt x="393" y="1503" on="0"/>
        <pt x="639" y="1509" on="1"/>
        <pt x="639" y="1659" on="1"/>
        <pt x="735" y="1661" on="1"/>
        <pt x="735" y="1505" on="1"/>
        <pt x="820" y="1499" on="0"/>
        <pt x="981" y="1456" on="0"/>
        <pt x="1131" y="1382" on="0"/>
        <pt x="1223" y="1258" on="0"/>
        <pt x="1223" y="1180" on="1"/>
        <pt x="1223" y="1092" on="0"/>
        <pt x="1134" y="979" on="0"/>
        <pt x="1053" y="979" on="1"/>
        <pt x="986" y="979" on="0"/>
        <pt x="885" y="1056" on="0"/>
        <pt x="885" y="1120" on="1"/>
        <pt x="885" y="1200" on="0"/>
        <pt x="967" y="1276" on="0"/>
        <pt x="1022" y="1276" on="1"/>
        <pt x="915" y="1370" on="0"/>
        <pt x="735" y="1380" on="1"/>
        <pt x="735" y="848" on="1"/>
        <pt x="896" y="808" on="0"/>
        <pt x="1107" y="713" on="0"/>
        <pt x="1220" y="596" on="0"/>
        <pt x="1264" y="470" on="0"/>
        <pt x="1264" y="385" on="1"/>
        <pt x="1264" y="197" on="0"/>
        <pt x="999" y="-13" on="0"/>
        <pt x="735" y="-25" on="1"/>
        <pt x="735" y="-190" on="1"/>
        <pt x="639" y="-193" on="1"/>
        <pt x="639" y="-27" on="1"/>
        <pt x="568" y="-23" on="0"/>
        <pt x="420" y="8" on="0"/>
        <pt x="273" y="69" on="0"/>
        <pt x="159" y="150" on="0"/>
        <pt x="88" y="268" on="0"/>
        <pt x="88" y="336" on="1"/>
        <pt x="88" y="419" on="0"/>
        <pt x="196" y="526" on="0"/>
        <pt x="268" y="526" on="1"/>
        <pt x="335" y="526" on="0"/>
        <pt x="428" y="424" on="0"/>
        <pt x="428" y="360" on="1"/>
        <pt x="428" y="294" on="0"/>
        <pt x="352" y="223" on="0"/>
        <pt x="287" y="215" on="1"/>
        <pt x="439" y="119" on="0"/>
        <pt x="639" y="109" on="1"/>
        <pt x="639" y="633" on="1"/>
        <pt x="633" y="633" on="0"/>
        <pt x="621" y="637" on="1"/>
        <pt x="471" y="674" on="0"/>
        <pt x="264" y="769" on="0"/>
        <pt x="152" y="884" on="0"/>
        <pt x="106" y="1005" on="0"/>
      </contour>
      <contour>
        <pt x="735" y="109" on="1"/>
        <pt x="741" y="109" on="1"/>
        <pt x="882" y="118" on="0"/>
        <pt x="1067" y="251" on="0"/>
        <pt x="1067" y="362" on="1"/>
        <pt x="1067" y="459" on="0"/>
        <pt x="910" y="562" on="0"/>
        <pt x="735" y="608" on="1"/>
      </contour>
      <contour>
        <pt x="639" y="870" on="1"/>
        <pt x="639" y="1380" on="1"/>
        <pt x="503" y="1369" on="0"/>
        <pt x="315" y="1233" on="0"/>
        <pt x="315" y="1126" on="1"/>
        <pt x="315" y="1092" on="0"/>
        <pt x="326" y="1041" on="0"/>
        <pt x="365" y="983" on="0"/>
        <pt x="433" y="937" on="0"/>
        <pt x="554" y="890" on="0"/>
      </contour>
    </TTGlyph>
    <TTGlyph name="dotaccent" xMin="186" yMin="1210" xMax="483" yMax="1507">
      <contour>
        <pt x="186" y="1358" on="1"/>
        <pt x="186" y="1420" on="0"/>
        <pt x="273" y="1507" on="0"/>
        <pt x="334" y="1507" on="1"/>
        <pt x="394" y="1507" on="0"/>
        <pt x="483" y="1419" on="0"/>
        <pt x="483" y="1358" on="1"/>
        <pt x="483" y="1298" on="0"/>
        <pt x="394" y="1210" on="0"/>
        <pt x="334" y="1210" on="1"/>
        <pt x="273" y="1210" on="0"/>
        <pt x="186" y="1298" on="0"/>
      </contour>
    </TTGlyph>
    <TTGlyph name="dotlessi" xMin="51" yMin="0" xMax="657" yMax="1073">
      <contour>
        <pt x="461" y="1073" on="1"/>
        <pt x="461" y="117" on="1"/>
        <pt x="657" y="117" on="1"/>
        <pt x="657" y="0" on="1"/>
        <pt x="53" y="0" on="1"/>
        <pt x="53" y="117" on="1"/>
        <pt x="246" y="117" on="1"/>
        <pt x="246" y="961" on="1"/>
        <pt x="51" y="961" on="1"/>
        <pt x="51" y="1073" on="1"/>
      </contour>
    </TTGlyph>
    <TTGlyph name="e" xMin="74" yMin="-27" xMax="1074" yMax="1102">
      <contour>
        <pt x="310" y="659" on="1"/>
        <pt x="854" y="659" on="1"/>
        <pt x="850" y="804" on="0"/>
        <pt x="699" y="983" on="0"/>
        <pt x="590" y="983" on="1"/>
        <pt x="480" y="983" on="0"/>
        <pt x="322" y="804" on="0"/>
      </contour>
      <contour>
        <pt x="74" y="523" on="1"/>
        <pt x="74" y="613" on="0"/>
        <pt x="116" y="783" on="0"/>
        <pt x="202" y="929" on="0"/>
        <pt x="322" y="1039" on="0"/>
        <pt x="488" y="1102" on="0"/>
        <pt x="584" y="1102" on="1"/>
        <pt x="686" y="1102" on="0"/>
        <pt x="862" y="1030" on="0"/>
        <pt x="994" y="893" on="0"/>
        <pt x="1072" y="682" on="0"/>
        <pt x="1074" y="551" on="1"/>
        <pt x="303" y="551" on="1"/>
        <pt x="303" y="543" on="1"/>
        <pt x="303" y="457" on="0"/>
        <pt x="340" y="309" on="0"/>
        <pt x="414" y="191" on="0"/>
        <pt x="537" y="123" on="0"/>
        <pt x="617" y="123" on="1"/>
        <pt x="721" y="123" on="0"/>
        <pt x="904" y="253" on="0"/>
        <pt x="936" y="371" on="1"/>
        <pt x="1053" y="334" on="1"/>
        <pt x="1014" y="169" on="0"/>
        <pt x="774" y="-27" on="0"/>
        <pt x="596" y="-27" on="1"/>
        <pt x="474" y="-27" on="0"/>
        <pt x="272" y="66" on="0"/>
        <pt x="143" y="222" on="0"/>
        <pt x="74" y="417" on="0"/>
      </contour>
    </TTGlyph>
    <TTGlyph name="eacute" xMin="74" yMin="-27" xMax="1074" yMax="1609">
      <component glyphName="glyph00403" x="74" y="0" flags="0x0"/>
      <component glyphName="e" x="0" y="0" flags="0x1004"/>
      <component glyphName="acute" x="-99" y="12" flags="0x1004"/>
    </TTGlyph>
    <TTGlyph name="ebreve" xMin="74" yMin="-27" xMax="1074" yMax="1452">
      <component glyphName="glyph00403" x="74" y="0" flags="0x0"/>
      <component glyphName="breve" x="6" y="4" flags="0x1004"/>
      <component glyphName="e" x="0" y="0" flags="0x1204"/>
    </TTGlyph>
    <TTGlyph name="ecaron" xMin="74" yMin="-27" xMax="1074" yMax="1653">
      <component glyphName="glyph00403" x="74" y="0" flags="0x0"/>
      <component glyphName="caron" x="-195" y="47" flags="0x1004"/>
      <component glyphName="e" x="0" y="0" flags="0x1204"/>
    </TTGlyph>
    <TTGlyph name="ecircumflex" xMin="74" yMin="-27" xMax="1074" yMax="1653">
      <component glyphName="glyph00403" x="74" y="0" flags="0x0"/>
      <component glyphName="circumflex" x="-195" y="47" flags="0x1004"/>
      <component glyphName="e" x="0" y="0" flags="0x1204"/>
    </TTGlyph>
    <TTGlyph name="edieresis" xMin="74" yMin="-27" xMax="1074" yMax="1482">
      <component glyphName="glyph00403" x="74" y="0" flags="0x0"/>
      <component glyphName="dieresis" x="26" y="26" flags="0x1004"/>
      <component glyphName="e" x="0" y="0" flags="0x1204"/>
    </TTGlyph>
    <TTGlyph name="edotaccent" xMin="74" yMin="-27" xMax="1074" yMax="1503">
      <component glyphName="glyph00403" x="74" y="0" flags="0x0"/>
      <component glyphName="uni0307" x="250" y="-4" flags="0x1004"/>
      <component glyphName="e" x="0" y="0" flags="0x1204"/>
    </TTGlyph>
    <TTGlyph name="egrave" xMin="74" yMin="-27" xMax="1074" yMax="1609">
      <component glyphName="glyph00403" x="74" y="0" flags="0x0"/>
      <component glyphName="e" x="0" y="0" flags="0x1004"/>
      <component glyphName="grave" x="-99" y="12" flags="0x1004"/>
    </TTGlyph>
    <TTGlyph name="eight" xMin="94" yMin="-27" xMax="1141" yMax="1509">
      <contour>
        <pt x="618" y="-27" on="1"/>
        <pt x="386" y="-27" on="0"/>
        <pt x="94" y="169" on="0"/>
        <pt x="94" y="332" on="1"/>
        <pt x="94" y="406" on="0"/>
        <pt x="153" y="539" on="0"/>
        <pt x="235" y="628" on="0"/>
        <pt x="345" y="704" on="0"/>
        <pt x="424" y="742" on="0"/>
        <pt x="463" y="757" on="1"/>
        <pt x="396" y="797" on="0"/>
        <pt x="299" y="872" on="0"/>
        <pt x="210" y="971" on="0"/>
        <pt x="164" y="1093" on="0"/>
        <pt x="164" y="1163" on="1"/>
        <pt x="164" y="1322" on="0"/>
        <pt x="410" y="1509" on="0"/>
        <pt x="623" y="1509" on="1"/>
        <pt x="823" y="1509" on="0"/>
        <pt x="1077" y="1297" on="0"/>
        <pt x="1077" y="1143" on="1"/>
        <pt x="1077" y="1077" on="0"/>
        <pt x="1025" y="961" on="0"/>
        <pt x="935" y="875" on="0"/>
        <pt x="843" y="814" on="0"/>
        <pt x="789" y="790" on="1"/>
        <pt x="850" y="755" on="0"/>
        <pt x="941" y="693" on="0"/>
        <pt x="1039" y="608" on="0"/>
        <pt x="1101" y="522" on="0"/>
        <pt x="1141" y="411" on="0"/>
        <pt x="1141" y="350" on="1"/>
        <pt x="1141" y="178" on="0"/>
        <pt x="863" y="-27" on="0"/>
      </contour>
      <contour>
        <pt x="622" y="1383" on="1"/>
        <pt x="504" y="1383" on="0"/>
        <pt x="348" y="1259" on="0"/>
        <pt x="348" y="1151" on="1"/>
        <pt x="348" y="1126" on="0"/>
        <pt x="368" y="1076" on="0"/>
        <pt x="394" y="1036" on="0"/>
        <pt x="450" y="989" on="0"/>
        <pt x="492" y="957" on="0"/>
        <pt x="574" y="909" on="0"/>
        <pt x="621" y="882" on="0"/>
        <pt x="670" y="856" on="1"/>
        <pt x="709" y="875" on="0"/>
        <pt x="778" y="922" on="0"/>
        <pt x="850" y="995" on="0"/>
        <pt x="893" y="1095" on="0"/>
        <pt x="893" y="1153" on="1"/>
        <pt x="893" y="1245" on="0"/>
        <pt x="745" y="1383" on="0"/>
      </contour>
      <contour>
        <pt x="584" y="690" on="1"/>
        <pt x="539" y="666" on="0"/>
        <pt x="458" y="610" on="0"/>
        <pt x="367" y="526" on="0"/>
        <pt x="313" y="419" on="0"/>
        <pt x="313" y="362" on="1"/>
        <pt x="313" y="235" on="0"/>
        <pt x="473" y="106" on="0"/>
        <pt x="612" y="106" on="1"/>
        <pt x="756" y="106" on="0"/>
        <pt x="932" y="225" on="0"/>
        <pt x="932" y="350" on="1"/>
        <pt x="932" y="404" on="0"/>
        <pt x="880" y="498" on="0"/>
        <pt x="774" y="581" on="0"/>
        <pt x="674" y="642" on="0"/>
        <pt x="596" y="684" on="1"/>
        <pt x="588" y="688" on="0"/>
      </contour>
    </TTGlyph>
    <TTGlyph name="ellipsis" xMin="167" yMin="-20" xMax="1380" yMax="276">
      <component glyphName="glyph00403" x="167" y="0" flags="0x0"/>
      <component glyphName="period" x="21" y="0" flags="0x1004"/>
      <component glyphName="period" x="479" y="0" flags="0x1004"/>
      <component glyphName="period" x="937" y="0" flags="0x1004"/>
    </TTGlyph>
    <TTGlyph name="emacron" xMin="74" yMin="-27" xMax="1074" yMax="1344">
      <component glyphName="glyph00403" x="74" y="0" flags="0x0"/>
      <component glyphName="macron" x="140" y="-135" flags="0x1004"/>
      <component glyphName="e" x="0" y="0" flags="0x1204"/>
    </TTGlyph>
    <TTGlyph name="eogonek" xMin="74" yMin="-410" xMax="1074" yMax="1102">
      <component glyphName="glyph00403" x="74" y="0" flags="0x0"/>
      <component glyphName="ogonek" x="327" y="-25" flags="0x1004"/>
      <component glyphName="e" x="0" y="0" flags="0x1204"/>
    </TTGlyph>
    <TTGlyph name="equal" xMin="153" yMin="358" xMax="851" yMax="860">
      <contour>
        <pt x="153" y="860" on="1"/>
        <pt x="851" y="860" on="1"/>
        <pt x="851" y="723" on="1"/>
        <pt x="153" y="723" on="1"/>
      </contour>
      <contour>
        <pt x="153" y="496" on="1"/>
        <pt x="851" y="496" on="1"/>
        <pt x="851" y="358" on="1"/>
        <pt x="153" y="358" on="1"/>
      </contour>
    </TTGlyph>
    <TTGlyph name="eth" xMin="123" yMin="-20" xMax="1161" yMax="1520">
      <contour>
        <pt x="246" y="1495" on="1"/>
        <pt x="358" y="1520" on="0"/>
        <pt x="451" y="1520" on="1"/>
        <pt x="698" y="1520" on="0"/>
        <pt x="870" y="1367" on="1"/>
        <pt x="1126" y="1487" on="1"/>
        <pt x="1161" y="1403" on="1"/>
        <pt x="937" y="1297" on="1"/>
        <pt x="1035" y="1179" on="0"/>
        <pt x="1137" y="844" on="0"/>
        <pt x="1137" y="647" on="1"/>
        <pt x="1137" y="501" on="0"/>
        <pt x="1085" y="271" on="0"/>
        <pt x="993" y="120" on="0"/>
        <pt x="862" y="22" on="0"/>
        <pt x="712" y="-20" on="0"/>
        <pt x="623" y="-20" on="1"/>
        <pt x="517" y="-20" on="0"/>
        <pt x="345" y="42" on="0"/>
        <pt x="233" y="144" on="0"/>
        <pt x="156" y="282" on="0"/>
        <pt x="123" y="426" on="0"/>
        <pt x="123" y="502" on="1"/>
        <pt x="123" y="601" on="0"/>
        <pt x="185" y="782" on="0"/>
        <pt x="302" y="929" on="0"/>
        <pt x="493" y="1016" on="0"/>
        <pt x="612" y="1016" on="1"/>
        <pt x="660" y="1016" on="0"/>
        <pt x="742" y="999" on="0"/>
        <pt x="803" y="966" on="0"/>
        <pt x="840" y="941" on="0"/>
        <pt x="886" y="901" on="0"/>
        <pt x="891" y="897" on="1"/>
        <pt x="888" y="916" on="0"/>
        <pt x="873" y="981" on="0"/>
        <pt x="803" y="1148" on="0"/>
        <pt x="754" y="1211" on="1"/>
        <pt x="547" y="1114" on="1"/>
        <pt x="512" y="1198" on="1"/>
        <pt x="689" y="1281" on="1"/>
        <pt x="559" y="1397" on="0"/>
        <pt x="377" y="1397" on="1"/>
        <pt x="338" y="1397" on="0"/>
        <pt x="266" y="1386" on="1"/>
      </contour>
      <contour>
        <pt x="913" y="598" on="1"/>
        <pt x="913" y="735" on="0"/>
        <pt x="760" y="879" on="0"/>
        <pt x="623" y="879" on="1"/>
        <pt x="506" y="879" on="0"/>
        <pt x="352" y="647" on="0"/>
        <pt x="352" y="489" on="1"/>
        <pt x="352" y="380" on="0"/>
        <pt x="406" y="212" on="0"/>
        <pt x="534" y="104" on="0"/>
        <pt x="629" y="104" on="1"/>
        <pt x="778" y="104" on="0"/>
        <pt x="913" y="348" on="0"/>
      </contour>
    </TTGlyph>
    <TTGlyph name="exclam" xMin="291" yMin="-20" xMax="588" yMax="1479">
      <contour>
        <pt x="471" y="451" on="1"/>
        <pt x="399" y="451" on="1"/>
        <pt x="305" y="1479" on="1"/>
        <pt x="565" y="1479" on="1"/>
      </contour>
      <contour>
        <pt x="291" y="127" on="1"/>
        <pt x="291" y="189" on="0"/>
        <pt x="377" y="276" on="0"/>
        <pt x="438" y="276" on="1"/>
        <pt x="498" y="276" on="0"/>
        <pt x="588" y="188" on="0"/>
        <pt x="588" y="127" on="1"/>
        <pt x="588" y="67" on="0"/>
        <pt x="498" y="-20" on="0"/>
        <pt x="438" y="-20" on="1"/>
        <pt x="377" y="-20" on="0"/>
        <pt x="291" y="67" on="0"/>
      </contour>
    </TTGlyph>
    <TTGlyph name="exclamdown" xMin="291" yMin="0" xMax="588" yMax="1499">
      <component glyphName="glyph00403" x="291" y="0" flags="0x0"/>
      <component glyphName="exclam" x="879" y="1479" scale="-1.0" flags="0x1004"/>
    </TTGlyph>
    <TTGlyph name="f" xMin="51" yMin="0" xMax="965" yMax="1583">
      <contour>
        <pt x="711" y="112" on="1"/>
        <pt x="711" y="0" on="1"/>
        <pt x="51" y="0" on="1"/>
        <pt x="51" y="112" on="1"/>
        <pt x="246" y="112" on="1"/>
        <pt x="246" y="961" on="1"/>
        <pt x="51" y="961" on="1"/>
        <pt x="51" y="1073" on="1"/>
        <pt x="246" y="1073" on="1"/>
        <pt x="246" y="1336" on="0"/>
        <pt x="418" y="1583" on="0"/>
        <pt x="623" y="1583" on="1"/>
        <pt x="785" y="1583" on="0"/>
        <pt x="965" y="1453" on="0"/>
        <pt x="965" y="1368" on="1"/>
        <pt x="965" y="1289" on="0"/>
        <pt x="879" y="1196" on="0"/>
        <pt x="815" y="1196" on="1"/>
        <pt x="761" y="1196" on="0"/>
        <pt x="680" y="1273" on="0"/>
        <pt x="680" y="1331" on="1"/>
        <pt x="680" y="1367" on="0"/>
        <pt x="741" y="1441" on="0"/>
        <pt x="791" y="1454" on="1"/>
        <pt x="769" y="1475" on="0"/>
        <pt x="690" y="1499" on="0"/>
        <pt x="653" y="1499" on="1"/>
        <pt x="560" y="1499" on="0"/>
        <pt x="455" y="1375" on="0"/>
        <pt x="455" y="1243" on="1"/>
        <pt x="455" y="1073" on="1"/>
        <pt x="782" y="1073" on="1"/>
        <pt x="774" y="961" on="1"/>
        <pt x="461" y="961" on="1"/>
        <pt x="461" y="112" on="1"/>
      </contour>
    </TTGlyph>
    <TTGlyph name="five" xMin="86" yMin="-303" xMax="1010" yMax="1073">
      <contour>
        <pt x="459" y="612" on="1"/>
        <pt x="607" y="612" on="0"/>
        <pt x="824" y="546" on="0"/>
        <pt x="950" y="424" on="0"/>
        <pt x="1010" y="267" on="0"/>
        <pt x="1010" y="169" on="1"/>
        <pt x="1010" y="74" on="0"/>
        <pt x="936" y="-95" on="0"/>
        <pt x="798" y="-227" on="0"/>
        <pt x="578" y="-303" on="0"/>
        <pt x="442" y="-303" on="1"/>
        <pt x="345" y="-303" on="0"/>
        <pt x="187" y="-260" on="0"/>
        <pt x="86" y="-166" on="0"/>
        <pt x="86" y="-100" on="1"/>
        <pt x="86" y="-36" on="0"/>
        <pt x="156" y="43" on="0"/>
        <pt x="227" y="43" on="1"/>
        <pt x="289" y="43" on="0"/>
        <pt x="365" y="-42" on="0"/>
        <pt x="365" y="-96" on="1"/>
        <pt x="365" y="-121" on="0"/>
        <pt x="338" y="-185" on="0"/>
        <pt x="338" y="-186" on="1"/>
        <pt x="403" y="-195" on="0"/>
        <pt x="420" y="-195" on="1"/>
        <pt x="511" y="-195" on="0"/>
        <pt x="654" y="-138" on="0"/>
        <pt x="742" y="-41" on="0"/>
        <pt x="787" y="80" on="0"/>
        <pt x="787" y="148" on="1"/>
        <pt x="787" y="239" on="0"/>
        <pt x="715" y="376" on="0"/>
        <pt x="589" y="456" on="0"/>
        <pt x="436" y="494" on="0"/>
        <pt x="346" y="494" on="1"/>
        <pt x="296" y="494" on="0"/>
        <pt x="217" y="483" on="1"/>
        <pt x="158" y="555" on="1"/>
        <pt x="233" y="1073" on="1"/>
        <pt x="913" y="1073" on="1"/>
        <pt x="854" y="903" on="1"/>
        <pt x="356" y="903" on="1"/>
        <pt x="309" y="604" on="1"/>
        <pt x="380" y="612" on="0"/>
      </contour>
    </TTGlyph>
    <TTGlyph name="florin" xMin="-315" yMin="-389" xMax="1004" yMax="1583">
      <contour>
        <pt x="715" y="1364" on="1"/>
        <pt x="715" y="1425" on="0"/>
        <pt x="773" y="1489" on="1"/>
        <pt x="742" y="1499" on="0"/>
        <pt x="704" y="1499" on="1"/>
        <pt x="621" y="1499" on="0"/>
        <pt x="551" y="1372" on="0"/>
        <pt x="532" y="1223" on="1"/>
        <pt x="513" y="1073" on="1"/>
        <pt x="840" y="1073" on="1"/>
        <pt x="818" y="956" on="1"/>
        <pt x="505" y="956" on="1"/>
        <pt x="402" y="116" on="1"/>
        <pt x="386" y="-16" on="0"/>
        <pt x="330" y="-196" on="0"/>
        <pt x="234" y="-328" on="0"/>
        <pt x="87" y="-389" on="0"/>
        <pt x="-17" y="-389" on="1"/>
        <pt x="-168" y="-389" on="0"/>
        <pt x="-315" y="-282" on="0"/>
        <pt x="-315" y="-203" on="1"/>
        <pt x="-315" y="-118" on="0"/>
        <pt x="-215" y="-30" on="0"/>
        <pt x="-145" y="-30" on="1"/>
        <pt x="-94" y="-30" on="0"/>
        <pt x="-21" y="-90" on="0"/>
        <pt x="-21" y="-140" on="1"/>
        <pt x="-21" y="-223" on="0"/>
        <pt x="-105" y="-292" on="1"/>
        <pt x="-72" y="-305" on="0"/>
        <pt x="-37" y="-305" on="1"/>
        <pt x="52" y="-305" on="0"/>
        <pt x="150" y="-185" on="0"/>
        <pt x="167" y="-49" on="1"/>
        <pt x="290" y="956" on="1"/>
        <pt x="95" y="956" on="1"/>
        <pt x="109" y="1073" on="1"/>
        <pt x="304" y="1073" on="1"/>
        <pt x="320" y="1208" on="0"/>
        <pt x="376" y="1390" on="0"/>
        <pt x="473" y="1523" on="0"/>
        <pt x="621" y="1583" on="0"/>
        <pt x="727" y="1583" on="1"/>
        <pt x="859" y="1583" on="0"/>
        <pt x="1004" y="1486" on="0"/>
        <pt x="1004" y="1411" on="1"/>
        <pt x="1004" y="1327" on="0"/>
        <pt x="905" y="1246" on="0"/>
        <pt x="835" y="1246" on="1"/>
        <pt x="785" y="1246" on="0"/>
        <pt x="715" y="1313" on="0"/>
      </contour>
    </TTGlyph>
    <TTGlyph name="four" xMin="84" yMin="-387" xMax="1124" yMax="1087">
      <contour>
        <pt x="643" y="150" on="1"/>
        <pt x="643" y="924" on="1"/>
        <pt x="268" y="150" on="1"/>
      </contour>
      <contour>
        <pt x="1081" y="-250" on="1"/>
        <pt x="1081" y="-387" on="1"/>
        <pt x="403" y="-387" on="1"/>
        <pt x="403" y="-250" on="1"/>
        <pt x="643" y="-250" on="1"/>
        <pt x="643" y="0" on="1"/>
        <pt x="109" y="0" on="1"/>
        <pt x="84" y="135" on="1"/>
        <pt x="606" y="1087" on="1"/>
        <pt x="858" y="1057" on="1"/>
        <pt x="858" y="150" on="1"/>
        <pt x="1124" y="150" on="1"/>
        <pt x="1106" y="0" on="1"/>
        <pt x="858" y="0" on="1"/>
        <pt x="858" y="-250" on="1"/>
      </contour>
    </TTGlyph>
    <TTGlyph name="fraction" xMin="63" yMin="-61" xMax="1228" yMax="1479">
      <contour>
        <pt x="63" y="-2" on="1"/>
        <pt x="1128" y="1479" on="1"/>
        <pt x="1228" y="1419" on="1"/>
        <pt x="163" y="-61" on="1"/>
      </contour>
    </TTGlyph>
    <TTGlyph name="g" xMin="82" yMin="-535" xMax="1188" yMax="1102">
      <contour>
        <pt x="551" y="-535" on="1"/>
        <pt x="451" y="-535" on="0"/>
        <pt x="287" y="-487" on="0"/>
        <pt x="176" y="-375" on="0"/>
        <pt x="176" y="-295" on="1"/>
        <pt x="176" y="-218" on="0"/>
        <pt x="275" y="-139" on="0"/>
        <pt x="344" y="-139" on="1"/>
        <pt x="400" y="-139" on="0"/>
        <pt x="479" y="-218" on="0"/>
        <pt x="479" y="-279" on="1"/>
        <pt x="479" y="-318" on="0"/>
        <pt x="425" y="-397" on="0"/>
        <pt x="395" y="-408" on="1"/>
        <pt x="459" y="-430" on="0"/>
        <pt x="518" y="-430" on="1"/>
        <pt x="675" y="-430" on="0"/>
        <pt x="829" y="-191" on="0"/>
        <pt x="829" y="23" on="1"/>
        <pt x="829" y="201" on="1"/>
        <pt x="797" y="105" on="0"/>
        <pt x="625" y="-27" on="0"/>
        <pt x="516" y="-27" on="1"/>
        <pt x="431" y="-27" on="0"/>
        <pt x="288" y="35" on="0"/>
        <pt x="187" y="142" on="0"/>
        <pt x="116" y="285" on="0"/>
        <pt x="82" y="447" on="0"/>
        <pt x="82" y="532" on="1"/>
        <pt x="82" y="640" on="0"/>
        <pt x="138" y="841" on="0"/>
        <pt x="245" y="1004" on="0"/>
        <pt x="416" y="1102" on="0"/>
        <pt x="522" y="1102" on="1"/>
        <pt x="613" y="1102" on="0"/>
        <pt x="797" y="983" on="0"/>
        <pt x="829" y="881" on="1"/>
        <pt x="854" y="1073" on="1"/>
        <pt x="1188" y="1073" on="1"/>
        <pt x="1188" y="954" on="1"/>
        <pt x="1044" y="954" on="1"/>
        <pt x="1044" y="51" on="1"/>
        <pt x="1044" y="-42" on="0"/>
        <pt x="1011" y="-209" on="0"/>
        <pt x="936" y="-361" on="0"/>
        <pt x="824" y="-470" on="0"/>
        <pt x="655" y="-535" on="0"/>
      </contour>
      <contour>
        <pt x="559" y="100" on="1"/>
        <pt x="648" y="100" on="0"/>
        <pt x="777" y="224" on="0"/>
        <pt x="836" y="406" on="0"/>
        <pt x="836" y="512" on="1"/>
        <pt x="836" y="716" on="0"/>
        <pt x="687" y="969" on="0"/>
        <pt x="563" y="969" on="1"/>
        <pt x="481" y="969" on="0"/>
        <pt x="359" y="847" on="0"/>
        <pt x="301" y="661" on="0"/>
        <pt x="301" y="551" on="1"/>
        <pt x="301" y="465" on="0"/>
        <pt x="328" y="312" on="0"/>
        <pt x="386" y="178" on="0"/>
        <pt x="490" y="100" on="0"/>
      </contour>
    </TTGlyph>
    <TTGlyph name="gbreve" xMin="82" yMin="-535" xMax="1188" yMax="1450">
      <component glyphName="glyph00403" x="82" y="0" flags="0x0"/>
      <component glyphName="breve" x="56" y="2" flags="0x1004"/>
      <component glyphName="g" x="0" y="0" flags="0x1204"/>
    </TTGlyph>
    <TTGlyph name="gcircumflex" xMin="82" yMin="-535" xMax="1188" yMax="1651">
      <component glyphName="glyph00403" x="82" y="0" flags="0x0"/>
      <component glyphName="circumflex" x="-134" y="45" flags="0x1004"/>
      <component glyphName="g" x="0" y="0" flags="0x1204"/>
    </TTGlyph>
    <TTGlyph name="gcommaaccent" xMin="82" yMin="-535" xMax="1188" yMax="1748">
      <component glyphName="glyph00403" x="82" y="0" flags="0x0"/>
      <component glyphName="g" x="0" y="0" flags="0x1004"/>
      <component glyphName="comma" x="886" y="1496" scale="-1.0" flags="0x1004"/>
    </TTGlyph>
    <TTGlyph name="gdotaccent" xMin="82" yMin="-535" xMax="1188" yMax="1501">
      <component glyphName="glyph00403" x="82" y="0" flags="0x0"/>
      <component glyphName="uni0307" x="300" y="-6" flags="0x1004"/>
      <component glyphName="g" x="0" y="0" flags="0x1204"/>
    </TTGlyph>
    <TTGlyph name="germandbls" xMin="68" yMin="0" xMax="1241" yMax="1489">
      <contour>
        <pt x="430" y="981" on="1"/>
        <pt x="430" y="0" on="1"/>
        <pt x="68" y="0" on="1"/>
        <pt x="68" y="119" on="1"/>
        <pt x="215" y="119" on="1"/>
        <pt x="215" y="981" on="1"/>
        <pt x="215" y="1231" on="0"/>
        <pt x="452" y="1489" on="0"/>
        <pt x="672" y="1489" on="1"/>
        <pt x="856" y="1489" on="0"/>
        <pt x="1075" y="1311" on="0"/>
        <pt x="1075" y="1130" on="1"/>
        <pt x="1075" y="1064" on="0"/>
        <pt x="1022" y="948" on="0"/>
        <pt x="947" y="874" on="0"/>
        <pt x="872" y="818" on="0"/>
        <pt x="819" y="780" on="0"/>
        <pt x="819" y="770" on="1"/>
        <pt x="819" y="757" on="0"/>
        <pt x="882" y="723" on="0"/>
        <pt x="975" y="686" on="0"/>
        <pt x="1085" y="622" on="0"/>
        <pt x="1178" y="546" on="0"/>
        <pt x="1241" y="423" on="0"/>
        <pt x="1241" y="350" on="1"/>
        <pt x="1241" y="283" on="0"/>
        <pt x="1190" y="174" on="0"/>
        <pt x="1111" y="102" on="0"/>
        <pt x="991" y="49" on="0"/>
        <pt x="876" y="21" on="0"/>
        <pt x="731" y="4" on="0"/>
        <pt x="624" y="0" on="0"/>
        <pt x="561" y="0" on="1"/>
        <pt x="561" y="119" on="1"/>
        <pt x="803" y="119" on="0"/>
        <pt x="1026" y="231" on="0"/>
        <pt x="1026" y="348" on="1"/>
        <pt x="1026" y="402" on="0"/>
        <pt x="982" y="489" on="0"/>
        <pt x="912" y="548" on="0"/>
        <pt x="826" y="597" on="0"/>
        <pt x="741" y="638" on="0"/>
        <pt x="671" y="679" on="0"/>
        <pt x="627" y="734" on="0"/>
        <pt x="627" y="766" on="1"/>
        <pt x="627" y="804" on="0"/>
        <pt x="666" y="876" on="0"/>
        <pt x="725" y="927" on="0"/>
        <pt x="793" y="986" on="0"/>
        <pt x="852" y="1038" on="0"/>
        <pt x="891" y="1110" on="0"/>
        <pt x="891" y="1149" on="1"/>
        <pt x="891" y="1246" on="0"/>
        <pt x="777" y="1354" on="0"/>
        <pt x="680" y="1354" on="1"/>
        <pt x="554" y="1354" on="0"/>
        <pt x="430" y="1159" on="0"/>
      </contour>
    </TTGlyph>
    <TTGlyph name="glyph00391" xMin="74" yMin="-29" xMax="2367" yMax="1536">
      <contour>
        <pt x="815" y="1243" on="1"/>
        <pt x="815" y="1200" on="0"/>
        <pt x="861" y="1101" on="0"/>
        <pt x="928" y="1010" on="0"/>
        <pt x="994" y="915" on="0"/>
        <pt x="1040" y="804" on="0"/>
        <pt x="1040" y="752" on="1"/>
        <pt x="1040" y="693" on="0"/>
        <pt x="956" y="590" on="0"/>
        <pt x="883" y="590" on="1"/>
        <pt x="818" y="590" on="0"/>
        <pt x="729" y="667" on="0"/>
        <pt x="729" y="731" on="1"/>
        <pt x="729" y="796" on="0"/>
        <pt x="821" y="868" on="0"/>
        <pt x="883" y="868" on="1"/>
        <pt x="850" y="921" on="0"/>
        <pt x="729" y="989" on="0"/>
        <pt x="651" y="989" on="1"/>
        <pt x="564" y="989" on="0"/>
        <pt x="426" y="912" on="0"/>
        <pt x="344" y="785" on="0"/>
        <pt x="301" y="632" on="0"/>
        <pt x="301" y="549" on="1"/>
        <pt x="301" y="356" on="0"/>
        <pt x="479" y="135" on="0"/>
        <pt x="637" y="135" on="1"/>
        <pt x="698" y="135" on="0"/>
        <pt x="811" y="186" on="0"/>
        <pt x="888" y="263" on="0"/>
        <pt x="940" y="339" on="0"/>
        <pt x="950" y="371" on="1"/>
        <pt x="1063" y="334" on="1"/>
        <pt x="1025" y="169" on="0"/>
        <pt x="779" y="-29" on="0"/>
        <pt x="592" y="-29" on="1"/>
        <pt x="485" y="-29" on="0"/>
        <pt x="295" y="48" on="0"/>
        <pt x="155" y="187" on="0"/>
        <pt x="74" y="394" on="0"/>
        <pt x="74" y="516" on="1"/>
        <pt x="74" y="608" on="0"/>
        <pt x="117" y="780" on="0"/>
        <pt x="207" y="929" on="0"/>
        <pt x="334" y="1040" on="0"/>
        <pt x="511" y="1104" on="0"/>
        <pt x="616" y="1104" on="1"/>
        <pt x="688" y="1104" on="0"/>
        <pt x="758" y="1083" on="1"/>
        <pt x="757" y="1084" on="0"/>
        <pt x="740" y="1114" on="0"/>
        <pt x="737" y="1121" on="0"/>
        <pt x="722" y="1149" on="0"/>
        <pt x="717" y="1159" on="0"/>
        <pt x="705" y="1184" on="0"/>
        <pt x="701" y="1197" on="0"/>
        <pt x="693" y="1220" on="0"/>
        <pt x="690" y="1236" on="0"/>
        <pt x="687" y="1255" on="0"/>
        <pt x="687" y="1264" on="1"/>
        <pt x="687" y="1356" on="0"/>
        <pt x="792" y="1472" on="0"/>
        <pt x="1056" y="1536" on="0"/>
        <pt x="1278" y="1536" on="1"/>
        <pt x="1470" y="1536" on="1"/>
        <pt x="1470" y="883" on="1"/>
        <pt x="1508" y="961" on="0"/>
        <pt x="1633" y="1063" on="0"/>
        <pt x="1757" y="1102" on="0"/>
        <pt x="1821" y="1102" on="1"/>
        <pt x="1863" y="1102" on="0"/>
        <pt x="1938" y="1090" on="0"/>
        <pt x="2035" y="1044" on="0"/>
        <pt x="2104" y="967" on="0"/>
        <pt x="2152" y="821" on="0"/>
        <pt x="2152" y="723" on="1"/>
        <pt x="2152" y="117" on="1"/>
        <pt x="2367" y="117" on="1"/>
        <pt x="2367" y="0" on="1"/>
        <pt x="1743" y="0" on="1"/>
        <pt x="1743" y="117" on="1"/>
        <pt x="1937" y="117" on="1"/>
        <pt x="1937" y="731" on="1"/>
        <pt x="1937" y="848" on="0"/>
        <pt x="1849" y="961" on="0"/>
        <pt x="1778" y="961" on="1"/>
        <pt x="1670" y="961" on="0"/>
        <pt x="1470" y="744" on="0"/>
        <pt x="1470" y="598" on="1"/>
        <pt x="1470" y="117" on="1"/>
        <pt x="1665" y="117" on="1"/>
        <pt x="1665" y="0" on="1"/>
        <pt x="1071" y="0" on="1"/>
        <pt x="1071" y="117" on="1"/>
        <pt x="1255" y="117" on="1"/>
        <pt x="1255" y="1413" on="1"/>
        <pt x="1081" y="1413" on="0"/>
        <pt x="882" y="1370" on="0"/>
        <pt x="815" y="1300" on="0"/>
      </contour>
    </TTGlyph>
    <TTGlyph name="glyph00392" xMin="74" yMin="-29" xMax="2374" yMax="1536">
      <contour>
        <pt x="815" y="1243" on="1"/>
        <pt x="815" y="1200" on="0"/>
        <pt x="861" y="1101" on="0"/>
        <pt x="928" y="1010" on="0"/>
        <pt x="994" y="915" on="0"/>
        <pt x="1040" y="804" on="0"/>
        <pt x="1040" y="752" on="1"/>
        <pt x="1040" y="693" on="0"/>
        <pt x="956" y="590" on="0"/>
        <pt x="883" y="590" on="1"/>
        <pt x="818" y="590" on="0"/>
        <pt x="729" y="667" on="0"/>
        <pt x="729" y="731" on="1"/>
        <pt x="729" y="796" on="0"/>
        <pt x="821" y="868" on="0"/>
        <pt x="883" y="868" on="1"/>
        <pt x="850" y="921" on="0"/>
        <pt x="729" y="989" on="0"/>
        <pt x="651" y="989" on="1"/>
        <pt x="564" y="989" on="0"/>
        <pt x="426" y="912" on="0"/>
        <pt x="344" y="785" on="0"/>
        <pt x="301" y="632" on="0"/>
        <pt x="301" y="549" on="1"/>
        <pt x="301" y="356" on="0"/>
        <pt x="479" y="135" on="0"/>
        <pt x="637" y="135" on="1"/>
        <pt x="698" y="135" on="0"/>
        <pt x="811" y="186" on="0"/>
        <pt x="888" y="263" on="0"/>
        <pt x="940" y="339" on="0"/>
        <pt x="950" y="371" on="1"/>
        <pt x="1063" y="334" on="1"/>
        <pt x="1025" y="169" on="0"/>
        <pt x="779" y="-29" on="0"/>
        <pt x="592" y="-29" on="1"/>
        <pt x="485" y="-29" on="0"/>
        <pt x="295" y="48" on="0"/>
        <pt x="155" y="187" on="0"/>
        <pt x="74" y="394" on="0"/>
        <pt x="74" y="516" on="1"/>
        <pt x="74" y="608" on="0"/>
        <pt x="117" y="780" on="0"/>
        <pt x="207" y="929" on="0"/>
        <pt x="334" y="1040" on="0"/>
        <pt x="511" y="1104" on="0"/>
        <pt x="616" y="1104" on="1"/>
        <pt x="688" y="1104" on="0"/>
        <pt x="758" y="1083" on="1"/>
        <pt x="757" y="1084" on="0"/>
        <pt x="740" y="1114" on="0"/>
        <pt x="737" y="1121" on="0"/>
        <pt x="722" y="1149" on="0"/>
        <pt x="717" y="1159" on="0"/>
        <pt x="705" y="1184" on="0"/>
        <pt x="701" y="1197" on="0"/>
        <pt x="693" y="1220" on="0"/>
        <pt x="690" y="1236" on="0"/>
        <pt x="687" y="1255" on="0"/>
        <pt x="687" y="1264" on="1"/>
        <pt x="687" y="1356" on="0"/>
        <pt x="792" y="1472" on="0"/>
        <pt x="1056" y="1536" on="0"/>
        <pt x="1278" y="1536" on="1"/>
        <pt x="1505" y="1536" on="1"/>
        <pt x="1505" y="571" on="1"/>
        <pt x="1923" y="956" on="1"/>
        <pt x="1735" y="956" on="1"/>
        <pt x="1735" y="1073" on="1"/>
        <pt x="2335" y="1073" on="1"/>
        <pt x="2335" y="956" on="1"/>
        <pt x="2144" y="956" on="1"/>
        <pt x="1798" y="629" on="1"/>
        <pt x="1828" y="587" on="0"/>
        <pt x="1926" y="429" on="0"/>
        <pt x="2000" y="317" on="0"/>
        <pt x="2093" y="200" on="0"/>
        <pt x="2192" y="137" on="0"/>
        <pt x="2241" y="137" on="1"/>
        <pt x="2299" y="137" on="0"/>
        <pt x="2345" y="158" on="1"/>
        <pt x="2374" y="23" on="1"/>
        <pt x="2325" y="-5" on="0"/>
        <pt x="2248" y="-20" on="0"/>
        <pt x="2195" y="-20" on="1"/>
        <pt x="2088" y="-20" on="0"/>
        <pt x="1935" y="92" on="0"/>
        <pt x="1872" y="199" on="1"/>
        <pt x="1671" y="545" on="1"/>
        <pt x="1505" y="418" on="1"/>
        <pt x="1505" y="117" on="1"/>
        <pt x="1675" y="117" on="1"/>
        <pt x="1675" y="0" on="1"/>
        <pt x="1087" y="0" on="1"/>
        <pt x="1087" y="117" on="1"/>
        <pt x="1290" y="117" on="1"/>
        <pt x="1290" y="1413" on="1"/>
        <pt x="1255" y="1413" on="1"/>
        <pt x="1081" y="1413" on="0"/>
        <pt x="882" y="1370" on="0"/>
        <pt x="815" y="1300" on="0"/>
      </contour>
    </TTGlyph>
    <TTGlyph name="glyph00393" xMin="74" yMin="0" xMax="1581" yMax="1583">
      <contour>
        <pt x="614" y="0" on="1"/>
        <pt x="90" y="0" on="1"/>
        <pt x="90" y="117" on="1"/>
        <pt x="268" y="117" on="1"/>
        <pt x="268" y="961" on="1"/>
        <pt x="74" y="961" on="1"/>
        <pt x="74" y="1073" on="1"/>
        <pt x="268" y="1073" on="1"/>
        <pt x="268" y="1330" on="0"/>
        <pt x="465" y="1583" on="0"/>
        <pt x="674" y="1583" on="1"/>
        <pt x="778" y="1583" on="0"/>
        <pt x="938" y="1510" on="0"/>
        <pt x="979" y="1454" on="1"/>
        <pt x="1037" y="1516" on="0"/>
        <pt x="1181" y="1583" on="0"/>
        <pt x="1247" y="1583" on="1"/>
        <pt x="1341" y="1583" on="0"/>
        <pt x="1477" y="1537" on="0"/>
        <pt x="1549" y="1458" on="0"/>
        <pt x="1581" y="1373" on="0"/>
        <pt x="1581" y="1325" on="1"/>
        <pt x="1581" y="1247" on="0"/>
        <pt x="1490" y="1159" on="0"/>
        <pt x="1425" y="1159" on="1"/>
        <pt x="1371" y="1159" on="0"/>
        <pt x="1296" y="1235" on="0"/>
        <pt x="1296" y="1294" on="1"/>
        <pt x="1296" y="1347" on="0"/>
        <pt x="1374" y="1415" on="0"/>
        <pt x="1419" y="1415" on="1"/>
        <pt x="1418" y="1452" on="0"/>
        <pt x="1330" y="1499" on="0"/>
        <pt x="1278" y="1499" on="1"/>
        <pt x="1184" y="1499" on="0"/>
        <pt x="1069" y="1374" on="0"/>
        <pt x="1069" y="1243" on="1"/>
        <pt x="1069" y="1073" on="1"/>
        <pt x="1323" y="1073" on="1"/>
        <pt x="1323" y="961" on="1"/>
        <pt x="1075" y="961" on="1"/>
        <pt x="1075" y="117" on="1"/>
        <pt x="1268" y="117" on="1"/>
        <pt x="1268" y="0" on="1"/>
        <pt x="709" y="0" on="1"/>
        <pt x="709" y="117" on="1"/>
        <pt x="860" y="117" on="1"/>
        <pt x="860" y="961" on="1"/>
        <pt x="483" y="961" on="1"/>
        <pt x="483" y="117" on="1"/>
        <pt x="614" y="117" on="1"/>
      </contour>
      <contour>
        <pt x="477" y="1073" on="1"/>
        <pt x="860" y="1073" on="1"/>
        <pt x="860" y="1206" on="1"/>
        <pt x="810" y="1220" on="0"/>
        <pt x="760" y="1287" on="0"/>
        <pt x="760" y="1329" on="1"/>
        <pt x="760" y="1410" on="0"/>
        <pt x="829" y="1464" on="1"/>
        <pt x="815" y="1477" on="0"/>
        <pt x="731" y="1499" on="0"/>
        <pt x="678" y="1499" on="1"/>
        <pt x="585" y="1499" on="0"/>
        <pt x="477" y="1375" on="0"/>
        <pt x="477" y="1243" on="1"/>
      </contour>
    </TTGlyph>
    <TTGlyph name="glyph00394" xMin="74" yMin="0" xMax="1919" yMax="1583">
      <contour>
        <pt x="629" y="0" on="1"/>
        <pt x="84" y="0" on="1"/>
        <pt x="84" y="117" on="1"/>
        <pt x="268" y="117" on="1"/>
        <pt x="268" y="961" on="1"/>
        <pt x="74" y="961" on="1"/>
        <pt x="74" y="1073" on="1"/>
        <pt x="268" y="1073" on="1"/>
        <pt x="268" y="1324" on="0"/>
        <pt x="501" y="1583" on="0"/>
        <pt x="715" y="1583" on="1"/>
        <pt x="819" y="1583" on="0"/>
        <pt x="981" y="1510" on="0"/>
        <pt x="1022" y="1454" on="1"/>
        <pt x="1142" y="1583" on="0"/>
        <pt x="1364" y="1583" on="1"/>
        <pt x="1458" y="1583" on="0"/>
        <pt x="1606" y="1537" on="0"/>
        <pt x="1693" y="1461" on="0"/>
        <pt x="1737" y="1373" on="0"/>
        <pt x="1737" y="1327" on="1"/>
        <pt x="1737" y="1248" on="0"/>
        <pt x="1651" y="1159" on="0"/>
        <pt x="1587" y="1159" on="1"/>
        <pt x="1533" y="1159" on="0"/>
        <pt x="1452" y="1236" on="0"/>
        <pt x="1452" y="1294" on="1"/>
        <pt x="1452" y="1347" on="0"/>
        <pt x="1535" y="1415" on="0"/>
        <pt x="1581" y="1415" on="1"/>
        <pt x="1580" y="1451" on="0"/>
        <pt x="1452" y="1499" on="0"/>
        <pt x="1395" y="1499" on="1"/>
        <pt x="1348" y="1499" on="0"/>
        <pt x="1254" y="1470" on="0"/>
        <pt x="1167" y="1412" on="0"/>
        <pt x="1112" y="1309" on="0"/>
        <pt x="1112" y="1243" on="1"/>
        <pt x="1112" y="1073" on="1"/>
        <pt x="1743" y="1073" on="1"/>
        <pt x="1743" y="117" on="1"/>
        <pt x="1919" y="117" on="1"/>
        <pt x="1919" y="0" on="1"/>
        <pt x="1372" y="0" on="1"/>
        <pt x="1372" y="117" on="1"/>
        <pt x="1528" y="117" on="1"/>
        <pt x="1528" y="961" on="1"/>
        <pt x="1118" y="961" on="1"/>
        <pt x="1118" y="117" on="1"/>
        <pt x="1286" y="117" on="1"/>
        <pt x="1286" y="0" on="1"/>
        <pt x="723" y="0" on="1"/>
        <pt x="723" y="117" on="1"/>
        <pt x="903" y="117" on="1"/>
        <pt x="903" y="961" on="1"/>
        <pt x="483" y="961" on="1"/>
        <pt x="483" y="117" on="1"/>
        <pt x="629" y="117" on="1"/>
      </contour>
      <contour>
        <pt x="477" y="1073" on="1"/>
        <pt x="903" y="1073" on="1"/>
        <pt x="903" y="1206" on="1"/>
        <pt x="853" y="1220" on="0"/>
        <pt x="803" y="1287" on="0"/>
        <pt x="803" y="1329" on="1"/>
        <pt x="803" y="1410" on="0"/>
        <pt x="872" y="1464" on="1"/>
        <pt x="858" y="1476" on="0"/>
        <pt x="772" y="1499" on="0"/>
        <pt x="719" y="1499" on="1"/>
        <pt x="673" y="1499" on="0"/>
        <pt x="590" y="1470" on="0"/>
        <pt x="519" y="1411" on="0"/>
        <pt x="477" y="1309" on="0"/>
        <pt x="477" y="1243" on="1"/>
      </contour>
    </TTGlyph>
    <TTGlyph name="glyph00395" xMin="74" yMin="0" xMax="1958" yMax="1583">
      <contour>
        <pt x="629" y="0" on="1"/>
        <pt x="74" y="0" on="1"/>
        <pt x="74" y="117" on="1"/>
        <pt x="268" y="117" on="1"/>
        <pt x="268" y="961" on="1"/>
        <pt x="74" y="961" on="1"/>
        <pt x="74" y="1073" on="1"/>
        <pt x="268" y="1073" on="1"/>
        <pt x="268" y="1333" on="0"/>
        <pt x="452" y="1583" on="0"/>
        <pt x="659" y="1583" on="1"/>
        <pt x="867" y="1583" on="0"/>
        <pt x="981" y="1466" on="1"/>
        <pt x="1086" y="1583" on="0"/>
        <pt x="1286" y="1583" on="1"/>
        <pt x="1402" y="1583" on="0"/>
        <pt x="1621" y="1537" on="0"/>
        <pt x="1765" y="1454" on="0"/>
        <pt x="1765" y="1405" on="1"/>
        <pt x="1765" y="117" on="1"/>
        <pt x="1958" y="117" on="1"/>
        <pt x="1958" y="0" on="1"/>
        <pt x="1376" y="0" on="1"/>
        <pt x="1376" y="117" on="1"/>
        <pt x="1550" y="117" on="1"/>
        <pt x="1550" y="1403" on="1"/>
        <pt x="1542" y="1435" on="0"/>
        <pt x="1457" y="1476" on="0"/>
        <pt x="1366" y="1489" on="0"/>
        <pt x="1317" y="1489" on="1"/>
        <pt x="1217" y="1489" on="0"/>
        <pt x="1077" y="1370" on="0"/>
        <pt x="1077" y="1243" on="1"/>
        <pt x="1077" y="1073" on="1"/>
        <pt x="1409" y="1073" on="1"/>
        <pt x="1409" y="961" on="1"/>
        <pt x="1083" y="961" on="1"/>
        <pt x="1083" y="117" on="1"/>
        <pt x="1278" y="117" on="1"/>
        <pt x="1278" y="0" on="1"/>
        <pt x="737" y="0" on="1"/>
        <pt x="737" y="117" on="1"/>
        <pt x="868" y="117" on="1"/>
        <pt x="868" y="961" on="1"/>
        <pt x="483" y="961" on="1"/>
        <pt x="483" y="117" on="1"/>
        <pt x="629" y="117" on="1"/>
      </contour>
      <contour>
        <pt x="868" y="1073" on="1"/>
        <pt x="868" y="1087" on="1"/>
        <pt x="868" y="1136" on="0"/>
        <pt x="872" y="1182" on="1"/>
        <pt x="818" y="1192" on="0"/>
        <pt x="760" y="1264" on="0"/>
        <pt x="760" y="1309" on="1"/>
        <pt x="760" y="1353" on="0"/>
        <pt x="815" y="1421" on="0"/>
        <pt x="864" y="1425" on="1"/>
        <pt x="844" y="1460" on="0"/>
        <pt x="742" y="1499" on="0"/>
        <pt x="690" y="1499" on="1"/>
        <pt x="595" y="1499" on="0"/>
        <pt x="477" y="1374" on="0"/>
        <pt x="477" y="1243" on="1"/>
        <pt x="477" y="1073" on="1"/>
      </contour>
    </TTGlyph>
    <TTGlyph name="glyph00396" xMin="51" yMin="-471" xMax="1118" yMax="1583">
      <contour>
        <pt x="774" y="-471" on="1"/>
        <pt x="766" y="-471" on="1"/>
        <pt x="618" y="-471" on="0"/>
        <pt x="463" y="-356" on="0"/>
        <pt x="463" y="-254" on="1"/>
        <pt x="463" y="-188" on="0"/>
        <pt x="550" y="-113" on="0"/>
        <pt x="608" y="-113" on="1"/>
        <pt x="656" y="-113" on="0"/>
        <pt x="725" y="-171" on="0"/>
        <pt x="725" y="-223" on="1"/>
        <pt x="725" y="-326" on="0"/>
        <pt x="668" y="-350" on="1"/>
        <pt x="700" y="-362" on="0"/>
        <pt x="739" y="-362" on="1"/>
        <pt x="769" y="-362" on="0"/>
        <pt x="820" y="-343" on="0"/>
        <pt x="873" y="-295" on="0"/>
        <pt x="903" y="-194" on="0"/>
        <pt x="903" y="-121" on="1"/>
        <pt x="903" y="961" on="1"/>
        <pt x="461" y="961" on="1"/>
        <pt x="461" y="117" on="1"/>
        <pt x="696" y="117" on="1"/>
        <pt x="696" y="0" on="1"/>
        <pt x="51" y="0" on="1"/>
        <pt x="51" y="117" on="1"/>
        <pt x="246" y="117" on="1"/>
        <pt x="246" y="961" on="1"/>
        <pt x="51" y="961" on="1"/>
        <pt x="51" y="1073" on="1"/>
        <pt x="246" y="1073" on="1"/>
        <pt x="246" y="1320" on="0"/>
        <pt x="512" y="1583" on="0"/>
        <pt x="731" y="1583" on="1"/>
        <pt x="813" y="1583" on="0"/>
        <pt x="956" y="1533" on="0"/>
        <pt x="1044" y="1457" on="0"/>
        <pt x="1094" y="1370" on="0"/>
        <pt x="1094" y="1331" on="1"/>
        <pt x="1094" y="1252" on="0"/>
        <pt x="1008" y="1159" on="0"/>
        <pt x="944" y="1159" on="1"/>
        <pt x="890" y="1159" on="0"/>
        <pt x="809" y="1236" on="0"/>
        <pt x="809" y="1294" on="1"/>
        <pt x="809" y="1347" on="0"/>
        <pt x="892" y="1415" on="0"/>
        <pt x="938" y="1415" on="1"/>
        <pt x="937" y="1451" on="0"/>
        <pt x="818" y="1499" on="0"/>
        <pt x="762" y="1499" on="1"/>
        <pt x="724" y="1499" on="0"/>
        <pt x="645" y="1480" on="0"/>
        <pt x="562" y="1432" on="0"/>
        <pt x="497" y="1363" on="0"/>
        <pt x="455" y="1251" on="0"/>
        <pt x="455" y="1182" on="1"/>
        <pt x="455" y="1073" on="1"/>
        <pt x="1118" y="1073" on="1"/>
        <pt x="1118" y="-90" on="1"/>
        <pt x="1118" y="-272" on="0"/>
        <pt x="928" y="-469" on="0"/>
      </contour>
    </TTGlyph>
    <TTGlyph name="glyph00397" xMin="76" yMin="-27" xMax="2335" yMax="1536">
      <contour>
        <pt x="683" y="1264" on="1"/>
        <pt x="683" y="1334" on="0"/>
        <pt x="732" y="1430" on="0"/>
        <pt x="856" y="1502" on="0"/>
        <pt x="1078" y="1536" on="0"/>
        <pt x="1245" y="1536" on="1"/>
        <pt x="1438" y="1536" on="1"/>
        <pt x="1438" y="883" on="1"/>
        <pt x="1476" y="961" on="0"/>
        <pt x="1600" y="1063" on="0"/>
        <pt x="1724" y="1102" on="0"/>
        <pt x="1788" y="1102" on="1"/>
        <pt x="1830" y="1102" on="0"/>
        <pt x="1905" y="1090" on="0"/>
        <pt x="2003" y="1044" on="0"/>
        <pt x="2071" y="967" on="0"/>
        <pt x="2120" y="821" on="0"/>
        <pt x="2120" y="723" on="1"/>
        <pt x="2120" y="117" on="1"/>
        <pt x="2335" y="117" on="1"/>
        <pt x="2335" y="0" on="1"/>
        <pt x="1710" y="0" on="1"/>
        <pt x="1710" y="117" on="1"/>
        <pt x="1905" y="117" on="1"/>
        <pt x="1905" y="731" on="1"/>
        <pt x="1905" y="848" on="0"/>
        <pt x="1816" y="961" on="0"/>
        <pt x="1745" y="961" on="1"/>
        <pt x="1637" y="961" on="0"/>
        <pt x="1438" y="744" on="0"/>
        <pt x="1438" y="598" on="1"/>
        <pt x="1438" y="117" on="1"/>
        <pt x="1632" y="117" on="1"/>
        <pt x="1632" y="0" on="1"/>
        <pt x="1038" y="0" on="1"/>
        <pt x="1038" y="117" on="1"/>
        <pt x="1223" y="117" on="1"/>
        <pt x="1223" y="1413" on="1"/>
        <pt x="1117" y="1413" on="0"/>
        <pt x="967" y="1397" on="0"/>
        <pt x="878" y="1371" on="0"/>
        <pt x="827" y="1326" on="0"/>
        <pt x="811" y="1278" on="0"/>
        <pt x="811" y="1243" on="1"/>
        <pt x="811" y="1195" on="0"/>
        <pt x="944" y="885" on="0"/>
        <pt x="944" y="844" on="1"/>
        <pt x="944" y="779" on="0"/>
        <pt x="867" y="694" on="0"/>
        <pt x="815" y="694" on="1"/>
        <pt x="756" y="694" on="0"/>
        <pt x="674" y="754" on="0"/>
        <pt x="674" y="811" on="1"/>
        <pt x="674" y="863" on="0"/>
        <pt x="729" y="923" on="0"/>
        <pt x="780" y="928" on="1"/>
        <pt x="738" y="958" on="0"/>
        <pt x="595" y="995" on="0"/>
        <pt x="522" y="995" on="1"/>
        <pt x="416" y="995" on="0"/>
        <pt x="276" y="917" on="0"/>
        <pt x="276" y="836" on="1"/>
        <pt x="276" y="792" on="0"/>
        <pt x="352" y="727" on="0"/>
        <pt x="474" y="683" on="0"/>
        <pt x="620" y="642" on="0"/>
        <pt x="767" y="586" on="0"/>
        <pt x="889" y="513" on="0"/>
        <pt x="965" y="388" on="0"/>
        <pt x="965" y="307" on="1"/>
        <pt x="965" y="217" on="0"/>
        <pt x="887" y="82" on="0"/>
        <pt x="754" y="8" on="0"/>
        <pt x="602" y="-27" on="0"/>
        <pt x="516" y="-27" on="1"/>
        <pt x="454" y="-27" on="0"/>
        <pt x="333" y="-8" on="0"/>
        <pt x="217" y="36" on="0"/>
        <pt x="130" y="99" on="0"/>
        <pt x="76" y="194" on="0"/>
        <pt x="76" y="252" on="1"/>
        <pt x="76" y="317" on="0"/>
        <pt x="162" y="403" on="0"/>
        <pt x="272" y="403" on="0"/>
        <pt x="348" y="341" on="0"/>
        <pt x="348" y="281" on="1"/>
        <pt x="348" y="230" on="0"/>
        <pt x="288" y="156" on="0"/>
        <pt x="250" y="156" on="1"/>
        <pt x="289" y="126" on="0"/>
        <pt x="422" y="88" on="0"/>
        <pt x="489" y="88" on="1"/>
        <pt x="607" y="88" on="0"/>
        <pt x="774" y="182" on="0"/>
        <pt x="774" y="276" on="1"/>
        <pt x="774" y="324" on="0"/>
        <pt x="715" y="399" on="0"/>
        <pt x="619" y="443" on="0"/>
        <pt x="496" y="486" on="0"/>
        <pt x="368" y="519" on="0"/>
        <pt x="245" y="572" on="0"/>
        <pt x="149" y="636" on="0"/>
        <pt x="90" y="741" on="0"/>
        <pt x="90" y="809" on="1"/>
        <pt x="90" y="876" on="0"/>
        <pt x="147" y="981" on="0"/>
        <pt x="234" y="1043" on="0"/>
        <pt x="350" y="1083" on="0"/>
        <pt x="456" y="1098" on="0"/>
        <pt x="510" y="1098" on="1"/>
        <pt x="573" y="1098" on="0"/>
        <pt x="729" y="1060" on="0"/>
        <pt x="782" y="1028" on="1"/>
        <pt x="775" y="1043" on="0"/>
        <pt x="719" y="1141" on="0"/>
        <pt x="683" y="1227" on="0"/>
      </contour>
    </TTGlyph>
    <TTGlyph name="glyph00398" xMin="76" yMin="-27" xMax="2335" yMax="1536">
      <contour>
        <pt x="2202" y="137" on="1"/>
        <pt x="2260" y="137" on="0"/>
        <pt x="2306" y="158" on="1"/>
        <pt x="2335" y="23" on="1"/>
        <pt x="2286" y="-5" on="0"/>
        <pt x="2209" y="-20" on="0"/>
        <pt x="2157" y="-20" on="1"/>
        <pt x="2050" y="-20" on="0"/>
        <pt x="1895" y="92" on="0"/>
        <pt x="1833" y="199" on="1"/>
        <pt x="1632" y="545" on="1"/>
        <pt x="1466" y="418" on="1"/>
        <pt x="1466" y="117" on="1"/>
        <pt x="1636" y="117" on="1"/>
        <pt x="1636" y="0" on="1"/>
        <pt x="1026" y="0" on="1"/>
        <pt x="1026" y="117" on="1"/>
        <pt x="1251" y="117" on="1"/>
        <pt x="1251" y="1413" on="1"/>
        <pt x="1077" y="1413" on="0"/>
        <pt x="878" y="1370" on="0"/>
        <pt x="811" y="1300" on="0"/>
        <pt x="811" y="1243" on="1"/>
        <pt x="811" y="1195" on="0"/>
        <pt x="944" y="885" on="0"/>
        <pt x="944" y="844" on="1"/>
        <pt x="944" y="779" on="0"/>
        <pt x="867" y="694" on="0"/>
        <pt x="815" y="694" on="1"/>
        <pt x="756" y="694" on="0"/>
        <pt x="674" y="754" on="0"/>
        <pt x="674" y="811" on="1"/>
        <pt x="674" y="863" on="0"/>
        <pt x="729" y="923" on="0"/>
        <pt x="780" y="928" on="1"/>
        <pt x="738" y="958" on="0"/>
        <pt x="595" y="995" on="0"/>
        <pt x="522" y="995" on="1"/>
        <pt x="416" y="995" on="0"/>
        <pt x="276" y="917" on="0"/>
        <pt x="276" y="836" on="1"/>
        <pt x="276" y="792" on="0"/>
        <pt x="352" y="727" on="0"/>
        <pt x="474" y="683" on="0"/>
        <pt x="620" y="642" on="0"/>
        <pt x="767" y="586" on="0"/>
        <pt x="889" y="513" on="0"/>
        <pt x="965" y="388" on="0"/>
        <pt x="965" y="307" on="1"/>
        <pt x="965" y="217" on="0"/>
        <pt x="887" y="82" on="0"/>
        <pt x="754" y="8" on="0"/>
        <pt x="602" y="-27" on="0"/>
        <pt x="516" y="-27" on="1"/>
        <pt x="454" y="-27" on="0"/>
        <pt x="333" y="-8" on="0"/>
        <pt x="217" y="36" on="0"/>
        <pt x="130" y="99" on="0"/>
        <pt x="76" y="194" on="0"/>
        <pt x="76" y="252" on="1"/>
        <pt x="76" y="317" on="0"/>
        <pt x="162" y="403" on="0"/>
        <pt x="272" y="403" on="0"/>
        <pt x="348" y="341" on="0"/>
        <pt x="348" y="281" on="1"/>
        <pt x="348" y="230" on="0"/>
        <pt x="288" y="156" on="0"/>
        <pt x="250" y="156" on="1"/>
        <pt x="289" y="126" on="0"/>
        <pt x="422" y="88" on="0"/>
        <pt x="489" y="88" on="1"/>
        <pt x="607" y="88" on="0"/>
        <pt x="774" y="182" on="0"/>
        <pt x="774" y="276" on="1"/>
        <pt x="774" y="324" on="0"/>
        <pt x="715" y="399" on="0"/>
        <pt x="619" y="443" on="0"/>
        <pt x="496" y="486" on="0"/>
        <pt x="368" y="519" on="0"/>
        <pt x="245" y="572" on="0"/>
        <pt x="149" y="636" on="0"/>
        <pt x="90" y="741" on="0"/>
        <pt x="90" y="809" on="1"/>
        <pt x="90" y="876" on="0"/>
        <pt x="147" y="981" on="0"/>
        <pt x="234" y="1043" on="0"/>
        <pt x="350" y="1083" on="0"/>
        <pt x="456" y="1098" on="0"/>
        <pt x="510" y="1098" on="1"/>
        <pt x="573" y="1098" on="0"/>
        <pt x="729" y="1060" on="0"/>
        <pt x="782" y="1028" on="1"/>
        <pt x="775" y="1043" on="0"/>
        <pt x="719" y="1141" on="0"/>
        <pt x="683" y="1227" on="0"/>
        <pt x="683" y="1264" on="1"/>
        <pt x="683" y="1356" on="0"/>
        <pt x="788" y="1472" on="0"/>
        <pt x="1052" y="1536" on="0"/>
        <pt x="1274" y="1536" on="1"/>
        <pt x="1466" y="1536" on="1"/>
        <pt x="1466" y="571" on="1"/>
        <pt x="1884" y="956" on="1"/>
        <pt x="1696" y="956" on="1"/>
        <pt x="1696" y="1073" on="1"/>
        <pt x="2296" y="1073" on="1"/>
        <pt x="2296" y="956" on="1"/>
        <pt x="2105" y="956" on="1"/>
        <pt x="1759" y="629" on="1"/>
        <pt x="1789" y="587" on="0"/>
        <pt x="1887" y="430" on="0"/>
        <pt x="1962" y="317" on="0"/>
        <pt x="2055" y="200" on="0"/>
        <pt x="2153" y="137" on="0"/>
      </contour>
    </TTGlyph>
    <TTGlyph name="glyph00399" xMin="-20" yMin="-27" xMax="1547" yMax="1626">
      <contour>
        <pt x="1264" y="-27" on="1"/>
        <pt x="1115" y="-27" on="0"/>
        <pt x="930" y="159" on="0"/>
        <pt x="930" y="326" on="1"/>
        <pt x="930" y="961" on="1"/>
        <pt x="400" y="961" on="1"/>
        <pt x="400" y="299" on="1"/>
        <pt x="400" y="113" on="0"/>
        <pt x="543" y="113" on="1"/>
        <pt x="693" y="113" on="0"/>
        <pt x="693" y="371" on="1"/>
        <pt x="693" y="494" on="1"/>
        <pt x="807" y="494" on="1"/>
        <pt x="807" y="391" on="1"/>
        <pt x="807" y="313" on="0"/>
        <pt x="792" y="193" on="0"/>
        <pt x="751" y="85" on="0"/>
        <pt x="685" y="14" on="0"/>
        <pt x="579" y="-27" on="0"/>
        <pt x="508" y="-27" on="1"/>
        <pt x="445" y="-27" on="0"/>
        <pt x="332" y="13" on="0"/>
        <pt x="240" y="92" on="0"/>
        <pt x="185" y="222" on="0"/>
        <pt x="185" y="305" on="1"/>
        <pt x="185" y="961" on="1"/>
        <pt x="-20" y="961" on="1"/>
        <pt x="-20" y="1008" on="1"/>
        <pt x="35" y="1024" on="0"/>
        <pt x="123" y="1073" on="0"/>
        <pt x="184" y="1126" on="0"/>
        <pt x="233" y="1202" on="0"/>
        <pt x="262" y="1268" on="0"/>
        <pt x="290" y="1366" on="0"/>
        <pt x="304" y="1439" on="0"/>
        <pt x="327" y="1553" on="0"/>
        <pt x="336" y="1591" on="1"/>
        <pt x="340" y="1607" on="0"/>
        <pt x="362" y="1626" on="0"/>
        <pt x="384" y="1626" on="0"/>
        <pt x="400" y="1607" on="0"/>
        <pt x="400" y="1591" on="1"/>
        <pt x="400" y="1073" on="1"/>
        <pt x="805" y="1073" on="1"/>
        <pt x="845" y="1073" on="0"/>
        <pt x="912" y="1106" on="0"/>
        <pt x="962" y="1175" on="0"/>
        <pt x="998" y="1244" on="0"/>
        <pt x="1030" y="1357" on="0"/>
        <pt x="1049" y="1434" on="0"/>
        <pt x="1075" y="1562" on="0"/>
        <pt x="1082" y="1591" on="1"/>
        <pt x="1086" y="1607" on="0"/>
        <pt x="1108" y="1626" on="0"/>
        <pt x="1130" y="1626" on="0"/>
        <pt x="1145" y="1608" on="0"/>
        <pt x="1145" y="1591" on="1"/>
        <pt x="1145" y="1073" on="1"/>
        <pt x="1438" y="1073" on="1"/>
        <pt x="1438" y="961" on="1"/>
        <pt x="1145" y="961" on="1"/>
        <pt x="1145" y="299" on="1"/>
        <pt x="1145" y="196" on="0"/>
        <pt x="1219" y="113" on="0"/>
        <pt x="1287" y="113" on="1"/>
        <pt x="1359" y="113" on="0"/>
        <pt x="1430" y="235" on="0"/>
        <pt x="1430" y="371" on="1"/>
        <pt x="1430" y="494" on="1"/>
        <pt x="1547" y="494" on="1"/>
        <pt x="1547" y="391" on="1"/>
        <pt x="1547" y="311" on="0"/>
        <pt x="1535" y="195" on="0"/>
        <pt x="1499" y="84" on="0"/>
        <pt x="1438" y="15" on="0"/>
        <pt x="1335" y="-27" on="0"/>
      </contour>
    </TTGlyph>
    <TTGlyph name="glyph00400" xMin="35" yMin="-430" xMax="1401" yMax="1505">
      <component glyphName="glyph00403" x="35" y="0" flags="0x0"/>
      <component glyphName="T" x="0" y="0" flags="0x1004"/>
      <component glyphName="cedilla" x="430" y="15" flags="0x1004"/>
    </TTGlyph>
    <TTGlyph name="glyph00401" xMin="-20" yMin="-456" xMax="827" yMax="1505">
      <component glyphName="glyph00403" x="0" y="0" flags="0x0"/>
      <component glyphName="t" x="0" y="0" flags="0x1004"/>
      <component glyphName="cedilla" x="296" y="-12" flags="0x1004"/>
    </TTGlyph>
    <TTGlyph name="glyph00402" xMin="170" yMin="563" xMax="844" yMax="1505">
      <contour>
        <pt x="844" y="571" on="1"/>
        <pt x="817" y="797" on="1"/>
        <pt x="422" y="797" on="1"/>
        <pt x="623" y="944" on="1"/>
        <pt x="728" y="1012" on="0"/>
        <pt x="821" y="1159" on="0"/>
        <pt x="821" y="1219" on="1"/>
        <pt x="821" y="1354" on="0"/>
        <pt x="660" y="1505" on="0"/>
        <pt x="522" y="1505" on="1"/>
        <pt x="378" y="1505" on="0"/>
        <pt x="170" y="1363" on="0"/>
        <pt x="170" y="1270" on="1"/>
        <pt x="170" y="1266" on="1"/>
        <pt x="172" y="1217" on="0"/>
        <pt x="233" y="1145" on="0"/>
        <pt x="293" y="1145" on="1"/>
        <pt x="345" y="1145" on="0"/>
        <pt x="408" y="1205" on="0"/>
        <pt x="408" y="1255" on="1"/>
        <pt x="408" y="1291" on="0"/>
        <pt x="364" y="1339" on="0"/>
        <pt x="336" y="1348" on="1"/>
        <pt x="398" y="1419" on="0"/>
        <pt x="496" y="1419" on="1"/>
        <pt x="565" y="1419" on="0"/>
        <pt x="668" y="1306" on="0"/>
        <pt x="668" y="1231" on="1"/>
        <pt x="668" y="1105" on="0"/>
        <pt x="553" y="1026" on="1"/>
        <pt x="199" y="764" on="1"/>
        <pt x="213" y="674" on="1"/>
        <pt x="723" y="674" on="1"/>
        <pt x="793" y="563" on="1"/>
      </contour>
    </TTGlyph>
    <TTGlyph name="glyph00403" xMin="0" yMin="0" xMax="0" yMax="0">
      <contour>
        <pt x="0" y="0" on="1"/>
      </contour>
    </TTGlyph>
    <TTGlyph name="grave" xMin="395" yMin="1194" xMax="971" yMax="1597">
      <contour>
        <pt x="395" y="1458" on="1"/>
        <pt x="496" y="1597" on="1"/>
        <pt x="789" y="1389" on="0"/>
        <pt x="971" y="1233" on="1"/>
        <pt x="942" y="1194" on="1"/>
        <pt x="924" y="1201" on="0"/>
        <pt x="862" y="1224" on="0"/>
        <pt x="697" y="1291" on="0"/>
        <pt x="561" y="1352" on="0"/>
        <pt x="423" y="1429" on="0"/>
      </contour>
    </TTGlyph>
    <TTGlyph name="greater" xMin="73" yMin="279" xMax="874" yMax="1155">
      <contour>
        <pt x="874" y="801" on="1"/>
        <pt x="874" y="604" on="1"/>
        <pt x="73" y="279" on="1"/>
        <pt x="73" y="449" on="1"/>
        <pt x="718" y="711" on="1"/>
        <pt x="73" y="989" on="1"/>
        <pt x="73" y="1155" on="1"/>
      </contour>
    </TTGlyph>
    <TTGlyph name="greaterequal" xMin="148" yMin="70" xMax="949" yMax="1155">
      <contour>
        <pt x="949" y="208" on="1"/>
        <pt x="148" y="208" on="1"/>
        <pt x="148" y="70" on="1"/>
        <pt x="949" y="70" on="1"/>
      </contour>
      <contour>
        <pt x="949" y="801" on="1"/>
        <pt x="148" y="1155" on="1"/>
        <pt x="148" y="989" on="1"/>
        <pt x="792" y="711" on="1"/>
        <pt x="148" y="449" on="1"/>
        <pt x="148" y="279" on="1"/>
        <pt x="949" y="604" on="1"/>
      </contour>
    </TTGlyph>
    <TTGlyph name="guillemotleft" xMin="84" yMin="258" xMax="889" yMax="1061">
      <contour>
        <pt x="502" y="258" on="1"/>
        <pt x="502" y="485" on="1"/>
        <pt x="742" y="672" on="1"/>
        <pt x="502" y="846" on="1"/>
        <pt x="502" y="1061" on="1"/>
        <pt x="502" y="1061" on="0"/>
        <pt x="889" y="731" on="1"/>
        <pt x="889" y="596" on="1"/>
      </contour>
      <contour>
        <pt x="84" y="258" on="1"/>
        <pt x="84" y="485" on="1"/>
        <pt x="324" y="672" on="1"/>
        <pt x="84" y="846" on="1"/>
        <pt x="84" y="1061" on="1"/>
        <pt x="84" y="1061" on="0"/>
        <pt x="471" y="731" on="1"/>
        <pt x="471" y="596" on="1"/>
      </contour>
    </TTGlyph>
    <TTGlyph name="guillemotright" xMin="84" yMin="258" xMax="889" yMax="1061">
      <contour>
        <pt x="502" y="258" on="1"/>
        <pt x="502" y="485" on="1"/>
        <pt x="742" y="672" on="1"/>
        <pt x="502" y="846" on="1"/>
        <pt x="502" y="1061" on="1"/>
        <pt x="502" y="1061" on="0"/>
        <pt x="889" y="731" on="1"/>
        <pt x="889" y="596" on="1"/>
      </contour>
      <contour>
        <pt x="84" y="258" on="1"/>
        <pt x="84" y="485" on="1"/>
        <pt x="324" y="672" on="1"/>
        <pt x="84" y="846" on="1"/>
        <pt x="84" y="1061" on="1"/>
        <pt x="84" y="1061" on="0"/>
        <pt x="471" y="731" on="1"/>
        <pt x="471" y="596" on="1"/>
      </contour>
    </TTGlyph>
    <TTGlyph name="guilsinglleft" xMin="78" yMin="258" xMax="465" yMax="1061">
      <contour>
        <pt x="465" y="258" on="1"/>
        <pt x="78" y="596" on="1"/>
        <pt x="78" y="731" on="1"/>
        <pt x="379" y="987" on="0"/>
        <pt x="465" y="1061" on="1"/>
        <pt x="465" y="846" on="1"/>
        <pt x="225" y="672" on="1"/>
        <pt x="465" y="485" on="1"/>
      </contour>
    </TTGlyph>
    <TTGlyph name="guilsinglright" xMin="84" yMin="258" xMax="471" yMax="1061">
      <contour>
        <pt x="84" y="258" on="1"/>
        <pt x="84" y="485" on="1"/>
        <pt x="324" y="672" on="1"/>
        <pt x="84" y="846" on="1"/>
        <pt x="84" y="1061" on="1"/>
        <pt x="84" y="1061" on="0"/>
        <pt x="471" y="731" on="1"/>
        <pt x="471" y="596" on="1"/>
      </contour>
    </TTGlyph>
    <TTGlyph name="h" xMin="33" yMin="0" xMax="1341" yMax="1505">
      <contour>
        <pt x="1126" y="723" on="1"/>
        <pt x="1126" y="112" on="1"/>
        <pt x="1341" y="112" on="1"/>
        <pt x="1341" y="0" on="1"/>
        <pt x="717" y="0" on="1"/>
        <pt x="717" y="112" on="1"/>
        <pt x="911" y="112" on="1"/>
        <pt x="911" y="731" on="1"/>
        <pt x="911" y="847" on="0"/>
        <pt x="823" y="961" on="0"/>
        <pt x="752" y="961" on="1"/>
        <pt x="701" y="961" on="0"/>
        <pt x="592" y="904" on="0"/>
        <pt x="502" y="809" on="0"/>
        <pt x="444" y="672" on="0"/>
        <pt x="444" y="598" on="1"/>
        <pt x="444" y="112" on="1"/>
        <pt x="639" y="112" on="1"/>
        <pt x="639" y="0" on="1"/>
        <pt x="45" y="0" on="1"/>
        <pt x="45" y="112" on="1"/>
        <pt x="229" y="112" on="1"/>
        <pt x="229" y="1382" on="1"/>
        <pt x="33" y="1382" on="1"/>
        <pt x="33" y="1505" on="1"/>
        <pt x="444" y="1505" on="1"/>
        <pt x="444" y="883" on="1"/>
        <pt x="482" y="961" on="0"/>
        <pt x="607" y="1063" on="0"/>
        <pt x="731" y="1102" on="0"/>
        <pt x="795" y="1102" on="1"/>
        <pt x="837" y="1102" on="0"/>
        <pt x="912" y="1090" on="0"/>
        <pt x="1009" y="1044" on="0"/>
        <pt x="1078" y="967" on="0"/>
        <pt x="1126" y="821" on="0"/>
      </contour>
    </TTGlyph>
    <TTGlyph name="hbar" xMin="33" yMin="0" xMax="1341" yMax="1505">
      <contour>
        <pt x="1126" y="723" on="1"/>
        <pt x="1126" y="117" on="1"/>
        <pt x="1341" y="117" on="1"/>
        <pt x="1341" y="0" on="1"/>
        <pt x="717" y="0" on="1"/>
        <pt x="717" y="117" on="1"/>
        <pt x="911" y="117" on="1"/>
        <pt x="911" y="731" on="1"/>
        <pt x="911" y="847" on="0"/>
        <pt x="823" y="960" on="0"/>
        <pt x="752" y="960" on="1"/>
        <pt x="684" y="960" on="0"/>
        <pt x="542" y="866" on="0"/>
        <pt x="444" y="695" on="0"/>
        <pt x="444" y="598" on="1"/>
        <pt x="444" y="117" on="1"/>
        <pt x="639" y="117" on="1"/>
        <pt x="639" y="0" on="1"/>
        <pt x="45" y="0" on="1"/>
        <pt x="45" y="117" on="1"/>
        <pt x="229" y="117" on="1"/>
        <pt x="229" y="1188" on="1"/>
        <pt x="69" y="1188" on="1"/>
        <pt x="69" y="1286" on="1"/>
        <pt x="229" y="1286" on="1"/>
        <pt x="229" y="1382" on="1"/>
        <pt x="33" y="1382" on="1"/>
        <pt x="33" y="1505" on="1"/>
        <pt x="444" y="1505" on="1"/>
        <pt x="444" y="1286" on="1"/>
        <pt x="732" y="1286" on="1"/>
        <pt x="732" y="1188" on="1"/>
        <pt x="444" y="1188" on="1"/>
        <pt x="444" y="883" on="1"/>
        <pt x="482" y="961" on="0"/>
        <pt x="607" y="1063" on="0"/>
        <pt x="731" y="1102" on="0"/>
        <pt x="795" y="1102" on="1"/>
        <pt x="837" y="1102" on="0"/>
        <pt x="912" y="1090" on="0"/>
        <pt x="1009" y="1044" on="0"/>
        <pt x="1078" y="967" on="0"/>
        <pt x="1126" y="821" on="0"/>
      </contour>
    </TTGlyph>
    <TTGlyph name="hcircumflex" xMin="33" yMin="0" xMax="1341" yMax="2054">
      <component glyphName="glyph00403" x="33" y="0" flags="0x0"/>
      <component glyphName="h" x="0" y="0" flags="0x1004"/>
      <component glyphName="circumflex" x="-82" y="448" flags="0x1004"/>
    </TTGlyph>
    <TTGlyph name="hungarumlaut" xMin="395" yMin="1194" xMax="1319" yMax="1638">
      <contour>
        <pt x="930" y="1499" on="1"/>
        <pt x="886" y="1454" on="0"/>
        <pt x="633" y="1301" on="0"/>
        <pt x="528" y="1248" on="1"/>
        <pt x="424" y="1194" on="1"/>
        <pt x="395" y="1233" on="1"/>
        <pt x="476" y="1302" on="0"/>
        <pt x="693" y="1505" on="0"/>
        <pt x="761" y="1572" on="1"/>
        <pt x="829" y="1638" on="1"/>
      </contour>
      <contour>
        <pt x="1319" y="1499" on="1"/>
        <pt x="1275" y="1454" on="0"/>
        <pt x="1022" y="1301" on="0"/>
        <pt x="918" y="1248" on="1"/>
        <pt x="813" y="1194" on="1"/>
        <pt x="784" y="1233" on="1"/>
        <pt x="865" y="1302" on="0"/>
        <pt x="1082" y="1505" on="0"/>
        <pt x="1150" y="1572" on="1"/>
        <pt x="1219" y="1638" on="1"/>
      </contour>
    </TTGlyph>
    <TTGlyph name="hyphen" xMin="153" yMin="547" xMax="735" yMax="684">
      <contour>
        <pt x="735" y="547" on="1"/>
        <pt x="153" y="547" on="1"/>
        <pt x="153" y="684" on="1"/>
        <pt x="735" y="684" on="1"/>
      </contour>
    </TTGlyph>
    <TTGlyph name="i" xMin="53" yMin="0" xMax="659" yMax="1559">
      <contour>
        <pt x="188" y="1409" on="1"/>
        <pt x="188" y="1471" on="0"/>
        <pt x="275" y="1559" on="0"/>
        <pt x="336" y="1559" on="1"/>
        <pt x="396" y="1559" on="0"/>
        <pt x="485" y="1470" on="0"/>
        <pt x="485" y="1409" on="1"/>
        <pt x="485" y="1349" on="0"/>
        <pt x="396" y="1262" on="0"/>
        <pt x="336" y="1262" on="1"/>
        <pt x="275" y="1262" on="0"/>
        <pt x="188" y="1349" on="0"/>
      </contour>
      <contour>
        <pt x="463" y="1073" on="1"/>
        <pt x="463" y="112" on="1"/>
        <pt x="659" y="112" on="1"/>
        <pt x="659" y="0" on="1"/>
        <pt x="55" y="0" on="1"/>
        <pt x="55" y="112" on="1"/>
        <pt x="248" y="112" on="1"/>
        <pt x="248" y="961" on="1"/>
        <pt x="53" y="961" on="1"/>
        <pt x="53" y="1073" on="1"/>
      </contour>
    </TTGlyph>
    <TTGlyph name="iacute" xMin="51" yMin="0" xMax="661" yMax="1607">
      <component glyphName="glyph00403" x="51" y="0" flags="0x0"/>
      <component glyphName="acute" x="-310" y="10" flags="0x1004"/>
      <component glyphName="dotlessi" x="0" y="0" flags="0x1204"/>
    </TTGlyph>
    <TTGlyph name="ibreve" xMin="51" yMin="0" xMax="657" yMax="1450">
      <component glyphName="glyph00403" x="51" y="0" flags="0x0"/>
      <component glyphName="breve" x="-224" y="2" flags="0x1004"/>
      <component glyphName="dotlessi" x="0" y="0" flags="0x1204"/>
    </TTGlyph>
    <TTGlyph name="icircumflex" xMin="27" yMin="0" xMax="681" yMax="1651">
      <component glyphName="glyph00403" x="27" y="0" flags="0x0"/>
      <component glyphName="circumflex" x="-415" y="45" flags="0x1004"/>
      <component glyphName="dotlessi" x="0" y="0" flags="0x1204"/>
    </TTGlyph>
    <TTGlyph name="idieresis" xMin="-22" yMin="0" xMax="730" yMax="1480">
      <component glyphName="glyph00403" x="0" y="0" flags="0x0"/>
      <component glyphName="dieresis" x="-194" y="24" flags="0x1004"/>
      <component glyphName="dotlessi" x="0" y="0" flags="0x1204"/>
    </TTGlyph>
    <TTGlyph name="igrave" xMin="-32" yMin="0" xMax="657" yMax="1607">
      <component glyphName="glyph00403" x="0" y="0" flags="0x0"/>
      <component glyphName="dotlessi" x="0" y="0" flags="0x1004"/>
      <component glyphName="grave" x="-427" y="10" flags="0x1004"/>
    </TTGlyph>
    <TTGlyph name="ij" xMin="53" yMin="-471" xMax="1189" yMax="1559">
      <component glyphName="glyph00403" x="53" y="0" flags="0x0"/>
      <component glyphName="j" x="665" y="0" flags="0x1004"/>
      <component glyphName="i" x="0" y="0" flags="0x1004"/>
    </TTGlyph>
    <TTGlyph name="imacron" xMin="51" yMin="0" xMax="673" yMax="1342">
      <component glyphName="glyph00403" x="51" y="0" flags="0x0"/>
      <component glyphName="macron" x="-62" y="-137" flags="0x1004"/>
      <component glyphName="dotlessi" x="0" y="0" flags="0x1204"/>
    </TTGlyph>
</ttFont>
